<?xml version="1.0" encoding="utf-8"?>
<!-- Generator: Adobe Illustrator 16.0.0, SVG Export Plug-In . SVG Version: 6.00 Build 0)  -->
<!DOCTYPE svg PUBLIC "-//W3C//DTD SVG 1.1//EN" "http://www.w3.org/Graphics/SVG/1.1/DTD/svg11.dtd">
<svg version="1.1" id="Capa_1" xmlns="http://www.w3.org/2000/svg" xmlns:xlink="http://www.w3.org/1999/xlink" x="0px" y="0px"
	 width="200px" height="200px" viewBox="0 0 200 200" enable-background="new 0 0 200 200" xml:space="preserve">
<g>
	<g>
		<g>
			<path fill="#FF473A" d="M63.85,177.974c0,0-63.039-37.76-1.84-107.542c0,0,56.779-56.597,106.756,32.665
				c0,0,28.654,63.336-23.613,87.25C145.152,190.347,105.371,207.847,63.85,177.974z"/>
		</g>
		<g>
			<g>
				<path fill="#FFFFFF" d="M16.408,90.288c-2.352-6.584-1.179-13.192,3.403-19.107c1.252-1.62,3.593-1.909,5.194-0.659
					c1.63,1.255,1.918,3.578,0.661,5.197c-3.034,3.922-3.778,7.872-2.271,12.071c3.912,10.932,22.1,21.244,33.336,23.833
					c10.009,2.289,24.25,0.795,31.854-10.811c-0.375-0.537-0.75-1.086-1.101-1.663c-1.08-1.714-7.688-16.023-2.672-21.973
					c1.204-1.435,4.076-3.498,9.414-1.317c1.652,0.681,3.868,2.216,4.973,5.674c1.736,5.354-0.064,13.094-1.971,18.234
					c4.707,4.943,10.296,6.192,17.254,3.963c1.994-0.638,4.262-1.829,6.431-3.435c-3.282-2.812-6.093-6.094-7.478-9.75
					c-1.369-3.661-1.168-7.394,0.609-10.786c2.477-4.723,6.66-7.374,11.17-7.098c4.598,0.277,8.643,3.558,10.509,8.541
					c1.661,4.398,1.319,9.26-0.997,14.051c-0.668,1.37-1.499,2.727-2.452,4.04c3.44,2.078,7.001,3.778,9.789,4.843
					c11.737,4.534,26.763-3.428,36.339-13.333c1.416-1.48,3.771-1.529,5.238-0.099c1.472,1.421,1.512,3.764,0.094,5.24
					c-11.267,11.673-29.371,20.881-44.336,15.119c-0.459-0.181-6.227-2.428-12.285-6.256c-3.146,2.69-6.763,4.835-10.364,5.984
					c-8.883,2.85-16.757,1.364-23.144-4.248c-8.283,11.023-23.084,15.845-38.52,12.306c-0.988-0.228-2.059-0.52-3.221-0.879
					C40.345,114.355,21.35,104.084,16.408,90.288z M90.387,82.379c-0.323,1.718,0.535,5.576,1.617,8.768
					c0.543-2.778,0.73-5.526,0.154-7.342c-0.289-0.901-0.629-1.035-0.752-1.083c-0.253-0.104-0.481-0.189-0.657-0.246
					C90.599,82.436,90.496,82.404,90.387,82.379z M124.756,80.062c-1.532-0.094-3.038,1.051-4.141,3.137
					c-0.802,1.531-0.881,3.037-0.239,4.737c0.917,2.426,3.095,4.872,5.829,7.123c0.711-0.962,1.335-1.972,1.854-3.035
					c1.416-2.959,1.681-5.722,0.744-8.208c-0.714-1.869-1.926-3.188-3.292-3.615C125.272,80.129,125.016,80.083,124.756,80.062z"/>
			</g>
		</g>
		<g>
			<g>
				<path fill="#FFFFFF" d="M27.401,161.466c-0.719-2.273,0.552-4.693,2.832-5.401c2.271-0.712,4.684,0.549,5.392,2.828
					c3.373,10.769,21.379,15.218,36.807,13.291c7.529-0.941,15.468-3.482,20.883-7.995c-0.131-0.167-0.256-0.339-0.373-0.509
					c-3.717-5.226-4.918-10.95-3.315-15.732c2.317-6.885,7.39-9.188,11.407-8.418c4.089,0.757,7.975,4.955,7.557,12.527
					c-0.219,4.211-1.451,8.107-3.531,11.599c3.416,2.396,7.966,4.193,13.391,4.254c5.205,0.062,10.522-3.012,14.84-7.246
					c-2.055-2.954-3.51-6.248-4.202-9.863c-0.394-2.05-2.067-12.516,3.607-17.701c1.862-1.688,5.151-3.396,10.331-1.913
					c0.104,0.032,0.207,0.063,0.308,0.099c5.995,1.876,8.915,7.25,7.855,14.45c-0.665,4.536-2.999,9.854-6.503,14.774
					c6.694,5.613,16.581,8.584,24.021,8.976c2.393,0.115,4.211,2.155,4.091,4.532c-0.133,2.377-2.159,4.205-4.532,4.083
					c-10.119-0.529-21.271-4.402-29.155-11.076c-5.763,5.589-13.071,9.604-20.767,9.514c-6.85-0.077-13.525-2.367-18.85-6.264
					c-6.102,5.41-15.031,9.1-25.999,10.467c-8.758,1.096-18.116,0.462-26.16-2.059C37.789,175.695,30.084,170.048,27.401,161.466z
					 M97.817,150.695c-0.563,1.655-0.182,3.854,1.011,6.144c0.652-1.614,1.043-3.366,1.149-5.258
					c0.13-2.478-0.535-3.501-0.409-3.573C99.371,148.058,98.496,148.676,97.817,150.695z M140.633,139.48
					c-0.605-0.171-1.688-0.409-2.12-0.012c-1.132,1.041-1.807,5.273-0.958,9.709c0.304,1.531,0.787,2.969,1.462,4.325
					c1.944-3.126,3.238-6.311,3.645-9.028c0.565-3.916-0.912-4.648-1.822-4.931C140.767,139.523,140.691,139.492,140.633,139.48z"/>
			</g>
		</g>
	</g>
	<g>
		<path fill="#87888A" d="M78.788,59.898c0.012,0.309,0.124,0.553,0.335,0.742c3.836,9.711,55.787,5.667,55.787,5.667
			c3.271-0.403,4.2-2.257,4.455-3.278h0.033c0,0,0.011-0.075,0.011-0.094c0.036-0.122,0.036-0.139,0.048-0.223
			c0.579-2.742,4.572-23.197-2.186-25.498c0,0-1.943-0.531-5.101-1.302c-0.015-5.301-0.354-10-0.581-11.552
			c-2.293-15.49-9.513-19.286-15.189-19.735c-0.326-0.139-11.541-0.805-19.453,8.178c-4.006,4.544-6.276,10.743-7.016,18.317
			c-5.178,0.741-9.026,2.508-10.123,5.948C79.809,37.069,78.475,51.539,78.788,59.898z M96.215,42.015
			c-0.178,0.493-0.37,0.969-0.555,1.446c-0.248,0.618-0.453,1.153-0.531,1.622c-0.371,2.302-0.469,4.971-0.516,7.511
			c-0.036,1.966-1.657,3.53-3.628,3.505c-0.047-0.004-0.103-0.006-0.153-0.012c-1.896-0.11-3.394-1.71-3.346-3.621
			c0.056-2.808,0.162-5.79,0.602-8.568c0.221-1.216,0.605-2.206,0.956-3.072l0.38-1.027c0.609-1.866,2.6-2.902,4.501-2.285
			C95.803,38.128,96.826,40.144,96.215,42.015z M124.572,34.21c-7.916-1.658-18.151-3.367-26.916-3.499
			c0.699-5.396,2.355-9.751,5.072-12.825c5.455-6.204,13.121-5.567,13.066-5.588c2.03,0.161,3.59,1.171,4.92,3.178
			C123.592,19.772,124.496,27.22,124.572,34.21z M107.199,42.044c-0.039-1.966,1.531-3.594,3.504-3.623
			c2.109-0.043,3.584,1.537,3.62,3.508c0.05,3.269,0.024,5.975-0.311,8.568c-0.157,1.228-0.523,2.267-0.827,3.099l-0.354,1.045
			c-0.469,1.639-2.004,2.684-3.645,2.582c-0.248-0.018-0.512-0.065-0.769-0.134c-1.882-0.542-2.986-2.513-2.438-4.413
			c0.141-0.505,0.314-1.001,0.494-1.485c0.225-0.62,0.402-1.155,0.465-1.605C107.219,47.436,107.246,45.024,107.199,42.044z
			 M133.102,52.765c-0.17,1.041-0.558,1.859-1.174,3.164c-0.473,1.261-1.725,2.019-3,1.942c-0.29-0.018-0.586-0.079-0.877-0.193
			c-1.569-0.588-2.357-2.318-1.764-3.875c0.158-0.397,0.328-0.767,0.516-1.139c0.158-0.34,0.32-0.683,0.347-0.832
			c0.233-1.533,0.173-3.397,0.095-5.165c-0.063-1.663,1.221-3.069,2.881-3.14c1.775-0.125,3.077,1.22,3.138,2.877
			C133.355,48.473,133.41,50.662,133.102,52.765z"/>
	</g>
</g>
</svg>
