<?xml version="1.0" encoding="utf-8"?>
<!-- Generator: Adobe Illustrator 16.0.0, SVG Export Plug-In . SVG Version: 6.00 Build 0)  -->
<!DOCTYPE svg PUBLIC "-//W3C//DTD SVG 1.1//EN" "http://www.w3.org/Graphics/SVG/1.1/DTD/svg11.dtd">
<svg version="1.1" id="Capa_1" xmlns="http://www.w3.org/2000/svg" xmlns:xlink="http://www.w3.org/1999/xlink" x="0px" y="0px"
	 width="200px" height="200px" viewBox="0 0 200 200" enable-background="new 0 0 200 200" xml:space="preserve">
<g>
	<g>
		<path fill="#FFC19B" d="M164.375,126.637c1.193-22.077-1.907-33.618-4.697-39.41c-0.013-0.037-8.741-24.119-59.677-23.468
			c0,0-52.856,1.257-60.705,25.857l0,0c-2.455,6.382-4.717,17.639-3.67,37.021c-3.634,0.381-6.457,3.127-6.457,6.461
			c0,3.596,3.281,6.51,7.324,6.51c0.054,0,0.107-0.006,0.162-0.007c1.197,10.803,4.491,28.533,15.215,34.655
			c8.779,5.012,23.495,8.876,48.132,8.123c24.636,0.754,39.352-3.11,48.131-8.123c10.725-6.122,14.018-23.852,15.214-34.655
			c0.056,0.001,0.107,0.007,0.163,0.007c4.044,0,7.324-2.915,7.324-6.51C170.832,129.763,168.009,127.018,164.375,126.637z"/>
	</g>
	<g>
		<path fill="#FFFFFF" d="M36.675,91.963c0,0-8.828,18.129-1.05,34.673c0,0,4.306,5.291,6.259-15.776l1.736-21.718L36.675,91.963z"
			/>
	</g>
	<g>
		<ellipse fill="#472313" cx="59.877" cy="133.988" rx="5.318" ry="6.185"/>
	</g>
	<g>
		<ellipse fill="#472313" cx="141.913" cy="133.988" rx="5.318" ry="6.185"/>
	</g>
	<g>
		<path fill="#FFFFFF" d="M121.961,148.238c-7.057-4.053-16.257-3.741-19.222-3.514c-2.965-0.228-12.167-0.54-19.224,3.514
			c-5.359,3.075-11.641,33.281-2.073,42.103c4.214,3.887,10.879,6.649,21.297,6.568c10.417,0.081,17.082-2.682,21.298-6.568
			C133.602,181.519,127.32,151.312,121.961,148.238z"/>
	</g>
	<g>
		<path fill="#472313" d="M102.755,166.158c-3.646,0-6.574-1.049-8.72-3.128c-3.759-3.641-3.602-9.062-3.594-9.292
			c0.03-0.809,0.714-1.438,1.521-1.412c0.808,0.03,1.44,0.708,1.412,1.516c-0.002,0.063-0.095,4.386,2.719,7.095
			c1.792,1.725,4.44,2.479,7.867,2.243c0.055-0.002,0.11-0.003,0.165-0.002c0.027-0.005,3.468,0.094,5.771-2.216
			c1.576-1.582,2.314-3.975,2.193-7.113c-0.031-0.81,0.6-1.491,1.41-1.522c0.807-0.03,1.491,0.6,1.522,1.41
			c0.154,4.004-0.88,7.142-3.075,9.325c-3.016,3-7.16,3.059-7.854,3.052C103.637,166.143,103.191,166.158,102.755,166.158z"/>
	</g>
	<g>
		<path fill="#CC8C6B" d="M102.738,143.715c-0.434,0-0.823-0.303-0.917-0.745c-0.107-0.506,0.218-1.003,0.724-1.11
			c2.846-0.599,4.551-1.543,4.931-2.73c0.416-1.299-0.854-2.7-0.867-2.713c-0.026-0.029-0.053-0.061-0.076-0.093
			c-0.255-0.357-0.545-0.549-0.912-0.604c-0.871-0.132-1.963,0.535-2.311,0.8c-0.212,0.164-0.484,0.229-0.747,0.179
			c-0.262-0.05-0.492-0.209-0.63-0.438c-1.058-1.761-1.116-7.354-1.117-8.458c0-0.518,0.419-0.938,0.937-0.938h0.001
			c0.518,0,0.937,0.419,0.938,0.937c0.002,2.023,0.172,4.983,0.537,6.583c0.701-0.346,1.666-0.668,2.659-0.521
			c0.854,0.125,1.592,0.582,2.138,1.325c0.304,0.345,1.927,2.321,1.24,4.499c-0.6,1.9-2.731,3.249-6.335,4.007
			C102.867,143.709,102.802,143.715,102.738,143.715z"/>
	</g>
	<g>
		<path fill="#FFFFFF" d="M134.247,115.283c0,0-1.839,1.401-0.819,3.693c0.386,0.865,1.533,1.351,2.665,1.569
			c2.932,0.563,8.675,1.503,12.116,0.981c0.727-0.111,1.867-0.295,2.228-1.332c0.305-0.872,0.564-2.281-0.506-3.423
			c-0.221-0.237-0.763-0.62-2.439-0.982C144.023,115.039,135.778,113.794,134.247,115.283z"/>
	</g>
	<g>
		<path fill="#FFFFFF" d="M64.066,115.283c0,0,1.842,1.401,0.819,3.693c-0.384,0.865-1.531,1.351-2.663,1.569
			c-2.932,0.563-8.675,1.503-12.119,0.981c-0.727-0.111-1.866-0.295-2.228-1.332c-0.302-0.872-0.562-2.281,0.506-3.423
			c0.224-0.237,0.766-0.62,2.439-0.982C54.29,115.039,62.535,113.794,64.066,115.283z"/>
	</g>
	<g>
		<path fill="#FF7CCA" d="M52.329,154.429c-0.184,0-0.37-0.011-0.558-0.035c-0.258-0.001-0.517-0.017-0.777-0.049
			c-2.51-0.308-4.105-1.668-4.405-3.743c-0.931-1.747-0.964-3.893-0.001-5.596c0.594-1.052,1.314-1.878,2.133-2.457
			c0.979-0.857,2.131-1.426,3.298-1.596c1.107-0.165,2.089,0.275,2.924,1.027c0.456,0.28,0.791,0.62,1.034,0.938
			c0.072,0.095,0.14,0.193,0.204,0.294c0.241,0.18,0.48,0.375,0.716,0.582c1.27,1.122,1.902,2.388,1.88,3.763
			c-0.018,1.056-0.417,2.14-1.191,3.241c-0.257,0.576-0.623,1.121-1.09,1.609c-0.55,0.574-1.199,1.033-1.909,1.366
			C53.899,154.208,53.132,154.429,52.329,154.429z M49.001,151.505c1.065,0.781,2.388,0.916,3.741,0.359
			c0.311-0.128,0.596-0.304,0.854-0.517c-0.231,0.012-0.466,0.009-0.699-0.006c-1.406,0.318-2.843,0.006-3.995-0.879
			c-0.453-0.349-0.798-0.717-1.058-1.089c-0.015,0.133-0.024,0.266-0.027,0.397C48.102,150.399,48.512,150.994,49.001,151.505z
			 M55.709,150.76c-0.239,0.421-0.526,0.815-0.859,1.163c0.541-0.49,1.083-1.05,1.535-1.652
			C56.185,150.455,55.959,150.618,55.709,150.76z M50.801,148.518c0.024,0.017,0.049,0.033,0.074,0.049
			c0.976,0.631,1.862,0.289,2.302,0.027c0.821-0.486,1.376-1.402,1.319-2.178c-0.039-0.532-0.362-0.94-0.962-1.216
			c-0.79,1.173-1.692,2.271-2.694,3.279L50.801,148.518z M50.092,146.015c0.022,0.419,0.125,0.795,0.302,1.088
			c0.637-0.682,1.227-1.403,1.766-2.16C51.32,145,50.574,145.438,50.092,146.015z"/>
	</g>
	<g>
		<path fill="#FF7CCA" d="M147.228,155.035c-0.802,0-1.57-0.221-2.257-0.656c-0.71-0.333-1.36-0.792-1.909-1.366
			c-0.467-0.488-0.833-1.032-1.09-1.609c-0.774-1.102-1.173-2.185-1.191-3.241c-0.023-1.375,0.61-2.641,1.88-3.762
			c0.236-0.208,0.475-0.402,0.715-0.582c0.064-0.102,0.132-0.2,0.204-0.294c0.243-0.318,0.579-0.658,1.035-0.939
			c0.835-0.751,1.817-1.188,2.923-1.026c1.167,0.169,2.321,0.738,3.3,1.597c0.818,0.579,1.537,1.404,2.131,2.457
			c0.963,1.703,0.929,3.849-0.001,5.596c-0.3,2.075-1.895,3.434-4.405,3.743c-0.259,0.032-0.518,0.048-0.776,0.049
			C147.599,155.023,147.412,155.035,147.228,155.035z M145.973,151.963c0.255,0.208,0.536,0.381,0.842,0.507
			c1.354,0.557,2.677,0.42,3.741-0.359c0.489-0.511,0.899-1.105,1.185-1.734c-0.003-0.132-0.012-0.265-0.027-0.397
			c-0.26,0.372-0.606,0.74-1.059,1.088c-1.14,0.877-2.56,1.193-3.953,0.888C146.458,151.973,146.213,151.976,145.973,151.963z
			 M143.172,150.876c0.451,0.602,0.993,1.161,1.532,1.65c-0.332-0.348-0.617-0.74-0.856-1.161
			C143.598,151.224,143.372,151.06,143.172,150.876z M146.023,145.806c-0.599,0.276-0.923,0.685-0.961,1.216
			c-0.057,0.776,0.498,1.692,1.319,2.179c0.44,0.26,1.324,0.603,2.301-0.028c0.025-0.017,0.05-0.033,0.074-0.05l-0.039-0.039
			C147.716,148.079,146.814,146.981,146.023,145.806z M147.398,145.548c0.54,0.758,1.13,1.479,1.766,2.161
			c0.176-0.292,0.28-0.668,0.302-1.087C148.984,146.043,148.238,145.606,147.398,145.548z"/>
	</g>
	<g>
		<path fill="#D9DADB" d="M83.443,157.585c-0.404,0-0.731-0.328-0.731-0.732c0-0.82,0-1.669,0.948-3.311
			c0.202-0.349,0.65-0.469,0.999-0.267c0.35,0.202,0.47,0.649,0.268,0.999c-0.752,1.302-0.752,1.838-0.752,2.579
			C84.175,157.258,83.847,157.585,83.443,157.585z"/>
	</g>
	<g>
		<path fill="#D9DADB" d="M85.614,163.987c-0.385,0-0.707-0.3-0.729-0.688c-0.028-0.471,0.042-1.031,0.111-1.573
			c0.068-0.542,0.194-1.552,0.036-1.772c-0.233-0.326-0.167-0.785,0.155-1.022c0.322-0.238,0.77-0.178,1.011,0.14
			c0.518,0.684,0.381,1.778,0.249,2.836c-0.06,0.476-0.122,0.969-0.102,1.306c0.024,0.403-0.284,0.75-0.687,0.772
			C85.642,163.987,85.628,163.987,85.614,163.987z"/>
	</g>
	<g>
		<path fill="#D9DADB" d="M80.731,166.917c-0.397,0-0.723-0.318-0.731-0.717c-0.008-0.405-0.136-1.134-0.238-1.72l-0.078-0.453
			c-0.066-0.398,0.202-0.775,0.601-0.842c0.397-0.067,0.775,0.203,0.842,0.601l0.076,0.442c0.117,0.668,0.249,1.426,0.259,1.943
			c0.008,0.404-0.313,0.737-0.717,0.746C80.74,166.917,80.735,166.917,80.731,166.917z"/>
	</g>
	<g>
		<path fill="#D9DADB" d="M87.892,173.59c-0.332,0-0.632-0.227-0.711-0.563c-0.283-1.204-0.228-3.001,0.002-3.925
			c0.097-0.393,0.494-0.633,0.886-0.534c0.392,0.098,0.631,0.495,0.533,0.886c-0.184,0.741-0.223,2.283,0.002,3.238
			c0.093,0.394-0.151,0.787-0.544,0.879C88.004,173.584,87.948,173.59,87.892,173.59z"/>
	</g>
	<g>
		<path fill="#D9DADB" d="M93.101,173.59c-0.097,0-0.195-0.019-0.29-0.06c-0.371-0.16-0.542-0.59-0.382-0.961
			c0.231-0.534,0.082-1.541-0.175-2.217c-0.144-0.378,0.046-0.8,0.424-0.943c0.378-0.143,0.8,0.045,0.943,0.424
			c0.076,0.2,0.725,1.988,0.151,3.317C93.654,173.426,93.384,173.59,93.101,173.59z"/>
	</g>
	<g>
		<path fill="#D9DADB" d="M85.126,183.52c-0.267,0-0.524-0.147-0.653-0.401c-0.386-0.762-0.204-1.706-0.044-2.539
			c0.053-0.277,0.107-0.548,0.132-0.796c0.04-0.402,0.404-0.692,0.801-0.654c0.402,0.041,0.695,0.399,0.654,0.801
			c-0.029,0.288-0.089,0.604-0.151,0.926c-0.11,0.572-0.247,1.285-0.087,1.601c0.183,0.36,0.039,0.8-0.322,0.983
			C85.35,183.494,85.238,183.52,85.126,183.52z"/>
	</g>
	<g>
		<path fill="#D9DADB" d="M82.521,177.172c-0.342,0-0.647-0.241-0.717-0.588c-0.17-0.849-0.418-1.766-0.638-2.55
			c-0.11-0.389,0.117-0.792,0.506-0.902c0.388-0.109,0.792,0.118,0.902,0.507c0.228,0.812,0.485,1.762,0.664,2.659
			c0.079,0.396-0.177,0.781-0.573,0.86C82.616,177.167,82.568,177.172,82.521,177.172z"/>
	</g>
	<g>
		<path fill="#D9DADB" d="M91.312,164.476c-0.006,0-0.012,0-0.019,0c-0.404-0.009-0.723-0.345-0.713-0.749l0.003-0.117
			c0.016-0.598,0.029-1.114-0.129-1.587c-0.128-0.383,0.08-0.797,0.463-0.925c0.384-0.128,0.798,0.08,0.925,0.463
			c0.238,0.715,0.22,1.413,0.203,2.086l-0.003,0.115C92.032,164.16,91.707,164.476,91.312,164.476z"/>
	</g>
	<g>
		<path fill="#D9DADB" d="M90.009,151.128c-0.071,0-0.142-0.01-0.213-0.031c-0.386-0.117-0.604-0.526-0.487-0.912
			c0.069-0.226,0.125-0.453,0.18-0.677c0.126-0.51,0.257-1.036,0.517-1.554c0.181-0.361,0.62-0.505,0.981-0.326
			c0.361,0.181,0.507,0.62,0.326,0.981c-0.187,0.373-0.292,0.799-0.405,1.252c-0.062,0.248-0.125,0.499-0.2,0.749
			C90.613,150.925,90.323,151.128,90.009,151.128z"/>
	</g>
	<g>
		<path fill="#D9DADB" d="M87.079,151.617c-0.302,0-0.584-0.188-0.69-0.488c-0.351-0.993,0.054-2.232,0.55-3.061
			c0.207-0.346,0.656-0.459,1.003-0.252c0.346,0.208,0.459,0.657,0.252,1.003c-0.39,0.651-0.569,1.418-0.426,1.823
			c0.135,0.381-0.065,0.799-0.446,0.933C87.242,151.604,87.16,151.617,87.079,151.617z"/>
	</g>
	<g>
		<path fill="#D9DADB" d="M97.822,155.687c-0.301,0-0.583-0.187-0.689-0.486c-0.191-0.538-0.235-1.145-0.274-1.681
			c-0.033-0.457-0.067-0.93-0.186-1.181c-0.173-0.365-0.017-0.801,0.348-0.974c0.365-0.173,0.801-0.018,0.974,0.348
			c0.236,0.499,0.28,1.11,0.323,1.702c0.034,0.464,0.068,0.945,0.193,1.296c0.135,0.38-0.063,0.798-0.444,0.934
			C97.986,155.672,97.903,155.687,97.822,155.687z"/>
	</g>
	<g>
		<path fill="#D9DADB" d="M99.775,148.85c-0.404,0-0.731-0.328-0.731-0.731v-1.139c0-0.404,0.327-0.731,0.731-0.731
			c0.404,0,0.731,0.327,0.731,0.731v1.139C100.506,148.522,100.179,148.85,99.775,148.85z"/>
	</g>
	<g>
		<path fill="#D9DADB" d="M95.543,151.779c-0.005,0-0.01,0-0.014,0c-0.404-0.008-0.725-0.342-0.717-0.746
			c0.004-0.19,0.02-0.427,0.04-0.695c0.065-0.901,0.163-2.264-0.264-2.989c-0.205-0.348-0.09-0.796,0.259-1.001
			c0.348-0.204,0.796-0.088,1.001,0.259c0.659,1.118,0.541,2.753,0.463,3.836c-0.017,0.238-0.033,0.449-0.036,0.619
			C96.266,151.461,95.94,151.779,95.543,151.779z"/>
	</g>
	<g>
		<path fill="#D9DADB" d="M102.192,161.304c-0.328,0-0.617-0.219-0.705-0.537c-0.019-0.07-0.04-0.148-0.061-0.235
			c-0.072-0.127-0.103-0.272-0.094-0.414c-0.11-0.539-0.205-1.237-0.172-1.941c0.019-0.404,0.357-0.72,0.765-0.697
			c0.404,0.019,0.715,0.361,0.696,0.765c-0.023,0.495,0.038,1.097,0.17,1.701c0.124,0.233,0.167,0.492,0.122,0.753
			c-0.059,0.337-0.344,0.588-0.686,0.604C102.215,161.304,102.204,161.304,102.192,161.304z"/>
	</g>
	<g>
		<path fill="#D9DADB" d="M102.053,154.709c-0.33,0-0.629-0.225-0.71-0.56c-0.153-0.633-0.148-1.287-0.143-1.919
			c0.003-0.399,0.006-0.775-0.034-1.091c-0.051-0.4,0.233-0.766,0.634-0.817c0.4-0.047,0.766,0.233,0.817,0.634
			c0.052,0.413,0.049,0.856,0.046,1.286c-0.004,0.544-0.008,1.106,0.102,1.564c0.095,0.394-0.147,0.788-0.54,0.883
			C102.167,154.703,102.11,154.709,102.053,154.709z"/>
	</g>
	<g>
		<path fill="#D9DADB" d="M100.263,173.428c-0.306,0-0.592-0.194-0.694-0.5c-0.24-0.72-0.208-1.441-0.18-2.078
			c0.018-0.406,0.035-0.79-0.014-1.147c-0.055-0.4,0.226-0.77,0.626-0.823c0.401-0.055,0.768,0.226,0.823,0.625
			c0.066,0.487,0.046,0.957,0.026,1.409c-0.025,0.559-0.048,1.087,0.106,1.552c0.127,0.383-0.08,0.797-0.463,0.925
			C100.417,173.417,100.34,173.428,100.263,173.428z"/>
	</g>
	<g>
		<path fill="#D9DADB" d="M96.683,168.707c-0.013,0-0.026,0-0.04-0.001c-0.404-0.021-0.713-0.366-0.691-0.77
			c0.026-0.49,0.082-0.938,0.176-1.407c0.079-0.396,0.466-0.655,0.86-0.574c0.396,0.08,0.653,0.465,0.574,0.861
			c-0.08,0.399-0.127,0.78-0.15,1.198C97.392,168.404,97.069,168.707,96.683,168.707z"/>
	</g>
	<g>
		<path fill="#D9DADB" d="M101.728,187.425c-0.393,0-0.718-0.312-0.731-0.708c-0.011-0.355-0.141-0.742-0.279-1.152
			c-0.149-0.442-0.303-0.9-0.338-1.399c-0.042-0.597,0.056-1.19,0.15-1.764c0.081-0.49,0.156-0.953,0.142-1.38
			c-0.013-0.403,0.303-0.742,0.707-0.755c0.396-0.038,0.742,0.303,0.755,0.707c0.019,0.57-0.073,1.127-0.161,1.665
			c-0.084,0.513-0.164,0.998-0.134,1.424c0.022,0.312,0.141,0.664,0.266,1.036c0.158,0.469,0.337,1,0.354,1.572
			c0.013,0.404-0.304,0.741-0.708,0.754C101.743,187.425,101.735,187.425,101.728,187.425z"/>
	</g>
	<g>
		<path fill="#D9DADB" d="M97.659,181.403c-0.001,0-0.003,0-0.004,0c-0.404-0.001-0.729-0.331-0.728-0.734
			c0.002-0.336,0.027-0.694,0.052-1.058c0.048-0.669,0.097-1.362-0.029-1.849c-0.102-0.391,0.134-0.791,0.525-0.892
			c0.39-0.101,0.79,0.134,0.891,0.525c0.186,0.718,0.128,1.532,0.072,2.319c-0.023,0.33-0.047,0.656-0.049,0.961
			C98.388,181.078,98.061,181.403,97.659,181.403z"/>
	</g>
	<g>
		<path fill="#D9DADB" d="M92.614,183.52c-0.264,0-0.518-0.143-0.648-0.393c-0.337-0.644-0.41-1.438-0.482-2.206
			c-0.045-0.487-0.092-0.99-0.206-1.295c-0.142-0.378,0.05-0.8,0.428-0.941c0.377-0.144,0.8,0.048,0.942,0.428
			c0.183,0.488,0.236,1.064,0.293,1.673c0.058,0.627,0.118,1.275,0.321,1.664c0.187,0.358,0.049,0.8-0.309,0.987
			C92.844,183.493,92.728,183.52,92.614,183.52z"/>
	</g>
	<g>
		<path fill="#D9DADB" d="M82.196,188.077c-0.305,0-0.59-0.192-0.693-0.497c-0.168-0.499-0.273-0.99-0.374-1.464
			c-0.083-0.387-0.164-0.774-0.283-1.159c-0.12-0.386,0.096-0.795,0.482-0.915c0.386-0.121,0.795,0.096,0.915,0.482
			c0.132,0.427,0.225,0.856,0.316,1.287c0.097,0.453,0.188,0.882,0.329,1.3c0.129,0.383-0.076,0.798-0.459,0.927
			C82.353,188.065,82.273,188.077,82.196,188.077z"/>
	</g>
	<g>
		<path fill="#D9DADB" d="M92.287,193.611c-0.131,0-0.263-0.035-0.382-0.108c-1.303-0.802-1.285-3.024-1.158-4.278
			c0.041-0.401,0.399-0.691,0.801-0.654c0.402,0.041,0.695,0.399,0.654,0.801c-0.141,1.393,0.061,2.634,0.469,2.884
			c0.344,0.212,0.451,0.662,0.24,1.006C92.772,193.487,92.532,193.611,92.287,193.611z"/>
	</g>
	<g>
		<path fill="#D9DADB" d="M97.822,193.773c-0.403,0-0.731-0.327-0.732-0.73c0-0.154,0.003-0.317,0.006-0.484
			c0.009-0.513,0.022-1.215-0.105-1.498c-0.165-0.369,0.001-0.801,0.369-0.966c0.37-0.165,0.802,0,0.966,0.369
			c0.259,0.581,0.245,1.364,0.231,2.121l-0.005,0.455C98.554,193.445,98.221,193.788,97.822,193.773z"/>
	</g>
	<g>
		<path fill="#D9DADB" d="M102.51,195.808c-0.334,0-0.635-0.23-0.712-0.569c-0.152-0.669-0.115-1.333-0.08-1.976
			c0.043-0.797,0.085-1.551-0.213-2.312c-0.147-0.376,0.038-0.8,0.414-0.948c0.377-0.147,0.801,0.039,0.948,0.415
			c0.415,1.058,0.36,2.05,0.312,2.926c-0.031,0.567-0.06,1.102,0.046,1.572c0.089,0.394-0.157,0.786-0.552,0.875
			C102.617,195.802,102.563,195.808,102.51,195.808z"/>
	</g>
	<g>
		<path fill="#D9DADB" d="M97.334,187.263c-0.018,0-0.035,0-0.053-0.002c-0.403-0.029-0.706-0.379-0.676-0.782
			c0.023-0.326,0.024-0.781,0.001-1.016c-0.039-0.402,0.255-0.76,0.657-0.799c0.404-0.035,0.76,0.255,0.799,0.657
			c0.031,0.318,0.031,0.849,0.001,1.264C98.035,186.969,97.714,187.263,97.334,187.263z"/>
	</g>
	<g>
		<path fill="#D9DADB" d="M88.055,190.356c-0.107,0-0.217-0.023-0.319-0.073c-0.363-0.177-0.514-0.615-0.338-0.978
			c0.213-0.437,0.044-1.328-0.092-2.043c-0.052-0.277-0.103-0.546-0.137-0.793c-0.055-0.4,0.225-0.768,0.625-0.824
			c0.404-0.053,0.769,0.226,0.824,0.625c0.031,0.224,0.077,0.467,0.125,0.718c0.186,0.976,0.396,2.083-0.029,2.956
			C88.586,190.205,88.326,190.356,88.055,190.356z"/>
	</g>
	<g>
		<path fill="#D9DADB" d="M104.822,149.664c-0.259,0-0.51-0.138-0.643-0.381c-0.263-0.482-0.33-1.06-0.395-1.619
			c-0.03-0.255-0.058-0.51-0.11-0.738c-0.09-0.394,0.156-0.786,0.55-0.876c0.392-0.091,0.786,0.156,0.876,0.55
			c0.063,0.276,0.101,0.584,0.137,0.894c0.049,0.421,0.1,0.856,0.226,1.088c0.193,0.355,0.063,0.799-0.292,0.993
			C105.06,149.635,104.94,149.664,104.822,149.664z"/>
	</g>
	<g>
		<path fill="#D9DADB" d="M106.036,155.927c-0.277,0-0.53-0.156-0.654-0.405c-0.25-0.502-0.233-1.051-0.218-1.535
			c0.009-0.298,0.019-0.606-0.046-0.771c-0.149-0.375,0.035-0.8,0.41-0.949c0.375-0.149,0.801,0.035,0.949,0.41
			c0.153,0.385,0.163,0.797,0.154,1.176c0.227,0.148,0.363,0.419,0.325,0.707c-0.041,0.313-0.123,0.621-0.243,0.914
			c-0.109,0.265-0.364,0.441-0.65,0.452C106.053,155.927,106.045,155.927,106.036,155.927z"/>
	</g>
	<g>
		<path fill="#D9DADB" d="M110.354,150.857c-0.308,0-0.594-0.196-0.695-0.505c-0.076-0.234-0.14-0.499-0.206-0.773
			c-0.118-0.495-0.24-1.006-0.455-1.308c-0.234-0.33-0.156-0.786,0.173-1.02c0.329-0.234,0.785-0.157,1.02,0.173
			c0.379,0.534,0.541,1.215,0.685,1.816c0.056,0.234,0.108,0.46,0.174,0.66c0.125,0.383-0.085,0.796-0.469,0.922
			C110.506,150.845,110.429,150.857,110.354,150.857z"/>
	</g>
	<g>
		<path fill="#D9DADB" d="M115.89,153.028c-0.023,0-0.046-0.001-0.069-0.003c-0.402-0.038-0.698-0.394-0.66-0.796
			c0.076-0.809-0.293-2.029-0.514-2.758c-0.117-0.386,0.101-0.794,0.488-0.912c0.386-0.117,0.795,0.102,0.912,0.488
			c0.252,0.832,0.673,2.224,0.571,3.318C116.582,152.744,116.263,153.028,115.89,153.028z"/>
	</g>
	<g>
		<path fill="#D9DADB" d="M121.965,159.973c-0.336,0-0.638-0.232-0.713-0.574c-0.151-0.684-0.248-1.394-0.342-2.08
			c-0.205-1.495-0.398-2.906-1.097-4.114c-0.202-0.35-0.083-0.797,0.267-0.999c0.35-0.201,0.797-0.083,0.999,0.266
			c0.843,1.457,1.065,3.079,1.28,4.648c0.094,0.688,0.183,1.337,0.321,1.963c0.087,0.395-0.162,0.785-0.557,0.872
			C122.071,159.967,122.018,159.973,121.965,159.973z"/>
	</g>
	<g>
		<path fill="#D9DADB" d="M118.385,166.266c-0.009,0-0.019,0-0.028,0c-0.404-0.015-0.718-0.354-0.703-0.758
			c0.007-0.18,0.027-0.36,0.049-0.54c0.038-0.322,0.071-0.6-0.006-0.814c-0.137-0.38,0.061-0.799,0.44-0.936
			c0.379-0.138,0.799,0.06,0.936,0.44c0.194,0.54,0.132,1.062,0.082,1.482c-0.017,0.141-0.034,0.281-0.04,0.421
			C119.101,165.957,118.776,166.266,118.385,166.266z"/>
	</g>
	<g>
		<path fill="#D9DADB" d="M112.634,167.568c-0.039,0-0.079-0.003-0.119-0.009c-0.398-0.065-0.669-0.441-0.603-0.84
			c0.022-0.132,0.048-0.268,0.075-0.405c0.091-0.468,0.185-0.953,0.065-1.297c-0.133-0.381,0.068-0.798,0.45-0.932
			c0.382-0.132,0.799,0.069,0.931,0.45c0.25,0.718,0.105,1.46-0.01,2.058c-0.024,0.124-0.048,0.245-0.067,0.364
			C113.296,167.314,112.986,167.568,112.634,167.568z"/>
	</g>
	<g>
		<path fill="#D9DADB" d="M107.316,171.691c-0.12,0-0.241-0.03-0.354-0.092c-0.354-0.196-0.481-0.641-0.286-0.994
			c0.306-0.551,0.49-1.911,0.451-2.758c-0.019-0.403,0.293-0.746,0.697-0.764c0.398-0.024,0.745,0.293,0.764,0.697
			c0.042,0.917-0.126,2.619-0.633,3.534C107.823,171.555,107.573,171.691,107.316,171.691z"/>
	</g>
	<g>
		<path fill="#D9DADB" d="M104.494,171.691c-0.331,0-0.63-0.226-0.71-0.562c-0.116-0.487-0.104-0.971-0.092-1.439
			c0.011-0.451,0.022-0.877-0.095-1.176c-0.147-0.376,0.038-0.8,0.414-0.947c0.377-0.148,0.801,0.039,0.948,0.415
			c0.225,0.574,0.209,1.197,0.196,1.747c-0.01,0.391-0.019,0.761,0.052,1.062c0.094,0.393-0.149,0.788-0.542,0.881
			C104.608,171.684,104.551,171.691,104.494,171.691z"/>
	</g>
	<g>
		<path fill="#D9DADB" d="M105.038,180.699c-0.404,0-0.731-0.328-0.731-0.732c0-0.22,0.013-0.46,0.026-0.709
			c0.034-0.641,0.073-1.367-0.146-1.748c-0.201-0.35-0.08-0.797,0.271-0.998c0.349-0.201,0.797-0.081,0.998,0.271
			c0.433,0.755,0.383,1.71,0.338,2.553c-0.012,0.223-0.024,0.437-0.024,0.632C105.769,180.371,105.442,180.699,105.038,180.699z"/>
	</g>
	<g>
		<path fill="#D9DADB" d="M112.634,184.17c-0.04,0-0.08-0.003-0.121-0.01c-0.398-0.066-0.668-0.443-0.601-0.842
			c0.134-0.807,0.445-2.865,0.424-4.536c-0.005-0.404,0.318-0.735,0.722-0.741c0.41-0.034,0.736,0.318,0.74,0.722
			c0.022,1.789-0.303,3.949-0.444,4.795C113.295,183.917,112.985,184.17,112.634,184.17z"/>
	</g>
	<g>
		<path fill="#D9DADB" d="M109.161,182.108c-0.219,0-0.434-0.097-0.579-0.283c-0.444-0.574-0.373-1.192-0.321-1.645
			c0.028-0.246,0.053-0.46-0.002-0.608c-0.141-0.379,0.052-0.8,0.43-0.94c0.378-0.142,0.8,0.051,0.94,0.43
			c0.177,0.477,0.126,0.925,0.085,1.286c-0.039,0.333-0.048,0.489,0.024,0.582c0.247,0.319,0.189,0.778-0.13,1.026
			C109.475,182.058,109.318,182.108,109.161,182.108z"/>
	</g>
	<g>
		<path fill="#D9DADB" d="M106.124,189.054c-0.026,0-0.052-0.001-0.078-0.004c-0.401-0.043-0.693-0.403-0.65-0.804
			c0.057-0.542,0.164-1.549-0.167-1.959c-0.254-0.313-0.205-0.774,0.109-1.028c0.314-0.254,0.774-0.205,1.029,0.109
			c0.712,0.881,0.569,2.228,0.484,3.032C106.81,188.775,106.493,189.054,106.124,189.054z"/>
	</g>
	<g>
		<path fill="#D9DADB" d="M109.052,195.835c-0.336,0-0.639-0.233-0.714-0.575c-0.156-0.711-0.238-1.479-0.235-2.222
			c0.001-0.403,0.328-0.728,0.731-0.728c0.001,0,0.002,0,0.003,0c0.404,0.001,0.73,0.33,0.729,0.734
			c-0.002,0.636,0.067,1.294,0.2,1.902c0.087,0.395-0.163,0.784-0.557,0.871C109.157,195.83,109.104,195.835,109.052,195.835z"/>
	</g>
	<g>
		<path fill="#D9DADB" d="M110.462,190.682c-0.34,0-0.645-0.239-0.716-0.584c-0.164-0.799-0.294-1.608-0.424-2.416l-0.123-0.759
			c-0.066-0.398,0.204-0.775,0.602-0.841c0.399-0.07,0.775,0.204,0.841,0.602l0.124,0.766c0.126,0.786,0.253,1.574,0.413,2.353
			c0.081,0.396-0.174,0.782-0.57,0.863C110.561,190.676,110.511,190.682,110.462,190.682z"/>
	</g>
	<g>
		<path fill="#D9DADB" d="M116.617,190.505c-0.275,0-0.561-0.16-0.703-0.394c-0.127-0.21-0.135-0.459-0.045-0.67
			c-0.007-0.069-0.015-0.146-0.022-0.223c-0.023-0.238-0.044-0.476-0.041-0.61c0.006-0.279,0.039-0.572,0.073-0.867
			c0.063-0.545,0.123-1.061-0.021-1.433c-0.146-0.376,0.04-0.8,0.417-0.947c0.377-0.146,0.8,0.041,0.947,0.417
			c0.276,0.709,0.188,1.465,0.111,2.131c-0.029,0.25-0.059,0.497-0.064,0.732c-0.002,0.095,0.017,0.264,0.034,0.434
			c0.061,0.616,0.118,1.198-0.483,1.397C116.754,190.495,116.686,190.505,116.617,190.505z"/>
	</g>
	<g>
		<path fill="#D9DADB" d="M111.439,175.165c-0.391,0-0.715-0.309-0.73-0.703c-0.014-0.345,0.008-0.681,0.031-1.012
			c0.044-0.633,0.079-1.132-0.168-1.613c-0.184-0.36-0.042-0.801,0.318-0.984c0.36-0.185,0.801-0.042,0.984,0.317
			c0.432,0.843,0.375,1.661,0.325,2.381c-0.019,0.279-0.04,0.562-0.029,0.853c0.016,0.404-0.298,0.744-0.702,0.76
			C111.458,175.164,111.448,175.165,111.439,175.165z"/>
	</g>
	<g>
		<path fill="#D9DADB" d="M118.386,177.986c-0.046,0-0.093-0.004-0.139-0.014c-0.397-0.076-0.656-0.46-0.58-0.856l0.098-0.496
			c0.306-1.529,0.725-3.624,0.077-4.893c-0.184-0.359-0.041-0.8,0.319-0.983c0.36-0.186,0.8-0.042,0.984,0.319
			c0.878,1.722,0.402,4.104,0.054,5.844l-0.096,0.486C119.036,177.743,118.729,177.986,118.386,177.986z"/>
	</g>
	<g>
		<path fill="#D9DADB" d="M124.352,174.947c-0.366,0-0.682-0.274-0.726-0.646l-0.032-0.274c-0.143-1.244-0.36-3.125-1.07-3.861
			c-0.28-0.292-0.272-0.754,0.019-1.035c0.29-0.28,0.753-0.272,1.034,0.019c1.054,1.094,1.295,3.184,1.47,4.71l0.031,0.27
			c0.047,0.402-0.24,0.765-0.641,0.812C124.409,174.945,124.38,174.947,124.352,174.947z"/>
	</g>
	<g>
		<path fill="#D9DADB" d="M118.384,160.189c-0.355,0-0.667-0.26-0.722-0.622c-0.016-0.104-0.009-0.205,0.017-0.301
			c-0.027-0.075-0.073-0.186-0.149-0.32c-0.198-0.353-0.072-0.798,0.28-0.996c0.353-0.197,0.798-0.073,0.996,0.28
			c0.361,0.643,0.454,1.153,0.277,1.515c-0.105,0.216-0.35,0.398-0.587,0.435C118.458,160.187,118.421,160.189,118.384,160.189z"/>
	</g>
	<g>
		<path fill="#D9DADB" d="M125.438,168.762c-0.288,0-0.561-0.171-0.677-0.454c-0.468-1.141-0.519-2.249-0.569-3.321
			c-0.026-0.559-0.05-1.086-0.129-1.625c-0.059-0.399,0.218-0.771,0.617-0.83c0.398-0.056,0.771,0.217,0.83,0.617
			c0.09,0.611,0.117,1.2,0.144,1.77c0.046,0.991,0.089,1.927,0.461,2.833c0.154,0.374-0.025,0.801-0.399,0.955
			C125.624,168.745,125.53,168.762,125.438,168.762z"/>
	</g>
	<g>
		<path fill="#D9DADB" d="M121.749,179.071c-0.009,0-0.017,0-0.026,0c-0.404-0.014-0.72-0.353-0.706-0.756
			c0.015-0.431-0.034-1.469-0.181-1.918c-0.125-0.384,0.084-0.797,0.468-0.922c0.385-0.127,0.797,0.084,0.923,0.468
			c0.252,0.772,0.264,2.107,0.253,2.423C122.466,178.76,122.141,179.071,121.749,179.071z"/>
	</g>
	<g>
		<path fill="#D9DADB" d="M118.167,183.194c-0.371,0-0.689-0.282-0.727-0.659c-0.075-0.752-0.278-1.354-0.542-1.611
			c-0.29-0.281-0.296-0.745-0.014-1.034c0.281-0.289,0.745-0.296,1.034-0.015c0.664,0.646,0.898,1.723,0.977,2.514
			c0.04,0.401-0.253,0.76-0.655,0.801C118.216,183.192,118.191,183.194,118.167,183.194z"/>
	</g>
	<g>
		<path fill="#D9DADB" d="M122.074,190.03c-0.084,0-0.169-0.015-0.253-0.045c-0.379-0.14-0.573-0.56-0.433-0.939
			c0.073-0.197,0.158-0.412,0.249-0.639c0.339-0.852,0.762-1.911,0.687-2.611c-0.043-0.401,0.247-0.762,0.649-0.806
			c0.396-0.042,0.762,0.247,0.805,0.649c0.114,1.061-0.383,2.308-0.782,3.309c-0.085,0.214-0.167,0.417-0.235,0.603
			C122.651,189.847,122.372,190.03,122.074,190.03z"/>
	</g>
	<g>
		<path fill="#D9DADB" d="M124.57,182.001c-0.329,0-0.628-0.223-0.71-0.558c-0.041-0.164-0.09-0.335-0.14-0.51
			c-0.066-0.228-0.133-0.46-0.187-0.693c-0.092-0.393,0.152-0.787,0.546-0.878c0.394-0.089,0.786,0.152,0.878,0.545
			c0.049,0.208,0.109,0.416,0.168,0.62c0.056,0.193,0.11,0.384,0.156,0.567c0.096,0.392-0.143,0.788-0.535,0.884
			C124.686,181.994,124.628,182.001,124.57,182.001z"/>
	</g>
	<g>
		<path fill="#D9DADB" d="M107.181,160.407c-0.3,0-0.582-0.187-0.689-0.485c-0.174-0.488-0.153-0.991-0.134-1.434
			c0.005-0.122,0.01-0.242,0.01-0.359c0-0.404,0.327-0.731,0.731-0.731s0.731,0.328,0.731,0.731c0,0.137-0.006,0.278-0.012,0.421
			c-0.014,0.325-0.028,0.66,0.05,0.879c0.136,0.38-0.062,0.798-0.442,0.935C107.346,160.393,107.262,160.407,107.181,160.407z"/>
	</g>
	<g>
		<path fill="#D9DADB" d="M109.867,156.093c-0.282,0-0.551-0.165-0.671-0.439c-0.202-0.465-0.246-0.934-0.285-1.349l-0.016-0.171
			c-0.041-0.402,0.252-0.76,0.654-0.801c0.398-0.037,0.76,0.252,0.801,0.654l0.017,0.182c0.032,0.35,0.061,0.651,0.17,0.901
			c0.161,0.371-0.008,0.801-0.379,0.962C110.063,156.073,109.965,156.093,109.867,156.093z"/>
	</g>
	<g>
		<path fill="#EDAD89" d="M43.052,96.263c0,0,32.471,13.768,109.189,7.42c0,0,7.332,25.245,12.782,23.475l-3.887-34.387
			c0,0-7.504-1.134-7.98-1.354c-0.474-0.22-68.23,0.424-68.748-0.448c-0.518-0.871-41.901-0.301-41.901-0.301L43.052,96.263z"/>
	</g>
	<g>
		<path fill="#FFFFFF" d="M164.649,91.493c0,0,8.828,18.128,1.051,34.673c0,0-4.306,5.291-6.259-15.776l-1.736-21.718
			L164.649,91.493z"/>
	</g>
	<g>
		<g>
			<path fill="#FFFFFF" d="M156.305,71.78c0,0-26.158-2.356-55.413-2.955v-0.03c-0.244,0.004-0.488,0.01-0.733,0.015
				c-0.244-0.005-0.489-0.011-0.732-0.015v0.03c-29.255,0.599-55.413,2.955-55.413,2.955c-13.51,2.816-13.271,12.74-12.084,18.058
				c0.459,2.059,3.837,4.81,6.074,5.364c12.345,3.058,40.392,5.434,61.995,5.225c21.602,0.208,49.971-2.167,62.316-5.225
				c2.237-0.554,5.616-3.305,6.074-5.364C169.576,84.521,169.815,74.597,156.305,71.78z"/>
		</g>
		<g>
			<path fill="#EE1A13" d="M102.493,12.532c0,0-58.871,44.067-60.101,63.806c0,0,8.79,4.883,24.741,6.022
				c31.416,2.244,81.745,6.235,90.475-7.167c0,0-12.386-46.384-53.709-62.661"/>
		</g>
		<g>
			<path fill="#FFFFFF" d="M103.127,15.954c-1.137,0-2.28-0.333-3.259-0.963c-2.044-0.472-3.267-2.174-3.365-4.702
				c-0.01-0.259-0.005-0.517,0.016-0.773c-0.043-1.014,0.249-1.963,0.856-2.763c0.39-0.679,0.902-1.286,1.518-1.785
				c0.524-0.424,1.096-0.743,1.691-0.951c1.163-0.681,2.279-0.987,3.331-0.919c1.373,0.091,2.582,0.827,3.594,2.187
				c0.188,0.252,0.361,0.506,0.521,0.76c0.096,0.072,0.188,0.148,0.277,0.229c0.296,0.267,0.606,0.629,0.847,1.104
				c0.681,0.896,1.035,1.912,0.782,3.003c-0.267,1.15-0.93,2.251-1.866,3.156c-0.645,0.766-1.528,1.415-2.625,1.918
				C104.712,15.792,103.921,15.954,103.127,15.954z M100.799,13.837c0.131,0.009,0.264,0.01,0.397,0.006
				c-0.349-0.291-0.687-0.665-0.997-1.145c-0.779-1.21-0.974-2.652-0.556-4.015c0.003-0.245,0.021-0.488,0.054-0.728
				c-0.229,0.237-0.425,0.503-0.576,0.798c-0.668,1.303-0.643,2.632,0.047,3.758C99.636,13.042,100.196,13.5,100.799,13.837z
				 M103.67,11.491c0.277,0.2,0.643,0.333,1.058,0.391c0.617-0.432,1.114-1.139,1.241-1.971
				C105.169,10.386,104.401,10.914,103.67,11.491z M104.45,7.44c-0.719,0-1.54,0.455-2.035,1.152
				c-0.296,0.417-0.712,1.27-0.163,2.297c0.014,0.025,0.028,0.051,0.042,0.076l0.041-0.035c1.085-0.914,2.255-1.722,3.492-2.412
				c-0.225-0.621-0.605-0.977-1.133-1.06C104.615,7.446,104.533,7.44,104.45,7.44z M101.013,5.254
				c-0.637,0.4-1.24,0.894-1.773,1.391c0.374-0.302,0.79-0.554,1.229-0.757C100.631,5.651,100.813,5.439,101.013,5.254z"/>
		</g>
	</g>
</g>
</svg>
