<?xml version="1.0" encoding="utf-8"?>
<!-- Generator: Adobe Illustrator 16.0.0, SVG Export Plug-In . SVG Version: 6.00 Build 0)  -->
<!DOCTYPE svg PUBLIC "-//W3C//DTD SVG 1.1//EN" "http://www.w3.org/Graphics/SVG/1.1/DTD/svg11.dtd">
<svg version="1.1" id="Capa_1" xmlns="http://www.w3.org/2000/svg" xmlns:xlink="http://www.w3.org/1999/xlink" x="0px" y="0px"
	 width="200px" height="200px" viewBox="0 0 200 200" enable-background="new 0 0 200 200" xml:space="preserve">
<g>
	<g>
		<path fill="#F6AF61" d="M180.57,149.011c5.038-21.706,4.812-46.338,4.812-46.338s0.018-0.006,0.035-0.013
			c0.092-21.849-3.371-34.082-6.538-40.666c-0.017-0.048-11.558-31.876-78.872-31.016c0,0-69.858,1.66-80.23,34.174
			c-3.243,8.435-6.232,23.311-4.848,48.929c-0.014,0.001-0.023,0.004-0.036,0.005c0.46,9.086,1.604,22.266,4.423,34.568
			c2.855,11.452,7.902,23.122,17.079,28.362c11.603,6.623,31.05,11.73,63.612,10.734c32.557,0.996,52.008-4.111,63.608-10.734
			c9.077-5.185,14.116-16.658,16.991-27.994L180.57,149.011z"/>
	</g>
	<g>
		<path fill="#FF7CCA" d="M37.289,144.609c-0.245,0-0.493-0.016-0.742-0.047c-0.34-0.001-0.681-0.022-1.021-0.064
			c-3.32-0.407-5.428-2.206-5.823-4.951c-1.228-2.307-1.271-5.142,0.001-7.391c0.783-1.386,1.73-2.476,2.807-3.24
			c1.295-1.138,2.823-1.892,4.37-2.116c1.464-0.213,2.768,0.365,3.873,1.362c0.596,0.369,1.037,0.815,1.355,1.233
			c0.096,0.125,0.187,0.256,0.271,0.391c0.317,0.237,0.632,0.494,0.944,0.769c1.68,1.482,2.516,3.155,2.486,4.974
			c-0.023,1.396-0.551,2.828-1.575,4.284c-0.339,0.76-0.821,1.477-1.437,2.12c-0.725,0.758-1.583,1.366-2.521,1.807
			C39.368,144.315,38.352,144.609,37.289,144.609z M32.886,140.74c1.408,1.033,3.157,1.215,4.951,0.478
			c0.404-0.166,0.775-0.395,1.112-0.669c-0.319,0.018-0.641,0.014-0.964-0.01c-1.841,0.4-3.717-0.016-5.222-1.174
			c-0.601-0.461-1.058-0.948-1.402-1.441c-0.02,0.176-0.032,0.352-0.037,0.526C31.7,139.28,32.241,140.065,32.886,140.74z
			 M41.757,139.76c-0.315,0.555-0.691,1.073-1.129,1.531c0.712-0.646,1.426-1.384,2.022-2.177
			C42.384,139.357,42.086,139.573,41.757,139.76z M35.27,136.795c0.032,0.022,0.064,0.044,0.098,0.065
			c1.291,0.835,2.459,0.38,3.041,0.036c1.085-0.643,1.818-1.854,1.744-2.879c-0.052-0.703-0.479-1.243-1.271-1.606
			c-1.046,1.554-2.238,3.005-3.561,4.333L35.27,136.795z M34.332,133.49c0.03,0.554,0.167,1.05,0.399,1.436
			c0.84-0.898,1.62-1.853,2.334-2.854C35.956,132.147,34.969,132.725,34.332,133.49z M36.386,129.298
			c-0.079,0.04-0.156,0.085-0.23,0.134c0.176-0.055,0.356-0.1,0.541-0.135C36.592,129.294,36.489,129.294,36.386,129.298z"/>
	</g>
	<g>
		<path fill="#FF7CCA" d="M162.709,145.409c-1.059,0-2.07-0.291-2.978-0.863c-0.94-0.439-1.801-1.049-2.528-1.809
			c-0.616-0.643-1.099-1.361-1.439-2.122c-1.025-1.456-1.554-2.89-1.577-4.287c-0.03-1.818,0.806-3.491,2.487-4.973
			c0.311-0.274,0.625-0.53,0.941-0.768c0.085-0.135,0.176-0.267,0.273-0.393c0.321-0.421,0.767-0.871,1.371-1.242
			c1.103-0.991,2.403-1.565,3.859-1.354c1.542,0.225,3.067,0.977,4.36,2.111c1.081,0.765,2.032,1.856,2.817,3.246
			c1.271,2.251,1.227,5.087-0.003,7.394c-0.396,2.743-2.503,4.541-5.822,4.948c-0.345,0.043-0.691,0.064-1.036,0.064
			C163.193,145.393,162.95,145.409,162.709,145.409z M161.051,141.349c0.336,0.275,0.708,0.503,1.112,0.67
			c1.79,0.736,3.536,0.557,4.943-0.474c0.647-0.675,1.19-1.462,1.568-2.294c-0.004-0.174-0.016-0.349-0.036-0.524
			c-0.344,0.491-0.8,0.979-1.399,1.438c-1.506,1.158-3.383,1.574-5.221,1.174C161.694,141.364,161.371,141.368,161.051,141.349z
			 M157.35,139.917c0.595,0.792,1.309,1.529,2.02,2.174c-0.437-0.458-0.813-0.976-1.127-1.529
			C157.914,140.375,157.616,140.159,157.35,139.917z M161.118,133.211c-0.792,0.364-1.219,0.905-1.271,1.608
			c-0.075,1.026,0.659,2.238,1.745,2.881c0.582,0.344,1.748,0.798,3.04-0.038c0.033-0.021,0.065-0.043,0.097-0.065l-0.052-0.052
			C163.354,136.213,162.162,134.762,161.118,133.211z M162.935,132.872c0.712,1,1.492,1.954,2.333,2.855
			c0.233-0.387,0.369-0.884,0.399-1.438C165.031,133.525,164.044,132.948,162.935,132.872z M163.302,130.097
			c0.184,0.035,0.363,0.08,0.539,0.135c-0.074-0.049-0.151-0.093-0.23-0.133C163.507,130.095,163.404,130.094,163.302,130.097z"/>
	</g>
	<g>
		<path fill="#472313" d="M100.791,163.035c-2.12,0-3.618-0.334-3.759-0.367c-10.355-2.303-10.964-14.743-9.838-20.999
			c0.19-1.054,1.201-1.749,2.252-1.564c1.053,0.189,1.753,1.196,1.565,2.25l0,0c-0.025,0.145-2.455,14.456,6.879,16.531
			c0.075,0.019,6.382,1.385,10.639-2.275c3.239-2.785,4.623-7.826,4.112-14.981c-0.076-1.068,0.728-1.996,1.796-2.072
			c1.077-0.079,1.996,0.728,2.072,1.796c0.604,8.468-1.24,14.6-5.482,18.225C107.706,162.416,103.674,163.035,100.791,163.035z"/>
	</g>
	<g>
		<g>
			<path fill="#F6AF61" d="M105.914,23.065c0,0,5.643,1.293-6.654,19.556l-4.595-2.128C94.665,40.493,95.815,18.041,105.914,23.065z
				"/>
		</g>
		<g>
			<path fill="#F6AF61" d="M90.532,19.509c0,0-5.788-0.039,1.969,20.563l4.956-1.01C97.457,39.062,101.513,16.947,90.532,19.509z"/>
		</g>
	</g>
	<g>
		<path fill="#F6AF61" d="M63.424,38.912c-1.919,5.482-1.359,9.707,5.162,12.047c4.251,1.526,16.352,0.792,15.918-5.895
			c-0.636,5.681,9.632,13.916,14.63,14.129c5.626,0.239,13.619-6.752,10.732-12.839c-1.833,16.7,38.881,7.692,27.557-10.024"/>
		<path fill="#8A4C1C" d="M99.404,60.707c-0.112,0-0.223-0.002-0.334-0.007c-3.929-0.168-9.555-4.096-12.725-7.796
			c-0.745-0.871-1.54-1.934-2.171-3.105c-0.248,0.248-0.521,0.483-0.817,0.707c-4.04,3.042-11.75,3.141-15.281,1.873
			c-6.554-2.352-8.542-6.919-6.076-13.964c0.275-0.787,1.138-1.199,1.921-0.925c0.786,0.275,1.201,1.135,0.925,1.921
			c-1.926,5.501-0.734,8.342,4.248,10.129c2.806,1.008,9.414,0.842,12.448-1.443c0.844-0.635,1.31-1.348,1.432-2.207
			c-0.016-0.33-0.006-0.662,0.031-0.993c0.086-0.777,0.756-1.352,1.534-1.34c0.781,0.019,1.419,0.63,1.47,1.41
			c0.021,0.329,0.019,0.651-0.006,0.966c0.14,1.403,1.068,3.182,2.634,5.009c3.347,3.908,8.164,6.643,10.562,6.745
			c2.86,0.139,6.598-2.077,8.537-5.003c0.415-0.625,0.821-1.398,1.049-2.258c-0.442-1.264-0.587-2.686-0.417-4.236
			c0.074-0.67,0.583-1.21,1.249-1.323c0.665-0.111,1.324,0.232,1.613,0.841c0.654,1.379,0.882,2.857,0.692,4.358
			c0.59,1.128,1.611,2.008,3.058,2.632c5.982,2.577,16.528-0.034,20.898-5.175c2.617-3.079,2.709-6.572,0.275-10.381
			c-0.449-0.702-0.244-1.634,0.458-2.083c0.702-0.449,1.634-0.243,2.083,0.458c3.141,4.913,2.957,9.871-0.518,13.958
			c-5.182,6.096-17.262,9.063-24.391,5.992c-1.197-0.516-2.208-1.176-3.022-1.965c-0.156,0.283-0.327,0.565-0.513,0.846
			C107.814,58.026,103.209,60.707,99.404,60.707z"/>
	</g>
	<g>
		<path fill="#F6AF61" d="M80.06,32.816c0,0,6.894,11.544,21.812,8.98c0,0,13.445-1.724,13.872-10.385"/>
		<path fill="#8A4C1C" d="M97.643,43.679c-12.691,0-18.812-9.978-18.878-10.09c-0.427-0.715-0.193-1.641,0.522-2.068
			c0.715-0.426,1.64-0.193,2.067,0.521c0.283,0.467,6.617,10.616,20.263,8.268c0.184-0.025,12.262-1.68,12.621-8.973
			c0.042-0.832,0.753-1.465,1.581-1.432c0.832,0.041,1.473,0.749,1.432,1.581c-0.483,9.81-14.586,11.73-15.187,11.807
			C100.511,43.559,99.037,43.679,97.643,43.679z"/>
	</g>
	<g>
		<path fill="#8A4C1C" d="M131.658,73.428c-2.062,0-4.22-0.259-6.464-0.781c-4.291-0.998-10.699-4.018-13.781-8.083
			c-2.756,4.108-5.637,7.427-11.838,8.023c-7.453,0.713-21.216-2.53-24.631-11.311c-5.278,2.538-12.837,1.086-18.145-1.621
			c-6.687-3.409-9.59-8.901-9.138-17.282c0.045-0.832,0.765-1.469,1.587-1.425c0.832,0.045,1.47,0.755,1.425,1.587
			c-0.39,7.238,1.852,11.555,7.497,14.434c5.174,2.639,12.807,3.816,16.763,0.8c0.416-0.318,0.968-0.396,1.455-0.208
			c0.488,0.188,0.845,0.615,0.941,1.129c1.552,8.265,15.322,11.53,21.958,10.895c5.639-0.542,7.684-3.694,10.78-8.467l0.163-0.251
			c0.31-0.477,0.859-0.742,1.425-0.679c0.565,0.061,1.048,0.433,1.25,0.964c1.505,3.965,8.502,7.517,12.974,8.557
			c7.396,1.719,13.491,0.323,18.116-4.155c7.739-7.493,9.028-21.132,8.716-22.921c-0.245-0.75,0.133-1.571,0.876-1.867
			c0.773-0.31,1.651,0.069,1.958,0.843c0.804,2.019-0.691,16.07-7.986,24.553C143.423,70.972,138.002,73.428,131.658,73.428z"/>
	</g>
	<g>
		<g>
			<path fill="#8A4C1C" d="M42.309,180.34c-0.744,0-1.392-0.551-1.493-1.309c-1.757-13.137-15.731-15.401-15.872-15.422
				c-0.824-0.125-1.39-0.894-1.266-1.717c0.125-0.824,0.899-1.387,1.717-1.266c0.164,0.024,16.356,2.649,18.41,18.005
				c0.11,0.825-0.469,1.584-1.295,1.694C42.443,180.336,42.375,180.34,42.309,180.34z"/>
		</g>
		<g>
			<path fill="#8A4C1C" d="M53.587,183.732c-0.832,0-1.507-0.674-1.508-1.506c-0.009-7.378-2.276-13.358-6.738-17.775
				c-8.688-8.6-22.952-8.594-23.113-8.574c-0.817,0.016-1.514-0.661-1.522-1.493c-0.008-0.832,0.659-1.514,1.491-1.522
				c0.639-0.012,15.649-0.057,25.251,9.432c5.064,5.005,7.637,11.71,7.647,19.93c0.001,0.833-0.673,1.509-1.506,1.51
				C53.589,183.732,53.587,183.732,53.587,183.732z"/>
		</g>
	</g>
	<g>
		<g>
			<path fill="#8A4C1C" d="M157.367,180.822c-0.066,0-0.134-0.004-0.202-0.014c-0.826-0.11-1.405-0.868-1.295-1.694
				c2.052-15.356,18.246-17.981,18.41-18.006c0.818-0.118,1.592,0.441,1.717,1.266c0.125,0.822-0.441,1.591-1.264,1.716
				c-0.587,0.091-14.125,2.341-15.874,15.424C158.759,180.271,158.111,180.822,157.367,180.822z"/>
		</g>
		<g>
			<path fill="#8A4C1C" d="M146.089,184.211c0,0-0.001,0-0.002,0c-0.833-0.001-1.507-0.677-1.506-1.51
				c0.01-8.22,2.583-14.925,7.646-19.929c9.598-9.485,24.606-9.45,25.25-9.432c0.832,0.009,1.5,0.689,1.491,1.522
				c-0.008,0.832-0.674,1.49-1.522,1.493c-0.169-0.006-14.424-0.026-23.113,8.574c-4.461,4.416-6.729,10.396-6.738,17.774
				C147.596,183.538,146.921,184.211,146.089,184.211z"/>
		</g>
	</g>
	<g>
		<g>
			<path fill="#FF749F" d="M75.811,12.124c0,0,14.948,2.776,23.124,17.011c0,0-8.222,9.361-18.69,13.882
				C80.244,43.016,68.076,24.603,75.811,12.124z"/>
		</g>
		<g>
			<path fill="#FF749F" d="M121.534,12.124c0,0-14.949,2.776-23.123,17.011c0,0,8.222,9.361,18.691,13.882
				C117.103,43.016,129.268,24.603,121.534,12.124z"/>
		</g>
		<g>
			<g>
				<path fill="#FF5A8C" d="M98.933,37.16c-1.061,0-2.076-0.292-2.982-0.865c-0.939-0.44-1.797-1.047-2.522-1.805
					c-0.618-0.643-1.102-1.363-1.44-2.123c-1.025-1.456-1.555-2.89-1.575-4.287c-0.03-1.819,0.803-3.493,2.483-4.975
					c0.312-0.273,0.627-0.531,0.946-0.767c0.085-0.135,0.175-0.266,0.27-0.391c0.321-0.421,0.766-0.872,1.371-1.242
					c1.104-0.991,2.397-1.562,3.858-1.354c1.543,0.225,3.069,0.976,4.361,2.111c1.082,0.764,2.032,1.857,2.818,3.246
					c1.273,2.25,1.226,5.085-0.004,7.392c-0.395,2.744-2.501,4.542-5.82,4.949c-0.345,0.044-0.689,0.063-1.032,0.065
					C99.418,37.145,99.172,37.16,98.933,37.16z M97.273,33.1c0.336,0.276,0.706,0.505,1.113,0.671
					c1.787,0.735,3.538,0.556,4.945-0.477c0.645-0.674,1.187-1.461,1.563-2.292c-0.005-0.172-0.015-0.348-0.034-0.525
					c-0.346,0.493-0.801,0.979-1.399,1.439c-1.505,1.158-3.387,1.574-5.222,1.174C97.916,33.114,97.592,33.115,97.273,33.1z
					 M93.57,31.665c0.597,0.795,1.31,1.533,2.024,2.181c-0.438-0.46-0.816-0.979-1.132-1.533
					C94.136,32.123,93.835,31.908,93.57,31.665z M97.339,24.962c-0.792,0.365-1.221,0.906-1.271,1.608
					c-0.075,1.025,0.659,2.237,1.744,2.879c0.582,0.344,1.756,0.798,3.042-0.038c0.035-0.019,0.066-0.042,0.098-0.063l-0.052-0.053
					C99.577,27.967,98.387,26.515,97.339,24.962z M99.155,24.624c0.715,1.001,1.495,1.956,2.336,2.855
					c0.232-0.386,0.368-0.882,0.396-1.437C101.253,25.277,100.269,24.698,99.155,24.624z"/>
			</g>
		</g>
	</g>
	<g>
		<g>
			<ellipse fill="#472313" cx="155.684" cy="117.594" rx="7.027" ry="8.173"/>
		</g>
		<g>
			<g>
				<path fill="#472313" d="M160.275,114.57c-0.339,0-0.677-0.139-0.921-0.41c-0.458-0.509-0.417-1.292,0.092-1.75l3.193-2.875
					c0.508-0.458,1.292-0.417,1.75,0.092c0.458,0.509,0.417,1.292-0.092,1.75l-3.193,2.875
					C160.867,114.465,160.57,114.57,160.275,114.57z"/>
			</g>
			<g>
				<path fill="#472313" d="M156.382,112.349c-0.06,0-0.121-0.004-0.182-0.014c-0.677-0.1-1.145-0.729-1.045-1.406l0.627-4.251
					c0.099-0.677,0.73-1.147,1.406-1.045c0.677,0.1,1.145,0.729,1.045,1.406l-0.627,4.251
					C157.516,111.906,156.987,112.349,156.382,112.349z"/>
			</g>
			<g>
				<path fill="#472313" d="M152.171,113.589c-0.443,0-0.872-0.238-1.095-0.657l-2.02-3.791c-0.322-0.604-0.093-1.354,0.511-1.676
					c0.604-0.32,1.354-0.093,1.676,0.511l2.02,3.791c0.322,0.604,0.093,1.354-0.511,1.676
					C152.567,113.542,152.368,113.589,152.171,113.589z"/>
			</g>
		</g>
	</g>
	<g>
		<g>
			<ellipse fill="#472313" cx="47.265" cy="117.594" rx="7.028" ry="8.173"/>
		</g>
		<g>
			<g>
				<path fill="#472313" d="M42.673,114.57c-0.295,0-0.592-0.105-0.829-0.318l-3.193-2.875c-0.508-0.458-0.55-1.241-0.092-1.75
					c0.458-0.508,1.241-0.55,1.75-0.092l3.193,2.875c0.508,0.458,0.55,1.241,0.092,1.75C43.35,114.431,43.012,114.57,42.673,114.57z
					"/>
			</g>
			<g>
				<path fill="#472313" d="M46.569,112.349c-0.604,0-1.133-0.442-1.224-1.058l-0.628-4.251c-0.1-0.677,0.368-1.307,1.044-1.407
					c0.679-0.103,1.307,0.368,1.407,1.044l0.628,4.251c0.1,0.677-0.368,1.307-1.044,1.407
					C46.69,112.345,46.629,112.349,46.569,112.349z"/>
			</g>
			<g>
				<path fill="#472313" d="M50.78,113.589c-0.196,0-0.396-0.047-0.581-0.146c-0.604-0.321-0.833-1.072-0.512-1.676l2.018-3.791
					c0.321-0.605,1.071-0.833,1.676-0.512c0.604,0.321,0.833,1.072,0.512,1.676l-2.018,3.791
					C51.652,113.351,51.224,113.589,50.78,113.589z"/>
			</g>
		</g>
	</g>
</g>
</svg>
