<?xml version="1.0" encoding="utf-8"?>
<!-- Generator: Adobe Illustrator 16.0.0, SVG Export Plug-In . SVG Version: 6.00 Build 0)  -->
<!DOCTYPE svg PUBLIC "-//W3C//DTD SVG 1.1//EN" "http://www.w3.org/Graphics/SVG/1.1/DTD/svg11.dtd">
<svg version="1.1" id="Capa_1" xmlns="http://www.w3.org/2000/svg" xmlns:xlink="http://www.w3.org/1999/xlink" x="0px" y="0px"
	 width="200px" height="200px" viewBox="0 0 200 200" enable-background="new 0 0 200 200" xml:space="preserve">
<g>
	<g>
		<g>
			<path fill="#00A70A" d="M163.43,41.945c-0.869-0.189-1.664-0.731-2.152-1.564c-0.932-1.58-0.391-3.615,1.186-4.544
				c12.803-7.497,9.693-15.779,9.559-16.126c-0.789-1.968-1.4-2.344-1.404-2.349c-1.58,0.291-5.809,6.514-8.494,12.846
				c-0.719,1.687-2.643,2.489-4.359,1.76c-1.689-0.718-2.479-2.668-1.756-4.358c2.16-5.092,7.93-16.93,14.854-16.852
				c2.18,0.025,5.203,1.163,7.316,6.449c2.014,4.669,2.086,15.904-12.35,24.363C165.07,42.01,164.223,42.122,163.43,41.945z"/>
		</g>
	</g>
	<g>
		<path fill="#DD0422" d="M86.23,18.042c15.707,1.578,58.105,5.679,64.561,4.938c0,0,23.291,0.466,18,26.649l-21.488,125.359
			c0,0-0.553,6.718-5.49,9.733c-10.426,6.365-39.273,17.73-107.121-9.892c0,0-21.189-10.243-11.105-42.262
			c8.119-25.773,24.029-30.945,42.625-27.51c0,0,3.275-61.897,10.797-82.267C78.459,18.862,82.59,17.674,86.23,18.042z"/>
	</g>
	<g>
		<path fill="#00A70A" d="M168.791,49.63c5.291-26.184-18-26.649-18-26.649c-6.455,0.741-48.854-3.36-64.561-4.938
			c-3.641-0.369-7.771,0.819-9.223,4.75c-1.617,4.387-3.025,10.737-4.264,17.941c13.66,3.179,66.297,14.656,95.785,10.417
			L168.791,49.63z"/>
	</g>
	<g>
		<g>
			<path fill="#FFFFFF" d="M78.516,47.395c-1.525-0.337-2.49-1.894-2.145-3.476c0.832-3.757,2.182-10.933,2.475-15.296l1.592-13.735
				c0.182-1.604,1.598-2.762,3.152-2.6c1.568,0.213,2.662,1.612,2.48,3.217l-1.578,13.586c-0.33,4.913-1.83,12.662-2.576,16.048
				C81.566,46.725,80.047,47.73,78.516,47.395z"/>
		</g>
	</g>
	<g>
		<g>
			<path fill="#FFFFFF" d="M89.6,52.727c-1.174-0.26-2.086-1.272-2.199-2.569c-0.107-1.329,0.172-2.317,0.389-3.124
				c0.791-3.267,1.568-5.954,2.344-8.636c1.168-4.028,2.266-7.831,2.924-11.779c0.703-4.226,0.777-8.748,0.844-13.118l0.051-3.139
				C94,8.75,95.293,7.46,96.863,7.472c1.535-0.017,2.795,1.346,2.77,2.958l-0.057,3.084c-0.076,4.59-0.156,9.345-0.922,14.004
				c-0.721,4.311-1.92,8.467-3.09,12.484c-0.752,2.586-1.506,5.17-2.111,7.791c-0.025,0.036-0.189,0.728-0.207,0.768
				c-0.166,0.61-0.211,0.789-0.184,1.014c0.125,1.612-1.027,3.045-2.59,3.2C90.168,52.802,89.875,52.788,89.6,52.727z"/>
		</g>
	</g>
	<g>
		<g>
			<path fill="#FFFFFF" d="M106.062,54.14c-1.193-0.264-2.105-1.307-2.188-2.623c-0.389-5.752,0.619-11.986,1.605-18.01
				c0.838-5.196,1.699-10.561,1.645-15.463c-0.021-1.609,1.232-2.949,2.807-2.997c1.555-0.046,2.854,1.242,2.865,2.852
				c0.064,5.414-0.846,11.04-1.732,16.497c-0.953,5.947-1.869,11.573-1.539,16.639c0.109,1.607-1.072,3.029-2.625,3.153
				C106.605,54.219,106.326,54.197,106.062,54.14z"/>
		</g>
	</g>
	<g>
		<g>
			<path fill="#FFFFFF" d="M121.352,55.066c-1.52-0.337-2.479-1.894-2.137-3.467c0.367-1.668,0.379-3.553,0.402-5.541
				c0.018-1.166,0.027-2.308,0.104-3.428l0.121-1.836c0.471-6.726,0.959-13.674,0.361-20.294c-0.15-1.605,1.002-3.052,2.555-3.218
				c1.576-0.173,2.951,0.983,3.09,2.588c0.641,7.107,0.143,14.301-0.342,21.254l-0.133,1.824c-0.068,1.007-0.082,2.048-0.088,3.087
				c-0.025,2.206-0.043,4.495-0.535,6.764c-0.348,1.583-1.859,2.592-3.393,2.266H121.352z"/>
		</g>
	</g>
	<g>
		<g>
			<path fill="#FFFFFF" d="M133.77,54.811c-0.877-0.192-1.635-0.787-1.949-1.711c-0.525-1.492-0.258-2.708-0.084-3.513l0.551-3.277
				c0.316-1.871,0.65-3.725,0.754-5.651c0.213-4.367,0.646-8.665,1.146-13.024c0.082-0.701,0.221-1.453,0.361-2.215
				c0.236-1.282,0.512-2.733,0.332-3.53c-0.35-1.569,0.604-3.154,2.135-3.536c1.512-0.375,3.033,0.575,3.391,2.146
				c0.447,1.997,0.062,4.089-0.283,5.939c-0.123,0.631-0.236,1.243-0.305,1.81c-0.488,4.22-0.91,8.389-1.119,12.638
				c-0.113,2.178-0.473,4.266-0.836,6.375l-0.422,2.627c-0.021,0.069-0.158,0.83-0.176,0.887c0.525,1.516-0.301,3.333-1.77,3.895
				C134.92,54.888,134.326,54.935,133.77,54.811z"/>
		</g>
	</g>
	<g>
		<g>
			<path fill="#FFFFFF" d="M147.607,55.969c-1.424-0.313-2.377-1.716-2.168-3.233c0.242-1.823,0.035-3.952-0.182-6.013l-0.348-3.463
				c-0.365-3.241-0.738-6.585-0.127-10.121c0.232-1.45,0.619-2.948,1.004-4.457c0.68-2.742,1.338-5.335,1.162-7.667
				c-0.115-1.61,1.062-3.032,2.615-3.177c1.545-0.094,2.936,1.054,3.051,2.653c0.236,3.306-0.566,6.495-1.348,9.587
				c-0.342,1.35-0.678,2.698-0.902,3.99c-0.469,2.7-0.158,5.492,0.172,8.44l0.369,3.542c0.227,2.291,0.482,4.893,0.148,7.424
				c-0.221,1.602-1.658,2.731-3.207,2.524C147.764,55.99,147.688,55.987,147.607,55.969z"/>
		</g>
	</g>
	<g>
		<g>
			<path fill="#FFFFFF" d="M160.684,58.269c-0.752-0.166-1.459-0.616-1.912-1.268c-0.342-0.493-0.525-1.095-0.52-1.697
				c0.043-4.215-0.336-8.437-0.729-12.912c-0.533-6.047-1.088-12.312-0.541-18.528c0.139-1.618,1.523-2.824,3.08-2.701
				c1.752,0.181,2.709,1.539,2.574,3.136c-0.508,5.693,0.029,11.691,0.535,17.482c0.367,4.17,0.738,8.462,0.752,12.699
				c0.41,1.289-0.092,2.764-1.254,3.49C162.076,58.335,161.357,58.417,160.684,58.269z"/>
		</g>
	</g>
	<g>
		<path fill="#00A70A" d="M48.311,105.146c-10.635,2.539-19.389,10.461-24.725,27.424c-10.084,32.019,11.105,42.262,11.105,42.262
			c8.029,3.272,15.467,5.958,22.439,8.202C74.545,136.379,58.791,114.033,48.311,105.146z"/>
	</g>
	<g>
		<path fill="#FFFFFF" d="M51.869,104.468c-2.137,0.272-4.189,0.746-6.178,1.412c0.152,0.583,0.346,1.172,0.842,1.573
			c0.248,0.187,24.205,20.142,15.838,50.143c-0.027,0.149-3.225,14.843-7.77,24.151c-0.07,0.128,0.01,0.275-0.027,0.41
			c1.771,0.598,3.561,1.2,5.279,1.737c4.756-9.969,7.922-24.478,8.01-24.93C75.816,130.488,57.703,110.125,51.869,104.468z"/>
	</g>
	<g>
		<path fill="#00A70A" d="M124.869,191.015c8.09-1.615,13.525-4.208,16.943-6.292c4.938-3.015,5.49-9.733,5.49-9.733l2.232-13.08
			C146.023,163.002,129.26,169.478,124.869,191.015z"/>
	</g>
	<g>
		<path fill="#FFFFFF" d="M149.883,159.971c-3.568-0.094-7.15,0.176-10.199,1.258c-5.027,1.766-12.828,16.36-16.557,25.139
			c-0.719,1.676-1.416,3.481-2.094,5.319c2.379-0.326,4.496-0.777,6.486-1.255c4.508-11.203,11.084-22.25,13.926-23.677
			c2.109-0.744,4.721-0.929,7.42-0.905L149.883,159.971z"/>
	</g>
	<g>
		<g>
			<path fill="#FFFFFF" d="M144.145,130.134c-0.135-1.549-1.223-2.813-2.684-3.154l-7.721-1.808l-3.898-8.118
				c-0.541-1.142-1.67-1.93-2.838-1.949c-1.203-0.111-2.393,0.483-3.115,1.512l-4.973,7.14l-8.652,0.881
				c-1.299,0.154-2.455,1.025-2.951,2.314c-0.473,1.279-0.23,2.722,0.689,3.725l5.85,6.65l-1.895,7.2
				c-0.398,1.384,0.076,2.855,1.148,3.747c1.062,0.891,2.57,1.028,3.793,0.359l8.756-4.72l4.504,6.298
				c0.584,0.777,1.398,1.268,2.301,1.402c0.521,0.078,1.078,0.042,1.58-0.137c1.41-0.483,2.416-1.843,2.449-3.391l0.279-11.863
				l5.264-2.435C143.406,133.142,144.254,131.681,144.145,130.134z"/>
		</g>
	</g>
</g>
</svg>
