<?xml version="1.0" encoding="utf-8"?>
<!-- Generator: Adobe Illustrator 16.0.0, SVG Export Plug-In . SVG Version: 6.00 Build 0)  -->
<!DOCTYPE svg PUBLIC "-//W3C//DTD SVG 1.1//EN" "http://www.w3.org/Graphics/SVG/1.1/DTD/svg11.dtd">
<svg version="1.1" id="Capa_1" xmlns="http://www.w3.org/2000/svg" xmlns:xlink="http://www.w3.org/1999/xlink" x="0px" y="0px"
	 width="200px" height="200px" viewBox="0 0 200 200" enable-background="new 0 0 200 200" xml:space="preserve">
<g>
	<g>
		<path fill="#90D294" d="M134.135,48.667c-18.073-6.942-40.351-5.708-56.861-2.241c-2.874,0.874-5.692,1.933-8.422,3.175
			c-13.658,6.212-25.288,17.001-32.681,31.864c-1.536,3.17-2.832,6.494-3.902,9.925c-4.679,15.004-8.041,32.246-3.669,47.34
			c0.878,3.02,5.373,12.562,7.008,15.23c33.963,55.489,95.305,33.441,98.965,32.319c3.657-1.125,6.993-2.573,10.022-4.305
			c2.024-1.155,3.911-2.438,5.675-3.835c28.331-28.938,28.749-63.792,15.564-94.756C157.211,63.14,137.151,49.821,134.135,48.667z"
			/>
	</g>
	<g>
		<path fill="#87888A" d="M121.768,31.361c-0.577-2.315-3.053-3.636-6.44-4.335c-0.183-5.028-1.431-9.207-3.893-12.367
			c-4.853-6.245-12.277-6.257-12.498-6.177c-3.763,0.068-8.689,2.28-10.817,12.404c-0.216,1.02-0.625,4.108-0.851,7.605
			c-2.109,0.377-3.414,0.652-3.414,0.652c-4.552,1.243-2.739,14.901-2.472,16.732c0.006,0.059,0.006,0.066,0.02,0.148
			c0.005,0.014,0.009,0.063,0.009,0.063l0.02,0.002c0.136,0.686,0.661,1.944,2.812,2.341c0,0,34.114,4.758,37.031-1.496
			c0.146-0.118,0.229-0.271,0.253-0.472C122.069,40.958,121.768,31.361,121.768,31.361z M112.44,31.083
			c1.277-0.333,2.546,0.432,2.875,1.688l0.211,0.693c0.192,0.587,0.413,1.251,0.502,2.069c0.185,1.848,0.137,3.818,0.062,5.674
			c-0.052,1.263-1.098,2.254-2.353,2.254c-0.033,0-0.071,0-0.104-0.002c-1.3-0.056-2.31-1.155-2.255-2.457
			c0.076-1.674,0.117-3.44-0.037-4.976c-0.032-0.312-0.149-0.674-0.291-1.089c-0.103-0.322-0.205-0.644-0.301-0.98
			C110.424,32.702,111.177,31.415,112.44,31.083z M95.649,15.464c0.957-1.271,2.033-1.875,3.378-1.897
			c-0.039,0.014,5.049-0.096,8.397,4.216c1.662,2.133,2.584,5.072,2.822,8.663c-5.782-0.265-12.611,0.446-17.896,1.221
			C92.684,23.063,93.582,18.184,95.649,15.464z M103.365,38.525c0.02,0.299,0.124,0.66,0.245,1.076
			c0.095,0.328,0.188,0.663,0.269,1.005c0.281,1.273-0.526,2.532-1.795,2.811c-0.169,0.036-0.343,0.054-0.509,0.054
			c-1.084,0-2.057-0.747-2.3-1.846l-0.188-0.704c-0.165-0.562-0.372-1.261-0.428-2.079c-0.113-1.723-0.019-3.51,0.146-5.668
			c0.099-1.294,1.143-2.281,2.531-2.167c1.298,0.101,2.265,1.235,2.166,2.531C103.352,35.499,103.271,37.096,103.365,38.525z
			 M86.127,35.367c0.112-1.092,1.02-1.924,2.188-1.773c1.091,0.115,1.885,1.094,1.771,2.188c-0.122,1.166-0.233,2.388-0.14,3.412
			c0.009,0.099,0.103,0.334,0.196,0.559c0.104,0.256,0.202,0.51,0.287,0.772c0.329,1.052-0.259,2.166-1.314,2.492
			c-0.194,0.059-0.395,0.089-0.588,0.089c-0.849,0-1.639-0.547-1.902-1.401c-0.347-0.888-0.577-1.442-0.644-2.138
			C85.855,38.169,85.982,36.727,86.127,35.367z"/>
	</g>
	<g>
		<path fill="#FFFFFF" d="M116.245,78.465c-0.239,0-0.479-0.024-0.716-0.075c-0.956-0.202-1.783-0.799-2.275-1.643l-8.115-13.911
			L93.883,75.499c-0.687,0.773-1.683,1.211-2.716,1.16c-1.033-0.038-1.995-0.536-2.623-1.356l-9.782-12.791l-11.741,7.583
			c-0.799,0.516-1.772,0.681-2.696,0.457c-0.924-0.225-1.714-0.818-2.187-1.643l-6.693-11.672c-0.952-1.659-0.378-3.775,1.281-4.727
			c1.659-0.952,3.775-0.378,4.727,1.281l4.877,8.505l11.361-7.338c1.517-0.979,3.532-0.63,4.629,0.805l9.176,11.997l11.639-13.095
			c0.737-0.83,1.83-1.255,2.932-1.146c1.104,0.11,2.089,0.742,2.648,1.701l8.596,14.736l19.75-14.293
			c0.788-0.571,1.781-0.783,2.735-0.585c0.953,0.198,1.779,0.789,2.275,1.627l5.849,9.885l3.884-6.077
			c1.029-1.612,3.17-2.083,4.782-1.054c1.611,1.029,2.083,3.171,1.054,4.782l-6.914,10.822c-0.647,1.014-1.815,1.622-2.978,1.598
			c-1.202-0.021-2.309-0.664-2.921-1.699L138.043,63.5l-19.769,14.308C117.679,78.239,116.967,78.465,116.245,78.465z"/>
	</g>
	<g>
		<path fill="#FFFFFF" d="M125.662,117.231c-0.825,0-1.632-0.295-2.267-0.844L97.886,94.309l-28.617,22.196
			c-0.985,0.764-2.304,0.939-3.454,0.46c-1.15-0.479-1.955-1.54-2.105-2.777l-2.969-24.319l-16.697,9.766
			c-0.903,0.528-1.998,0.621-2.976,0.249c-0.979-0.371-1.736-1.165-2.063-2.159l-5.42-16.519c-0.596-1.817,0.394-3.774,2.211-4.37
			c1.815-0.599,3.773,0.393,4.37,2.211l4.083,12.444l17.542-10.26c1.008-0.588,2.242-0.63,3.286-0.114
			c1.045,0.518,1.759,1.526,1.9,2.684l2.868,23.493l26.038-20.197c1.306-1.011,3.142-0.961,4.389,0.118l24.313,21.043l10.819-21.202
			c0.481-0.942,1.366-1.613,2.404-1.821c1.036-0.208,2.113,0.07,2.92,0.754l16.094,13.646l10.182-9.429
			c1.404-1.299,3.595-1.215,4.895,0.188c1.299,1.403,1.215,3.594-0.188,4.894l-12.434,11.514c-1.285,1.19-3.257,1.233-4.593,0.1
			L139.586,94.1l-10.841,21.243c-0.483,0.948-1.376,1.621-2.421,1.825C126.104,117.21,125.882,117.231,125.662,117.231z"/>
	</g>
	<g>
		<path fill="#FFFFFF" d="M96.104,156.321c-0.859,0-1.695-0.32-2.337-0.908l-26.711-24.429l-20.967,6.254
			c-1.511,0.452-3.139-0.177-3.954-1.529l-6.261-10.373l-7.251,5.356c-1.539,1.137-3.707,0.81-4.844-0.728
			c-1.136-1.539-0.81-3.707,0.729-4.843l10.31-7.615c0.784-0.579,1.776-0.798,2.731-0.611c0.955,0.19,1.787,0.773,2.291,1.607
			l6.839,11.333l20.276-6.049c1.165-0.346,2.43-0.058,3.327,0.763l25.08,22.938l14.533-23.409c0.857-1.381,2.561-1.979,4.093-1.439
			l33.526,11.806l6.927-10.453c0.925-1.397,2.717-1.931,4.257-1.268l16.105,6.938c1.756,0.757,2.566,2.794,1.811,4.551
			c-0.757,1.758-2.794,2.565-4.551,1.811l-13.447-5.793l-6.818,10.291c-0.877,1.324-2.54,1.882-4.037,1.354l-33.449-11.779
			l-15.267,24.59c-0.543,0.875-1.447,1.463-2.468,1.604C96.419,156.311,96.261,156.321,96.104,156.321z"/>
	</g>
	<g>
		<path fill="#FFFFFF" d="M98.524,184.79c-0.896,0-1.785-0.346-2.456-1.021l-12.541-12.604l-17.062,9.016
			c-0.857,0.454-1.866,0.525-2.78,0.201c-0.913-0.326-1.648-1.02-2.026-1.914l-5.566-13.164l-10.676,7.003
			c-1.601,1.05-3.746,0.603-4.795-0.996s-0.604-3.746,0.996-4.795l14.148-9.281c0.859-0.563,1.925-0.716,2.906-0.418
			c0.983,0.299,1.782,1.019,2.183,1.965l5.713,13.512l15.989-8.449c1.346-0.711,2.999-0.461,4.072,0.619l12.279,12.34l16.688-11.859
			c1.042-0.74,2.407-0.846,3.551-0.276l14.397,7.179l9.157-13.572c0.89-1.318,2.562-1.861,4.057-1.316l12.413,4.525
			c1.797,0.655,2.723,2.643,2.067,4.439c-0.654,1.797-2.641,2.722-4.439,2.067l-9.87-3.598l-9.342,13.845
			c-0.972,1.44-2.861,1.936-4.416,1.162l-15.257-7.607l-17.386,12.355C99.924,184.58,99.222,184.79,98.524,184.79z"/>
	</g>
</g>
</svg>
