<?xml version="1.0" encoding="utf-8"?>
<!-- Generator: Adobe Illustrator 16.0.0, SVG Export Plug-In . SVG Version: 6.00 Build 0)  -->
<!DOCTYPE svg PUBLIC "-//W3C//DTD SVG 1.1//EN" "http://www.w3.org/Graphics/SVG/1.1/DTD/svg11.dtd">
<svg version="1.1" id="Capa_1" xmlns="http://www.w3.org/2000/svg" xmlns:xlink="http://www.w3.org/1999/xlink" x="0px" y="0px"
	 width="200px" height="200px" viewBox="0 0 200 200" enable-background="new 0 0 200 200" xml:space="preserve">
<g>
	<g>
		<path fill="#743809" d="M16.796,39.662c4.058-4.668,11.771-8.248,11.971-8.328c0.75-0.492,0.8-0.961,0.814-1.115
			c0.091-0.849-0.649-2.113-2.079-3.558c-0.694-0.698-1.812-1.744-3.052-2.904c-3.417-3.193-6.09-5.733-6.817-6.939
			C14.61,11.8,15.006,7.794,15.875,5.317c0.671-1.914,2.756-2.591,3.622-2.794c0.867-0.202,1.671-0.224,2.22-0.062
			c27.896,8.389,30.91,37.338,30.926,37.537c2.097,10.75,14.599,21.554,18.382,24.613c0.666,0.538,1.322,1.18,1.424,2.577
			c0.453,6.525-3.682,9.846-7.36,10.707c-0.321,0.076-0.629,0.126-0.905,0.157c-0.879,0.097-2.119-0.096-3.05-1.556
			c-2.545-3.999-9.653-15.144-12.146-19.052c-0.531,0.861-1.235,1.862-1.911,2.636c-2.014,2.312-4.052,3.822-6.062,4.489
			c-2.646,0.882-4.56,0.007-5.402-0.554c-0.819-0.547-1.412-1.279-1.508-1.866c-0.357-2.116,0.664-5.514,1.464-7.884l0.062-0.199
			c1.085-3.239,1.276-6.367,1.273-8.21c-1.1,0.635-2.381,1.16-3.715,1.703c-0.456,0.186-0.911,0.371-1.361,0.563
			c-6.572,2.801-11.633,3.217-14.808,1.24c-1.956-1.217-2.53-2.91-2.685-3.583C13.801,43.478,15.373,41.301,16.796,39.662z"/>
	</g>
	<g>
		<g>
			<path fill="#C08043" d="M108.912,45.214c0,0,4.814,1.106-5.68,16.692l-3.92-1.817C99.312,60.089,100.294,40.927,108.912,45.214z"
				/>
		</g>
		<g>
			<path fill="#C08043" d="M95.782,42.181c0,0-4.938-0.034,1.683,17.55l4.228-0.862C101.692,58.869,105.154,39.995,95.782,42.181z"
				/>
		</g>
	</g>
	<g>
		<path fill="#C08043" d="M144.269,66.861c-18.862-14.345-66.146-18.981-89.599,0c-5.003,4.049-5.452,22.427-7.839,40.748
			c-2.01,15.424-11.272,16.11-12.702,16.015c-5.229-0.342-10.461-0.378-10.461-0.378c8.937,53.426,74.331,46.488,74.331,46.488
			c1.672,0.272,0.377,5.397,2.314,6.589c8.722,5.365,17.807-1.355,25.224-3.328c10.166-2.706,17.888-2.782,23.566-8.021
			C171.396,144.417,155.73,75.574,144.269,66.861z"/>
	</g>
	<g>
		<path fill="#DD0422" d="M21.924,134.469c-1.441,0-2.851-0.364-4.168-1.08c-0.49-0.194-0.971-0.418-1.44-0.672
			c-4.548-2.459-6.57-6.236-5.596-10.41c-0.471-4.022,1.068-8.139,4.175-10.665c1.919-1.561,3.907-2.597,5.898-3.089
			c2.503-0.902,5.121-1.125,7.472-0.578c2.228,0.52,3.775,2.087,4.804,4.144c0.655,0.871,1.041,1.766,1.265,2.55
			c0.067,0.235,0.124,0.474,0.17,0.715c0.325,0.523,0.636,1.073,0.931,1.646c1.583,3.083,1.842,5.965,0.771,8.566
			c-0.822,2-2.393,3.766-4.693,5.287c-0.92,0.905-2.021,1.668-3.275,2.248c-1.472,0.681-3.05,1.072-4.646,1.176
			C23.031,134.416,22.476,134.469,21.924,134.469z M27.973,129.408c-0.767,0.622-1.602,1.156-2.492,1.569
			c1.392-0.529,2.839-1.189,4.146-1.997C29.105,129.18,28.554,129.323,27.973,129.408z M14.643,125.829
			c1.446,2.274,3.835,3.51,6.854,3.467c0.688-0.012,1.363-0.134,2.014-0.347c-0.449-0.15-0.894-0.329-1.329-0.535
			c-2.915-0.443-5.42-2.109-6.952-4.656c-0.603-1.001-0.984-1.96-1.202-2.863c-0.127,0.241-0.243,0.486-0.348,0.734
			C13.752,123.044,14.091,124.488,14.643,125.829z M20.3,121.476c0.033,0.048,0.067,0.098,0.103,0.146
			c1.388,1.933,3.329,1.938,4.36,1.771c1.928-0.313,3.668-1.644,4.14-3.165c0.322-1.042,0.013-2.062-0.923-3.034
			c-2.384,1.647-4.921,3.066-7.577,4.235L20.3,121.476z M20.814,116.178c-0.27,0.816-0.354,1.61-0.236,2.298
			c1.719-0.822,3.381-1.757,4.976-2.798C23.912,115.162,22.165,115.437,20.814,116.178z M25.742,111.362
			c0.28,0.021,0.562,0.058,0.844,0.11c-0.146-0.062-0.294-0.118-0.441-0.17C26.009,111.314,25.876,111.335,25.742,111.362z"/>
	</g>
	<g>
		<path fill="#743809" d="M186.953,49.78c-4.059-4.67-11.771-8.249-11.975-8.329c-0.749-0.493-0.797-0.963-0.81-1.114
			c-0.091-0.851,0.647-2.112,2.079-3.559c0.689-0.697,1.812-1.744,3.052-2.903c3.415-3.193,6.088-5.733,6.816-6.939
			c3.022-5.019,2.627-9.024,1.759-11.503c-0.671-1.913-2.76-2.59-3.624-2.794c-0.863-0.202-1.671-0.224-2.219-0.061
			c-27.893,8.388-30.913,37.336-30.928,37.536c-2.097,10.751-14.596,21.556-18.382,24.613c-0.664,0.54-1.322,1.181-1.422,2.578
			c-0.454,6.526,3.683,9.847,7.36,10.708c0.321,0.075,0.628,0.126,0.904,0.156c0.878,0.097,2.119-0.095,3.049-1.556
			c2.547-4,9.655-15.145,12.151-19.053c0.528,0.862,1.229,1.863,1.907,2.637c2.014,2.312,4.053,3.823,6.063,4.489
			c2.644,0.881,4.559,0.006,5.401-0.555c0.818-0.546,1.412-1.278,1.51-1.866c0.356-2.115-0.664-5.513-1.465-7.882l-0.065-0.198
			c-1.082-3.238-1.272-6.368-1.27-8.211c1.096,0.636,2.382,1.159,3.714,1.706c0.457,0.182,0.91,0.368,1.361,0.56
			c6.574,2.799,11.631,3.215,14.808,1.24c1.956-1.217,2.528-2.91,2.685-3.583C189.945,53.595,188.377,51.418,186.953,49.78z"/>
	</g>
	<g>
		<path fill="#FF5BBA" d="M122.655,142.708c-2.217,0-4.451-0.803-6.189-2.22c-3.088-1.137-4.66-3.931-4.321-7.695
			c0.034-0.381,0.092-0.757,0.171-1.127c0.132-1.539,0.788-2.902,1.913-3.964c0.668-0.82,1.474-1.535,2.394-2.103
			c0.992-0.613,2.052-1.019,3.129-1.213c1.923-0.739,3.698-0.946,5.309-0.618c2.104,0.43,3.835,1.774,5.144,3.994
			c0.244,0.415,0.466,0.83,0.665,1.242c0.19,0.18,0.369,0.369,0.533,0.567c0.356,0.431,0.714,0.988,0.968,1.675
			c0.885,1.476,1.234,3.061,0.627,4.622c-0.655,1.682-1.912,3.176-3.583,4.31c-1.147,0.97-2.631,1.718-4.412,2.213
			C124.237,142.605,123.447,142.708,122.655,142.708z M118.113,138.925c0.189,0.038,0.383,0.067,0.579,0.09
			c-0.484-0.519-0.905-1.128-1.254-1.825c-0.987-1.972-1.01-4.177-0.077-6.121c0.054-0.365,0.132-0.724,0.232-1.074
			c-0.438,0.313-0.825,0.684-1.139,1.116c-1.259,1.726-1.48,3.665-0.66,5.453C116.43,137.467,117.227,138.286,118.113,138.925z
			 M123.065,136.117c0.401,0.35,0.953,0.623,1.591,0.796c1.044-0.499,1.951-1.428,2.309-2.614
			C125.622,134.822,124.319,135.429,123.065,136.117z M130.142,135.208c-0.115,0.297-0.256,0.579-0.415,0.843
			c0.107-0.092,0.21-0.192,0.303-0.299C130.075,135.575,130.112,135.394,130.142,135.208z M124.609,130.319
			c-1.103,0-2.34,0.54-3.126,1.42c-0.572,0.64-1.132,1.705-0.556,3.142c0.023,0.058,0.047,0.114,0.072,0.17l0.128-0.077
			c1.856-1.101,3.823-2.031,5.874-2.776c-0.241-0.952-0.785-1.549-1.617-1.779C125.141,130.351,124.879,130.319,124.609,130.319z
			 M115.662,129.038c-0.025,0.032-0.051,0.064-0.075,0.097c0.121-0.12,0.247-0.234,0.376-0.345
			C115.857,128.871,115.757,128.953,115.662,129.038z M120.124,126.349c-1.067,0.444-2.1,1.033-3.026,1.645
			c0.653-0.376,1.363-0.665,2.104-0.871C119.485,126.828,119.794,126.569,120.124,126.349z"/>
	</g>
	<g>
		<path fill="#472313" d="M64.615,117.154c-0.789,0-1.629-0.102-2.517-0.304c-9.723-2.222-8.096-16.735-8.022-17.352
			c0.122-1.016,1.048-1.74,2.059-1.618c1.016,0.122,1.739,1.043,1.618,2.058c-0.023,0.2-1.292,11.826,5.172,13.303
			c1.716,0.391,2.976,0.243,3.852-0.456c2.088-1.664,2.354-6.436,2.354-10.407c0-1.022,0.828-1.851,1.852-1.851
			c1.021,0,1.851,0.829,1.851,1.851c0,5.356-0.454,10.675-3.749,13.301C67.852,116.662,66.356,117.154,64.615,117.154z"/>
	</g>
	<g>
		<path fill="#472313" d="M104.343,120.551c-0.79,0-1.629-0.102-2.517-0.304c-9.719-2.224-8.096-16.736-8.022-17.353
			c0.122-1.015,1.04-1.736,2.059-1.617c1.013,0.122,1.737,1.042,1.617,2.056l0,0c-0.014,0.118-1.312,11.822,5.172,13.306
			c1.715,0.392,2.975,0.242,3.853-0.457c2.086-1.663,2.353-6.436,2.353-10.407c0-1.022,0.828-1.851,1.851-1.851
			s1.852,0.828,1.852,1.851c0,5.357-0.455,10.676-3.749,13.302C107.579,120.058,106.082,120.551,104.343,120.551z"/>
	</g>
	<g>
		<g>
			<path fill="#008474" d="M92.809,190.576c0.214-0.178,0.244-0.495,0.065-0.706c-0.176-0.215-0.496-0.244-0.706-0.066
				c-0.214,0.176-0.395,0.33-0.644,0.613c-0.064,0.078-0.145,0.17-0.191,0.196c-0.245,0.13-0.34,0.434-0.21,0.676
				c0.089,0.172,0.264,0.269,0.444,0.269c0.078,0,0.159-0.019,0.23-0.058c0.221-0.114,0.369-0.289,0.526-0.476
				C92.489,190.842,92.636,190.722,92.809,190.576z"/>
		</g>
		<g>
			<path fill="#008474" d="M94.638,191.053c0.239-0.143,0.317-0.45,0.174-0.689c-0.143-0.239-0.45-0.315-0.688-0.174l-0.299,0.175
				c-0.555,0.323-1.128,0.656-1.594,1.136c-0.192,0.201-0.187,0.517,0.014,0.711c0.097,0.093,0.222,0.14,0.349,0.14
				c0.133,0,0.261-0.05,0.36-0.153c0.368-0.379,0.88-0.677,1.375-0.964L94.638,191.053z"/>
		</g>
		<g>
			<path fill="#008474" d="M96.462,191.995c0.077-0.265-0.071-0.546-0.335-0.625c-0.273-0.083-0.545,0.069-0.626,0.336
				c-0.037,0.122-0.145,0.253-0.265,0.387c0.098-0.115,0.196-0.234,0.244-0.377c0.087-0.263-0.055-0.55-0.318-0.637
				c-0.271-0.087-0.547,0.055-0.634,0.316c-0.039,0.085-0.269,0.269-0.394,0.367c-0.139,0.114-0.27,0.222-0.359,0.318
				c-0.213,0.233-0.422,0.503-0.495,0.896c-0.049,0.272,0.129,0.535,0.404,0.585c0.031,0.006,0.062,0.009,0.091,0.009
				c0.237,0,0.448-0.169,0.493-0.41c0.022-0.123,0.089-0.225,0.244-0.399c0.062-0.066,0.156-0.138,0.253-0.215
				c0.111-0.089,0.221-0.187,0.328-0.289c-0.207,0.224-0.44,0.481-0.562,0.822c-0.097,0.259,0.042,0.546,0.304,0.639
				c0.056,0.02,0.112,0.031,0.17,0.031c0.203,0,0.397-0.128,0.47-0.333c0.06-0.158,0.212-0.324,0.376-0.501
				C96.084,192.666,96.343,192.384,96.462,191.995z"/>
		</g>
		<g>
			<path fill="#008474" d="M97.607,192.656c-0.233-0.145-0.544-0.078-0.692,0.158c-0.092,0.145-0.228,0.284-0.374,0.432
				c-0.254,0.263-0.547,0.562-0.681,0.995c-0.048,0.147-0.023,0.31,0.064,0.436c0.089,0.128,0.231,0.209,0.386,0.217
				c0.009,0.002,0.016,0.002,0.025,0.002c0.188,0,0.387-0.124,0.481-0.291c0.044-0.068,0.069-0.146,0.075-0.224
				c0.086-0.143,0.221-0.281,0.371-0.435c0.166-0.169,0.352-0.363,0.499-0.597C97.913,193.115,97.843,192.804,97.607,192.656z"/>
		</g>
		<g>
			<path fill="#008474" d="M98.846,195.187c0.099-0.247,0.47-0.917,0.653-1.253c0.163-0.292,0.296-0.537,0.338-0.634
				c0.112-0.254,0-0.551-0.253-0.663c-0.257-0.116-0.548-0.001-0.663,0.252c-0.039,0.086-0.158,0.302-0.301,0.561
				c-0.8,1.457-0.872,1.636-0.746,1.927c0.062,0.141,0.194,0.257,0.343,0.295c0.041,0.012,0.083,0.018,0.127,0.018
				c0.225,0,0.426-0.147,0.483-0.372C98.842,195.273,98.846,195.231,98.846,195.187z"/>
		</g>
		<g>
			<path fill="#008474" d="M100.45,195.88c0.196-0.25,0.402-0.507,0.554-0.807c0.13-0.248,0.03-0.55-0.215-0.676
				c-0.248-0.129-0.548-0.032-0.676,0.216c-0.11,0.211-0.275,0.422-0.449,0.646c-0.16,0.201-0.318,0.402-0.506,0.708
				c-0.168,0.265-0.424,0.666-0.381,1.079c0.025,0.246,0.229,0.436,0.476,0.45c0.006,0,0.011,0,0.017,0
				c0.125,0,0.32-0.067,0.413-0.145c0.165-0.137,0.22-0.361,0.151-0.553c0.06-0.116,0.151-0.265,0.237-0.398
				C100.181,196.221,100.316,196.052,100.45,195.88z"/>
		</g>
		<g>
			<path fill="#008474" d="M101.721,195.24c-0.276,0.009-0.494,0.233-0.483,0.511c-0.02,0.089-0.224,0.311-0.344,0.442
				c-0.221,0.237-0.444,0.483-0.551,0.782c-0.094,0.262,0.041,0.551,0.302,0.642c0.056,0.02,0.113,0.029,0.171,0.029
				c0.205,0,0.399-0.127,0.473-0.332c0.038-0.108,0.21-0.294,0.346-0.443c0.29-0.318,0.62-0.677,0.604-1.141
				C102.228,195.456,101.985,195.22,101.721,195.24z"/>
		</g>
	</g>
	<g>
		<path fill="#472313" d="M73.94,154.038c-4.957,0-8.718-4.971-8.882-5.191c-0.546-0.733-0.395-1.77,0.339-2.315
			c0.732-0.545,1.767-0.394,2.313,0.335c0.863,1.146,3.726,4.079,6.548,3.848c2.033-0.16,3.941-1.897,5.672-5.164
			c0.429-0.808,1.431-1.116,2.238-0.688c0.807,0.428,1.115,1.43,0.687,2.237c-2.3,4.34-5.11,6.667-8.353,6.915
			C74.313,154.031,74.126,154.038,73.94,154.038z"/>
	</g>
	<g>
		<path fill="none" d="M127.065,62.215c-1.42-1.263-5.542-4.134-7.589-3.182"/>
	</g>
	<g>
		<path fill="#C08043" d="M81.394,64.908c0,0-16.372,5.385-7.504,9.058c0,0,1.768,1.468,6.42-2.203c0,0,6.796,11.352,11.721,2.494"
			/>
		<path fill="#8A4C1C" d="M87.633,78.923c-3.375,0-6.288-3.419-7.647-5.321c-3.926,2.702-6.011,1.938-6.713,1.5
			c-2.248-0.96-3.358-2.222-3.301-3.755c0.143-3.793,8.47-6.823,11.02-7.662c0.676-0.221,1.402,0.146,1.625,0.82
			c0.222,0.675-0.146,1.402-0.82,1.625c-4.798,1.581-9.207,4.113-9.253,5.313c-0.007,0.195,0.369,0.724,1.84,1.333
			c0.086,0.036,0.168,0.081,0.244,0.134c0.393,0.181,1.987,0.129,4.886-2.158c0.289-0.229,0.665-0.321,1.028-0.255
			c0.363,0.067,0.682,0.287,0.872,0.604c0.827,1.375,3.754,5.287,6.261,5.249c1.152-0.02,2.239-0.934,3.231-2.718
			c0.347-0.622,1.129-0.845,1.751-0.5c0.621,0.345,0.845,1.129,0.499,1.75c-1.472,2.647-3.303,4.007-5.442,4.042
			C87.687,78.923,87.66,78.923,87.633,78.923z"/>
	</g>
	<g>
		<path fill="#472313" d="M24.264,24.642c-0.526,0-1.053-0.092-1.577-0.291c-0.53-0.202-0.897-0.645-1.022-1.157
			c-0.765-0.35-1.576-0.819-2.453-1.431c-0.584-0.408-0.842-1.144-0.64-1.828c0.202-0.683,0.819-1.161,1.531-1.184
			c1.253-0.042,2.404,0.16,3.522,0.354c1.641,0.285,2.975,0.518,4.281,0.001c1.372-1.304,2.791-2.955,3.954-4.313
			c1.372-2.13,2.95-4.487,5.653-5.548c0.796-0.313,1.703,0.034,2.086,0.802c0.383,0.767,0.116,1.699-0.614,2.148
			c-1.147,0.706-2.831,2.67-4.464,4.578c-0.002,0.003-0.003,0.007-0.006,0.01c-0.225,0.348-0.448,0.697-0.679,1.043
			c3.284-1.329,4.661-2.176,5.236-2.646c-0.346-0.517-0.398-1.208-0.064-1.772c0.466-0.786,1.456-1.062,2.242-0.596
			c1.421,0.842,1.479,2.03,1.438,2.501c-0.18,2.059-2.754,3.771-9.5,6.319c-0.221,0.083-0.388,0.146-0.482,0.185l-1.179,0.484
			c-1.627,0.671-3.046,1.258-4.451,1.548C26.144,24.349,25.204,24.642,24.264,24.642z"/>
	</g>
	<g>
		<path fill="#472313" d="M175.286,37.213c-1.025,0-2.024-0.175-2.997-0.526c-6.86-2.474-9.374-12.941-9.478-13.386
			c-0.207-0.889,0.346-1.778,1.233-1.986c0.89-0.209,1.78,0.344,1.989,1.232c0.599,2.544,3.092,9.485,7.382,11.028
			c2.244,0.806,4.886,0.075,7.852-2.176c0.729-0.554,1.766-0.411,2.318,0.317c0.553,0.728,0.411,1.766-0.317,2.319
			C180.482,36.151,177.81,37.213,175.286,37.213z"/>
	</g>
	<g>
		<path fill="#FF9400" d="M63.7,8.833c-1.046,1.81-1.825,4.973,0.557,9.668c0,0,2.203,5.438,5.251,5.308c0,0,2.74,0.311,1.883-9.51
			c-0.183-2.077-1.138-4.958-4.231-6.593C66.609,7.416,64.43,7.568,63.7,8.833z"/>
	</g>
	<g>
		<path fill="#00AA5D" d="M89.754,33.017c1.919-0.827,4.434-2.899,5.33-8.085c0,0,1.479-5.679-1.042-7.393c0,0-2.015-1.888-7.19,6.5
			c-1.095,1.775-2.052,4.656-0.544,7.816C86.576,32.417,88.414,33.595,89.754,33.017z"/>
	</g>
	<g>
		<path fill="#FFDD00" d="M119.672,9.071c-1.61,1.336-3.439,4.033-2.829,9.263c0,0,0.183,5.864,3.084,6.797
			c0,0,2.468,1.241,5.064-8.268c0.549-2.011,0.65-5.045-1.684-7.651C122.891,8.75,120.795,8.14,119.672,9.071z"/>
	</g>
	<g>
		<path fill="#FF316B" d="M143.331,43.153c1.425-1.533,2.889-4.444,1.611-9.55c0,0-0.935-5.793-3.934-6.343
			c0,0-2.607-0.913-3.957,8.851c-0.282,2.064,0.003,5.087,2.658,7.371C140.178,43.886,142.336,44.223,143.331,43.153z"/>
	</g>
	<g>
		<path fill="#472313" d="M181.809,33.821c-2.997,0-6.08-1.048-7.601-1.647c-2.576-1.018-5.63-2.697-7.871-4.777
			c-2.702,0.043-5.254,0.604-7.945,1.194c-3.521,0.773-7.16,1.573-11.187,1.132l-1.573-0.172
			c-10.006-1.091-20.354-2.22-29.959-4.627c-3.111-0.779-5.833-1.815-8.465-2.816c-5.705-2.171-10.63-4.048-17.267-2.224
			c-2.238,0.615-4.533,1.352-6.755,2.065c-7.065,2.27-14.372,4.623-22.237,3.97c-6.781-0.558-12.612-1.587-17.823-3.146
			c-0.304-0.09-0.723-0.195-1.207-0.317c-0.783-0.197-1.539-0.394-2.253-0.601c-0.412,0.597-0.862,1.134-1.343,1.618
			c-0.545,0.657-1.132,1.242-1.78,1.756c-2.488,1.972-5.726,2.791-10.513,2.655c-0.882-0.025-1.589-0.738-1.607-1.62
			c-0.018-0.883,0.659-1.624,1.54-1.686c3.566-0.249,7.455-0.874,10.009-3.438c0.141-0.177,0.276-0.361,0.411-0.553
			c-0.852-0.472-1.501-1.03-1.871-1.726c-0.616-1.148-0.346-2.681-0.06-4.303c0.172-0.973,0.406-2.304,0.242-2.866
			c-0.183-0.618,0.01-1.285,0.495-1.71c0.482-0.425,1.17-0.532,1.758-0.271c2.991,1.316,4.565,2.738,5.104,4.609
			c0.109,0.38,0.17,0.763,0.186,1.146c0.111,0.364,0.097,0.768-0.067,1.145c-0.002,0.007-0.006,0.013-0.009,0.021
			c-0.126,0.759-0.393,1.52-0.747,2.274c0.537,0.146,1.005,0.264,1.312,0.34c0.543,0.137,1.01,0.254,1.349,0.356
			c4.989,1.492,10.599,2.48,17.147,3.019c7.208,0.589,14.196-1.652,20.954-3.823c2.254-0.724,4.584-1.473,6.89-2.106
			c7.68-2.106,13.335,0.044,19.321,2.322c2.541,0.967,5.169,1.968,8.092,2.7c9.386,2.352,19.618,3.468,29.513,4.547l1.574,0.172
			c3.484,0.381,6.707-0.326,10.117-1.075c1.995-0.438,4.036-0.887,6.173-1.117c-0.123-0.247-0.231-0.496-0.324-0.749
			c-0.182-0.501-0.112-1.06,0.188-1.5c0.245-0.36,0.603-0.757,1.11-1.087c0.559-1.581,2.017-2.857,3.189-3.752
			c0.526-0.4,1.241-0.45,1.815-0.125c3.892,2.191,11.206,6.853,16.477,13.455c0.311,0.389,0.431,0.898,0.325,1.385
			c-0.106,0.487-0.426,0.9-0.87,1.125C184.575,33.595,183.201,33.821,181.809,33.821z M176.428,29.468
			c0.333,0.115,0.663,0.222,0.986,0.318c-0.322-0.138-0.646-0.271-0.974-0.401C176.438,29.413,176.434,29.44,176.428,29.468z
			 M170.249,24.319c0.227,0.03,0.452,0.062,0.677,0.097c-0.455-0.196-0.897-0.366-1.319-0.504
			C169.813,24.048,170.029,24.185,170.249,24.319z M37.456,17.33c0.11,0.13,0.307,0.264,0.562,0.398
			c0.299-0.611,0.6-1.266,0.91-1.969c0.007-0.193-0.013-0.367-0.058-0.524c-0.115-0.398-0.439-0.804-0.97-1.215
			c-0.057,0.371-0.123,0.744-0.189,1.114C37.584,15.857,37.395,16.933,37.456,17.33z"/>
	</g>
	<g>
		<path fill="#008474" d="M98.544,172.7c0,0-3.275,14.027-7.164,17.409c0,0,9.636,5.411,10.82,6.254c0,0,9.464-9.258,8.113-22.292
			C110.313,174.071,103.008,174.053,98.544,172.7z"/>
	</g>
	<g>
		<path fill="#C08043" d="M143.324,97.688c0,0,0.672,22.912,13.967,15.585c0,0,8.637-4.292-3.311-19.045"/>
		<path fill="#8A4C1C" d="M152.484,116.011c-1.282,0-2.484-0.315-3.594-0.949c-6.379-3.643-6.836-16.78-6.853-17.337
			c-0.021-0.71,0.538-1.303,1.249-1.324c0.709-0.01,1.304,0.538,1.324,1.248c0.102,3.398,1.301,12.75,5.558,15.179
			c1.739,0.992,3.866,0.769,6.501-0.683c0.104-0.055,1.737-0.938,2.219-3.274c0.489-2.378-0.139-6.709-5.908-13.833
			c-0.448-0.552-0.362-1.363,0.189-1.81c0.553-0.448,1.364-0.362,1.811,0.19c5.182,6.398,7.337,11.804,6.408,16.069
			c-0.77,3.533-3.413,4.883-3.525,4.939C155.949,115.481,154.148,116.011,152.484,116.011z"/>
	</g>
	<g>
		<path fill="#C6C7C8" d="M106.684,179.214c0,0-0.884,5.768,1.036,9.033c0,0,1.505-3.665,1.873-5.087
			C109.961,181.737,106.684,179.214,106.684,179.214z"/>
	</g>
	<g>
		<g>
			<g>
				<path fill="#009384" d="M125.032,188.23c-0.079,0-0.16-0.018-0.234-0.059c-0.213-0.111-0.361-0.283-0.481-0.42
					c-0.198-0.229-0.337-0.345-0.498-0.479l0.614-0.794l-0.322,0.384l0.353-0.36c0.199,0.168,0.373,0.316,0.564,0.535
					c0.114,0.131,0.193,0.224,0.239,0.248c0.246,0.13,0.341,0.433,0.208,0.678C125.388,188.133,125.213,188.23,125.032,188.23z"/>
			</g>
		</g>
		<g>
			<g>
				<path fill="#009384" d="M124.007,189.026c-0.131,0-0.262-0.052-0.362-0.154c-0.363-0.377-0.877-0.676-1.372-0.964l-0.311-0.183
					c-0.237-0.142-0.316-0.45-0.176-0.688c0.143-0.24,0.451-0.314,0.689-0.176l0.303,0.178c0.555,0.323,1.127,0.655,1.591,1.136
					c0.191,0.199,0.186,0.516-0.014,0.709C124.258,188.98,124.133,189.026,124.007,189.026z"/>
			</g>
		</g>
		<g>
			<g>
				<path fill="#009384" d="M122.824,190.24c-0.237,0-0.444-0.167-0.494-0.407c-0.022-0.12-0.082-0.22-0.244-0.395
					c-0.062-0.069-0.157-0.143-0.256-0.221c-0.275-0.224-0.592-0.477-0.711-0.821c-0.089-0.263,0.05-0.549,0.313-0.639
					c0.262-0.088,0.547,0.047,0.635,0.308c0.04,0.086,0.269,0.271,0.392,0.372c0.145,0.113,0.274,0.224,0.365,0.32
					c0.212,0.231,0.418,0.498,0.495,0.887c0.051,0.272-0.126,0.535-0.398,0.588C122.887,190.238,122.857,190.24,122.824,190.24z"/>
			</g>
		</g>
		<g>
			<g>
				<path fill="#009384" d="M121.595,190.423c-0.208,0-0.399-0.127-0.474-0.334c-0.056-0.158-0.209-0.324-0.374-0.501
					c-0.231-0.249-0.494-0.532-0.61-0.919c-0.082-0.265,0.068-0.545,0.336-0.625c0.271-0.082,0.545,0.072,0.626,0.337
					c0.052,0.165,0.212,0.339,0.384,0.523c0.217,0.233,0.457,0.496,0.585,0.85c0.092,0.261-0.043,0.547-0.306,0.641
					C121.706,190.415,121.65,190.423,121.595,190.423z"/>
			</g>
		</g>
		<g>
			<g>
				<path fill="#009384" d="M120.266,191.568c-0.194,0-0.387-0.121-0.48-0.291c-0.043-0.066-0.067-0.141-0.074-0.217
					c-0.087-0.146-0.223-0.282-0.372-0.438c-0.167-0.17-0.355-0.363-0.504-0.598c-0.146-0.233-0.077-0.544,0.156-0.692
					c0.233-0.146,0.543-0.078,0.692,0.157c0.092,0.146,0.229,0.284,0.37,0.432c0.259,0.263,0.548,0.561,0.688,0.996
					c0.045,0.147,0.021,0.307-0.066,0.435c-0.09,0.128-0.232,0.208-0.387,0.215C120.281,191.568,120.273,191.568,120.266,191.568z"
					/>
			</g>
		</g>
		<g>
			<g>
				<path fill="#009384" d="M118.254,192.364c-0.222,0-0.428-0.149-0.484-0.374c-0.013-0.044-0.019-0.087-0.019-0.13
					c-0.101-0.247-0.463-0.912-0.646-1.243c-0.161-0.299-0.298-0.548-0.341-0.646c-0.114-0.253,0.002-0.552,0.254-0.664
					c0.254-0.11,0.551,0.004,0.662,0.256c0.037,0.087,0.161,0.307,0.304,0.57c0.798,1.449,0.865,1.629,0.741,1.917
					c-0.059,0.143-0.194,0.257-0.345,0.296C118.337,192.358,118.296,192.364,118.254,192.364z"/>
			</g>
		</g>
		<g>
			<g>
				<path fill="#009384" d="M117.336,194.167c-0.139,0-0.333-0.066-0.429-0.15c-0.158-0.14-0.205-0.359-0.14-0.547
					c-0.051-0.105-0.132-0.228-0.174-0.294c-0.174-0.28-0.308-0.449-0.442-0.618c-0.199-0.252-0.404-0.511-0.56-0.811
					c-0.128-0.248-0.027-0.55,0.218-0.675c0.243-0.131,0.547-0.032,0.677,0.215c0.107,0.212,0.277,0.425,0.453,0.647
					c0.157,0.2,0.316,0.403,0.447,0.616c0.234,0.374,0.477,0.76,0.433,1.168c-0.024,0.24-0.212,0.427-0.45,0.449
					C117.358,194.167,117.347,194.167,117.336,194.167z"/>
			</g>
		</g>
		<g>
			<g>
				<path fill="#009384" d="M115.785,194.32c-0.208,0-0.4-0.128-0.475-0.332c-0.038-0.107-0.205-0.292-0.342-0.44
					c-0.294-0.32-0.624-0.681-0.607-1.146c0.011-0.276,0.249-0.5,0.521-0.483c0.273,0.01,0.487,0.237,0.482,0.511
					c0.024,0.092,0.225,0.309,0.344,0.439c0.216,0.239,0.441,0.483,0.547,0.779c0.097,0.262-0.041,0.548-0.303,0.642
					C115.896,194.311,115.839,194.32,115.785,194.32z"/>
			</g>
		</g>
	</g>
	<g>
		<path fill="#009384" d="M117.863,169.32c0,0,3.279,14.029,7.169,17.407c0,0-9.636,5.413-10.819,6.259c0,0-9.466-9.26-8.111-22.295
			C106.102,170.691,113.403,170.672,117.863,169.32z"/>
	</g>
	<g>
		<path fill="#00A096" d="M97.999,169.733c0,0,34.173-2.423,60.586-23.406c0,0,5.015,3.261,3.945,11.248
			c0,0-27.626,29.203-65.123,20.812c-0.449-0.102-1.033-1.498-1.145-2.485C96.067,174.158,96.136,171.436,97.999,169.733z"/>
	</g>
	<g>
		<path fill="#008474" d="M102.604,173.819c-2.733,0-4.902-0.77-6.486-2.308c-0.326-0.317-0.334-0.839-0.017-1.167
			c0.317-0.327,0.841-0.334,1.166-0.017c2.239,2.174,6.107,2.427,11.501,0.753c0.925-0.287,1.853-0.58,2.785-0.875
			c4.147-1.311,8.438-2.667,12.74-3.565c1.181-0.246,2.374-0.454,3.569-0.662c2.386-0.415,4.852-0.844,7.174-1.594
			c2.836-0.915,5.134-2.806,7.567-4.808l0.488-0.401c3.942-3.232,8.229-6.66,12.858-9.833c0.173-0.118,0.353-0.234,0.532-0.351
			c1.184-0.769,1.907-1.31,1.95-2.342c0.02-0.456,0.397-0.806,0.858-0.79c0.456,0.02,0.809,0.404,0.79,0.859
			c-0.083,1.958-1.534,2.899-2.7,3.656c-0.169,0.109-0.336,0.218-0.497,0.329c-4.579,3.138-8.832,6.54-12.746,9.748l-0.486,0.4
			c-2.445,2.012-4.974,4.093-8.108,5.104c-2.432,0.786-4.956,1.225-7.397,1.65c-1.178,0.205-2.353,0.41-3.516,0.651
			c-4.222,0.881-8.471,2.225-12.581,3.523c-0.935,0.295-1.865,0.59-2.791,0.877C106.764,173.432,104.542,173.819,102.604,173.819z"
			/>
	</g>
	<g>
		<path fill="#008474" d="M102.618,179.269c-3.466,0-4.821-1.443-6.514-3.245c-0.397-0.421-0.824-0.876-1.316-1.355
			c-0.326-0.317-0.334-0.839-0.017-1.166s0.841-0.334,1.166-0.017c0.512,0.498,0.957,0.97,1.369,1.409
			c1.729,1.841,2.688,2.859,5.849,2.712c2.795-0.124,5.067-1.185,7.473-2.307c1.248-0.583,2.539-1.186,3.95-1.679
			c1.745-0.609,3.319-0.458,4.841-0.31c0.71,0.069,1.45,0.14,2.206,0.137c1.987-0.009,4.032-0.34,5.915-0.957
			c1.962-0.646,3.697-1.662,5.536-2.738c1.99-1.165,4.047-2.369,6.403-3.048c1.479-0.425,2.956-0.567,4.384-0.706
			c1.756-0.169,3.414-0.329,5.064-0.974c1.965-0.768,3.878-2.419,5.669-4.045c1.654-1.5,3.352-3.157,4.993-4.758
			c1.186-1.158,2.361-2.304,3.512-3.385c0.331-0.312,0.853-0.296,1.166,0.036c0.312,0.332,0.295,0.854-0.036,1.166
			c-1.144,1.074-2.312,2.214-3.489,3.363c-1.652,1.612-3.36,3.279-5.037,4.799c-1.904,1.729-3.951,3.49-6.177,4.36
			c-1.864,0.729-3.716,0.907-5.507,1.08c-1.416,0.136-2.754,0.265-4.085,0.648c-2.157,0.621-4.037,1.722-6.027,2.886
			c-1.831,1.072-3.726,2.18-5.854,2.881c-2.045,0.67-4.265,1.03-6.423,1.039c-0.861,0.016-1.621-0.071-2.372-0.144
			c-1.466-0.142-2.733-0.265-4.138,0.226c-1.332,0.465-2.586,1.05-3.797,1.616c-2.446,1.142-4.975,2.322-8.096,2.461
			C103.018,179.264,102.814,179.269,102.618,179.269z"/>
	</g>
</g>
</svg>
