<?xml version="1.0" encoding="utf-8"?>
<!-- Generator: Adobe Illustrator 16.0.0, SVG Export Plug-In . SVG Version: 6.00 Build 0)  -->
<!DOCTYPE svg PUBLIC "-//W3C//DTD SVG 1.1//EN" "http://www.w3.org/Graphics/SVG/1.1/DTD/svg11.dtd">
<svg version="1.1" id="Capa_1" xmlns="http://www.w3.org/2000/svg" xmlns:xlink="http://www.w3.org/1999/xlink" x="0px" y="0px"
	 width="200px" height="200px" viewBox="0 0 200 200" enable-background="new 0 0 200 200" xml:space="preserve">
<g>
	<g>
		<g>
			<path fill="#FF9400" d="M178.025,107.236l-78.591-3.843l-78.4-0.107l15.354,72.242c0,0,16.634,12.85,56.992,16.023
				c34.842,2.74,59.805-9.587,59.805-9.587L178.025,107.236z"/>
		</g>
	</g>
	<g>
		<defs>
			<path id="SVGID_1_" d="M177.951,107.406l-78.586-3.841l-78.409-0.108L36.314,175.7c0,0,16.643,12.854,56.988,16.024
				c34.846,2.74,59.805-9.593,59.805-9.593L177.951,107.406z"/>
		</defs>
		<clipPath id="SVGID_2_">
			<use xlink:href="#SVGID_1_"  overflow="visible"/>
		</clipPath>
		<g clip-path="url(#SVGID_2_)">
			<g>
				<path fill="#EF7B00" d="M46.525,192.543c-2.32-4.199-2.595-8.912-2.546-13.385c0.05-5.787-0.434-11.453-0.909-16.929
					c-0.304-3.616-0.619-7.352-0.788-11.098c-0.368-8.647-1.426-15.32-3.659-23.024c-0.797-2.755-1.361-5.722-1.98-8.93
					c-0.935-4.882-1.902-9.93-3.846-14.349l-0.475-1.076l-4.309,1.89l0.477,1.08c1.745,3.97,2.659,8.768,3.545,13.41l0.095,0.481
					c0.569,2.945,1.16,5.991,1.979,8.803c2.115,7.283,3.128,13.637,3.484,21.921c0.139,3.478,0.43,6.94,0.709,10.285l0.082,1.01
					c0.439,5.048,0.939,10.762,0.885,16.482c-0.045,5.126,0.3,10.58,3.136,15.707l0.566,1.031l4.123-2.279L46.525,192.543z"/>
			</g>
			<g>
				<path fill="#EF7B00" d="M46.956,111.575l-4.702-0.078l-0.02,1.174c-0.193,9.636-0.182,20.038,1.171,30.814
					c0.468,3.716,1.05,7.464,1.661,11.327c1.184,7.612,2.405,15.485,2.509,23.256c0.028,2.635-0.104,5.439-0.214,7.88
					c-0.185,4.318-0.381,8.786,0.136,13.202l0.139,1.171l4.669-0.545l-0.135-1.171c-0.488-4.191-0.279-8.675-0.096-12.633
					c0.132-2.842,0.234-5.4,0.206-7.963c-0.115-8.213-1.382-16.326-2.611-24.167l-0.073-0.479
					c-0.533-3.438-1.087-6.973-1.525-10.457c-1.312-10.485-1.324-20.688-1.14-30.15L46.956,111.575z"/>
			</g>
			<g>
				<path fill="#EF7B00" d="M66.614,165.364c-0.106-2.413-0.221-4.837-0.386-7.335c-0.43-6.809-2.123-13.416-3.799-19.939
					c-0.845-3.285-1.596-6.245-2.213-9.2c-0.264-1.221-0.411-2.525-0.575-3.917c-0.332-2.836-0.709-6.054-2.099-8.799l-0.537-1.059
					l-4.193,2.158l0.537,1.048c0.992,1.939,1.304,4.572,1.611,7.116l0.036,0.319c0.169,1.374,0.342,2.785,0.615,4.109
					c0.677,3.199,1.496,6.396,2.279,9.399c1.591,6.22,3.238,12.649,3.652,19.059c0.132,2.035,0.222,4.025,0.315,5.993l0.058,1.26
					c0.225,5.128,0.463,10.43,1.229,16.037c0.651,4.822,1.296,10.59,1.164,16.789l-0.023,1.184l4.696,0.082l0.025-1.172
					c0.144-6.533-0.525-12.521-1.206-17.52C67.078,175.64,66.848,170.649,66.614,165.364z"/>
			</g>
			<g>
				<path fill="#EF7B00" d="M79.271,138.525c0.418-5.187,0.845-10.551,0.697-15.805l-0.033-1.177l-4.697,0.133l0.033,1.177
					c0.135,5.133-0.304,10.581-0.692,15.383c-0.315,3.804-0.587,7.229-0.701,10.625c-0.274,9.106,0.065,18.196,0.394,26.99
					c0.144,3.908,0.295,7.956,0.386,11.952c0.11,4.736-0.058,9.703-0.201,14.089l-0.046,1.644c-0.049,1.615-0.105,3.232-0.131,4.85
					l-0.024,1.18l4.705,0.09l0.021-1.18c0.042-2.148,0.111-4.29,0.185-6.439c0.169-5.088,0.3-9.674,0.188-14.348
					c-0.086-3.737-0.221-7.509-0.355-11.184l-0.029-0.826c-0.328-8.675-0.66-17.643-0.381-26.667
					C78.693,145.56,78.998,141.875,79.271,138.525z"/>
			</g>
			<g>
				<path fill="#EF7B00" d="M93.233,139.128l0.065-0.633c0.599-5.911,1.279-12.61-0.553-17.445l-0.419-1.103l-4.397,1.675l0.418,1.1
					c1.438,3.79,0.79,10.176,0.27,15.304c-0.258,2.589-0.467,4.718-0.504,6.591l-0.782,37.474c-0.025,1.553-0.169,3.269-0.341,5.34
					c-0.405,4.762-0.869,10.158,0.447,14.518l0.34,1.125l4.501-1.346l-0.34-1.129c-1.05-3.508-0.632-8.43-0.264-12.77
					c0.169-2.001,0.329-3.898,0.361-5.648l0.783-37.473C92.848,143.123,93.036,141.182,93.233,139.128z"/>
			</g>
			<g>
				<path fill="#EF7B00" d="M111.986,134.127c0.226-4.188,0.508-9.405-1.82-13.125l-0.623-1l-3.988,2.497l0.623,1
					c1.525,2.443,1.304,6.808,1.115,10.371c-0.05,0.819-0.091,1.623-0.11,2.332c-0.173,6.276-0.583,12.668-0.98,18.852l-0.057,0.865
					c-0.402,6.325-0.824,12.871-1.009,19.349c-0.115,4.387-0.615,8.847-1.054,12.779c-0.479,4.395-0.979,8.939-1.081,13.494
					l-0.025,1.176l4.697,0.111l0.029-1.177c0.105-4.439,0.614-9.034,1.061-13.088c0.472-4.276,0.956-8.698,1.078-13.173
					c0.164-5.98,0.545-12.081,0.922-17.979l0.096-1.492c0.438-6.603,0.848-13.07,1.02-19.581
					C111.896,135.702,111.938,135.015,111.986,134.127z"/>
			</g>
			<g>
				<path fill="#EF7B00" d="M126.238,136.872c-0.324-5.407-0.664-10.996-0.373-16.311l0.062-1.174l-4.686-0.262l-0.07,1.176
					c-0.311,5.536,0.029,11.211,0.361,16.697l0.021,0.31c0.254,4.25,0.516,8.645,0.487,12.858
					c-0.078,9.616,0.234,19.229,0.537,28.523l0.061,1.756c0.07,2.14,0.144,4.291,0.201,6.453c0.156,4.992,0.386,9.832,0.578,13.5
					l0.065,1.173l4.698-0.237l-0.062-1.176c-0.192-3.641-0.422-8.455-0.57-13.404l-0.274-8.288
					c-0.3-9.228-0.611-18.763-0.533-28.256C126.779,145.844,126.513,141.386,126.238,136.872z"/>
			</g>
			<g>
				<path fill="#EF7B00" d="M141.823,189.239c0.368-2.391,0.708-4.648,0.795-6.543c0.394-9.297,0.668-19.099,0.885-26.975
					l0.017-0.459c0.312-11.252,0.64-22.889,1.242-34.309l0.062-1.174l-4.685-0.256l-0.066,1.177
					c-0.619,11.573-0.951,23.337-1.274,34.891c-0.23,8.29-0.488,17.689-0.882,26.901c-0.078,1.701-0.434,4.018-0.754,6.076
					c-0.779,5.107-1.66,10.895-0.188,14.805l0.414,1.107l4.395-1.664l-0.411-1.104C140.327,198.94,141.158,193.571,141.823,189.239z
					"/>
			</g>
			<g>
				<path fill="#EF7B00" d="M159.551,114.489l-0.094,1.176c-0.984,12.486-2.615,24.996-4.85,37.182
					c-1.041,5.624-2.66,11.157-4.226,16.51c-2.337,7.948-4.747,16.168-5.346,25.004c-0.144,2.189,0.009,4.378,0.147,6.338
					c0.168,2.482,0.328,4.83-0.016,7.025l-0.182,1.164l4.648,0.729l0.182-1.164c0.43-2.733,0.236-5.465,0.041-8.295
					c-0.123-1.834-0.246-3.73-0.123-5.473c0.561-8.363,2.901-16.314,5.193-24.106c1.59-5.436,3.229-11.055,4.3-16.877
					c2.278-12.39,3.931-25.063,4.915-37.666l0.094-1.172L159.551,114.489z"/>
			</g>
		</g>
	</g>
	<g>
		<g>
			<path fill="#73423C" d="M101.398,45.945l-0.016-0.147c0,0-82.805-4.48-80.473,59.218c0,0,5.219,8.468,21.504,15.765
				c37.092,16.64,102.471,6.993,114.837,2.144c15.527-6.075,20.659-14.146,20.659-14.146
				C183.16,48.981,109.99,46.079,101.398,45.945z"/>
		</g>
	</g>
	<g>
		<g>
			<path fill="#00AA5D" d="M170.855,66.399c-10.214-11.637-26.385-18.234-38.149-21.729c-12.87-3.816-46.245-3.935-57.864-1.916
				c-5.727,1-11.875,2.476-17.918,4.665C33.486,55.89,20.369,71.97,18.979,93.92c-0.041,0.64,0.177,1.255,0.595,1.722
				c7.46,8.268,18.04,10.542,30.718,6.423c3.484,3.783,14.896,14.713,30.71,15.048c9.387,0.19,18.609-3.423,27.418-10.748
				c3.5,2.292,12.416,7.393,22.549,7.598c8.088,0.174,15.08-2.775,20.807-8.774c1.504,0.24,4.181,0.57,7.386,0.639
				c6.447,0.135,15.298-0.854,20.896-6.327c0.386-0.383,0.628-0.887,0.688-1.429C182.059,86.03,178.734,75.372,170.855,66.399z"/>
		</g>
	</g>
	<g>
		<g>
			<path fill="#FFFFFF" d="M180.632,87.292c-0.131-0.955-0.312-1.908-0.512-2.844c-4.469,5.048-12.325,8.148-18.323,9.343
				c-2.746,0.545-5.354,0.769-7.587,0.662c0.808-2.988-0.771-6.979-2.095-9.014c-2.353-3.611-4.66-3.833-5.816-3.634
				c-1.624,0.277-2.914,1.627-3.387,3.535c-0.605,2.448,0.104,6.378,4.096,9.437c0.968,0.742,2.283,1.287,3.865,1.635
				c-1.922,3.706-4.988,6.375-9.169,7.934c-9.548,3.575-23.295,0.617-31.365-3.967c-2.275-1.295-4.386-2.581-6.046-4.102
				c2.065-2.084,3.106-4.4,3.057-6.855c-0.094-4.306-2.508-6.523-4.91-6.466c-2.017,0.045-4.168,1.868-4.09,5.788
				c0.061,3.009,1.016,5.365,2.544,7.327c-4.004,2.982-10.038,4.896-13.858,5.228c-8.312,0.713-31.447-2.666-38.588-12.475
				c-0.646-0.904-1.131-1.814-1.472-2.769c1.951-1.365,3.715-3.312,4.752-5.104c1.126-1.935,2.196-5.513,0.286-6.857
				c-1.263-0.878-2.377-0.824-3.094-0.619c-2.083,0.601-3.264,3.058-3.579,3.8c-1.132,2.689-1.484,5.257-1.069,7.69
				c-0.566,0.283-1.096,0.473-1.587,0.553c-3.263,0.549-8.87,0.498-14.052-0.851c-2.472-0.64-5.312-1.703-7.346-3.425
				c-0.245,0.812-0.487,1.625-0.696,2.458c6.174,4.503,17.298,4.997,22.479,4.132c0.602-0.102,1.225-0.301,1.848-0.576
				c0.401,1.009,0.955,1.988,1.64,2.945c8.026,11.041,32.67,14.131,40.683,13.437c3.058-0.264,8.055-1.572,12.285-3.885
				c1.115-0.607,2.106-1.252,2.988-1.922c1.877,1.756,4.221,3.201,6.665,4.588c5.66,3.218,13.985,5.669,21.941,5.829
				c4.037,0.086,7.969-0.412,11.407-1.705c5.018-1.875,8.638-5.163,10.788-9.78c2.591,0.197,5.638-0.017,8.945-0.67
				C168.375,94.869,175.729,91.983,180.632,87.292z M46.46,83.505c-0.095-1.679,0.249-3.447,1.044-5.32
				c0.357-0.849,1.201-2.208,2.059-2.458c0.082-0.022,0.172-0.033,0.287-0.031c0.205,0,0.467,0.073,0.787,0.297
				c0.246,0.338,0.028,2.125-0.939,3.785C48.906,81.131,47.73,82.468,46.46,83.505z M100.701,88.696
				c-0.049-2.313,0.865-3.371,1.792-3.396c0.021,0.002,0.037,0.004,0.053,0.004c1.164,0.027,2.402,1.476,2.455,4.158
				c0.037,1.857-0.86,3.56-2.315,5.059C101.48,92.924,100.742,91.043,100.701,88.696z M151.886,94.062
				c-0.021,0.043-0.036,0.097-0.058,0.14c-1.442-0.256-2.603-0.679-3.397-1.291c-3.091-2.359-3.678-5.249-3.243-7.001
				c0.251-0.99,0.824-1.667,1.496-1.785c0.087-0.016,0.169-0.021,0.263-0.021c0.959,0.021,2.128,0.976,3.197,2.62
				C151.488,88.792,152.546,92.197,151.886,94.062z"/>
		</g>
	</g>
	<g>
		<g>
			<path fill="#00AA5D" d="M126.525,8.208c-15.52-2.681-17.089,11.772-17.249,14.394l-0.212,0.184c0,0,0.068,0.013,0.203,0.025
				c-0.004,0.131-0.007,0.197-0.007,0.197l0.204-0.168c2.615,0.276,17.126,1.113,17.052-14.621L126.525,8.208z"/>
		</g>
	</g>
	<g>
		<g>
			<path fill="#DD0422" d="M121.221,39.838c-0.262,11.154-9.518,19.971-20.667,19.7c-11.142-0.271-19.966-9.524-19.7-20.663
				c0.275-11.149,9.522-19.966,20.672-19.704C112.671,19.444,121.487,28.697,121.221,39.838z"/>
		</g>
	</g>
</g>
</svg>
