<?xml version="1.0" encoding="utf-8"?>
<!-- Generator: Adobe Illustrator 16.0.0, SVG Export Plug-In . SVG Version: 6.00 Build 0)  -->
<!DOCTYPE svg PUBLIC "-//W3C//DTD SVG 1.1//EN" "http://www.w3.org/Graphics/SVG/1.1/DTD/svg11.dtd">
<svg version="1.1" id="Capa_1" xmlns="http://www.w3.org/2000/svg" xmlns:xlink="http://www.w3.org/1999/xlink" x="0px" y="0px"
	 width="200px" height="200px" viewBox="0 0 200 200" enable-background="new 0 0 200 200" xml:space="preserve">
<g>
	<g>
		<path fill="#FFED00" d="M99.4,62.165c0,0,24.745-17.539,1.317-55.918C100.718,6.246,70.72,44.041,99.4,62.165z"/>
	</g>
	<g>
		<path fill="#FFFFFF" d="M75.865,58.515c-0.715,0.529-1.215,1.117-1.465,1.762c-0.532,1.369,1.679,3.614,1.854,4.969
			c0.353,2.723-0.281,5.302-0.639,8.024c-0.902,6.932-1.626,13.876-2.14,20.848c-1.036,13.943-1.362,27.926-1.675,41.9
			c-0.26,11.511-0.416,23.084,0.357,34.582c0.357,5.346,0.021,14.51,3.868,18.867c0,0,30.498,9.641,44.979,0
			c5.311-3.538,5.659-14.31,6.262-19.828c1.34-12.286,1.26-24.756,0.965-37.093c-0.321-13.307-0.897-26.707-2.26-39.95
			c-0.554-5.398-2.582-10.419-3.163-15.734c-0.598-5.467,3.002-13.871-1.809-18.146C115.404,53.747,83.512,52.847,75.865,58.515z"/>
	</g>
	<g>
		<g>
			<path fill="#EBEDED" d="M82.891,70.831c-1.114,0-2.141-0.73-2.466-1.854c-0.226-0.779-0.297-1.559-0.358-2.246
				c-0.038-0.414-0.093-1.023-0.178-1.271c-0.938-0.982-0.951-2.538-0.008-3.536c0.975-1.031,2.6-1.078,3.632-0.103
				c1.386,1.309,1.55,3.122,1.67,4.446c0.043,0.479,0.088,0.975,0.176,1.279c0.396,1.363-0.39,2.788-1.752,3.182
				C83.367,70.798,83.127,70.831,82.891,70.831z"/>
		</g>
		<g>
			<path fill="#EBEDED" d="M97.369,90.27c-1.302,0-2.418-0.985-2.553-2.308c-0.161-1.587-0.388-3.17-0.626-4.846
				c-0.514-3.6-1.045-7.322-0.908-11.133c0.051-1.417,1.223-2.533,2.658-2.476c1.418,0.05,2.526,1.241,2.476,2.658
				c-0.119,3.355,0.378,6.847,0.86,10.225c0.235,1.652,0.479,3.361,0.651,5.05c0.144,1.411-0.884,2.672-2.295,2.816
				C97.544,90.265,97.456,90.27,97.369,90.27z"/>
		</g>
		<g>
			<path fill="#EBEDED" d="M113.003,80.74c-0.041,0-0.083-0.001-0.125-0.003c-1.416-0.068-2.511-1.271-2.442-2.688
				c0.037-0.786,0.164-1.559,0.287-2.306c0.11-0.675,0.296-1.806,0.202-2.155c-0.363-1.353,0.413-2.79,1.759-3.177
				c1.343-0.39,2.741,0.331,3.152,1.669c0.452,1.469,0.199,3.007-0.044,4.495c-0.104,0.631-0.201,1.228-0.226,1.719
				C115.501,79.669,114.365,80.74,113.003,80.74z"/>
		</g>
		<g>
			<path fill="#EBEDED" d="M107.471,66.446c-0.582,0-1.167-0.197-1.647-0.599c-1.089-0.911-1.231-2.531-0.321-3.619
				c0.17-0.211,0.509-1.052,0.548-1.9c0.065-1.417,1.259-2.517,2.685-2.447c1.416,0.065,2.513,1.268,2.447,2.685
				c-0.087,1.854-0.77,3.801-1.74,4.961C108.934,66.133,108.204,66.446,107.471,66.446z"/>
		</g>
		<g>
			<path fill="#EBEDED" d="M80.6,96.177c-1.418,0-2.568-1.15-2.568-2.569v-4.574c0-1.418,1.15-2.569,2.568-2.569
				s2.568,1.15,2.568,2.569v4.574C83.168,95.026,82.018,96.177,80.6,96.177z"/>
		</g>
		<g>
			<path fill="#EBEDED" d="M100.61,125.907c-1.058,0-2.047-0.658-2.421-1.711c-1.832-5.166-0.448-13.521,1.21-17.322
				c0.567-1.3,2.08-1.896,3.382-1.328c1.3,0.567,1.894,2.081,1.327,3.381c-1.307,2.996-2.334,10.006-1.077,13.552
				c0.475,1.337-0.225,2.805-1.562,3.279C101.186,125.859,100.896,125.907,100.61,125.907z"/>
		</g>
		<g>
			<path fill="#EBEDED" d="M114.901,109.899c-1.213,0-2.292-0.863-2.522-2.099c-0.273-1.471-0.773-3.403-1.05-4.218
				c-0.457-1.343,0.262-2.802,1.604-3.259c1.345-0.456,2.803,0.262,3.259,1.605c0.389,1.142,0.943,3.354,1.237,4.931
				c0.26,1.395-0.66,2.736-2.055,2.996C115.216,109.884,115.058,109.899,114.901,109.899z"/>
		</g>
		<g>
			<path fill="#EBEDED" d="M109.187,95.033c-1.419,0-2.569-1.15-2.569-2.569v-1.144c0-1.418,1.15-2.569,2.569-2.569
				s2.569,1.15,2.569,2.569v1.144C111.756,93.883,110.605,95.033,109.187,95.033z"/>
		</g>
		<g>
			<path fill="#EBEDED" d="M84.602,130.48c-0.002,0-0.004,0-0.007,0c-1.419-0.004-2.565-1.157-2.562-2.576
				c0.005-1.987,0.252-4.219,0.491-6.379c0.389-3.518,0.791-7.155,0.165-9.543c-0.36-1.372,0.461-2.776,1.833-3.136
				c1.371-0.356,2.776,0.461,3.137,1.833c0.867,3.309,0.411,7.428-0.028,11.411c-0.234,2.118-0.456,4.118-0.461,5.828
				C87.167,129.335,86.018,130.48,84.602,130.48z"/>
		</g>
		<g>
			<path fill="#EBEDED" d="M79.456,152.207c-1.419,0-2.569-1.15-2.569-2.569v-6.29c0-1.418,1.15-2.569,2.569-2.569
				s2.569,1.15,2.569,2.569v6.29C82.025,151.057,80.875,152.207,79.456,152.207z"/>
		</g>
		<g>
			<path fill="#EBEDED" d="M93.177,145.346c-1.383,0-2.523-1.098-2.566-2.489c-0.047-1.511,0.14-3.107,0.321-4.65
				c0.279-2.388,0.568-4.856-0.108-6.409c-0.566-1.3,0.027-2.814,1.327-3.381c1.302-0.566,2.815,0.027,3.382,1.328
				c1.232,2.825,0.844,6.138,0.501,9.061c-0.166,1.42-0.323,2.761-0.288,3.893c0.044,1.418-1.07,2.603-2.487,2.647
				C93.23,145.345,93.203,145.346,93.177,145.346z"/>
		</g>
		<g>
			<path fill="#EBEDED" d="M110.901,145.346c-0.002,0-0.005,0-0.008,0c-1.418-0.004-2.564-1.158-2.561-2.576
				c0.002-0.868-0.002-1.735-0.008-2.602c-0.021-3.938-0.042-8.009,0.612-12.09c0.224-1.4,1.539-2.36,2.943-2.129
				c1.4,0.225,2.354,1.542,2.129,2.943c-0.587,3.664-0.567,7.348-0.546,11.25c0.004,0.881,0.009,1.762,0.007,2.644
				C113.466,144.2,112.316,145.346,110.901,145.346z"/>
		</g>
		<g>
			<path fill="#EBEDED" d="M121.192,161.354c-1.378,0-2.518-1.092-2.566-2.479c-0.037-1.079-0.001-2.123,0.033-3.133
				c0.043-1.262,0.084-2.454-0.022-3.573c-0.135-1.412,0.9-2.667,2.312-2.801c1.42-0.13,2.667,0.901,2.801,2.313
				c0.139,1.45,0.091,2.867,0.044,4.237c-0.033,0.965-0.064,1.876-0.033,2.778c0.049,1.417-1.06,2.607-2.478,2.656
				C121.252,161.354,121.223,161.354,121.192,161.354z"/>
		</g>
		<g>
			<path fill="#EBEDED" d="M107.474,172.789c-0.938,0-1.843-0.517-2.295-1.412c-1.254-2.482-1.304-5.071-1.349-7.355
				c-0.031-1.61-0.062-3.13-0.5-4.394c-0.466-1.34,0.242-2.804,1.582-3.27c1.34-0.466,2.805,0.243,3.271,1.583
				c0.707,2.034,0.746,4.04,0.784,5.979c0.037,1.904,0.072,3.702,0.798,5.14c0.64,1.267,0.131,2.812-1.135,3.451
				C108.259,172.7,107.863,172.789,107.474,172.789z"/>
		</g>
		<g>
			<path fill="#EBEDED" d="M94.892,177.935c-1.356,0-2.491-1.062-2.562-2.433l-0.077-1.558c-0.172-3.623-0.367-7.728-1.491-10.86
				c-0.479-1.335,0.214-2.806,1.549-3.286c1.333-0.48,2.806,0.214,3.285,1.549c1.386,3.856,1.6,8.37,1.789,12.352l0.074,1.53
				c0.075,1.417-1.012,2.626-2.429,2.701C94.983,177.934,94.938,177.935,94.892,177.935z"/>
		</g>
		<g>
			<path fill="#EBEDED" d="M80.6,178.508c-0.286,0-0.577-0.048-0.862-0.149c-1.336-0.477-2.034-1.946-1.558-3.282
				c0.752-2.108,1.078-3.837,0.999-5.286c-0.078-1.417,1.007-2.628,2.424-2.706c1.421-0.066,2.628,1.008,2.706,2.424
				c0.116,2.143-0.305,4.528-1.289,7.292C82.645,177.852,81.655,178.508,80.6,178.508z"/>
		</g>
		<g>
			<path fill="#EBEDED" d="M116.048,188.798c-1.418,0-2.568-1.15-2.568-2.569v-2.287c0-1.418,1.15-2.569,2.568-2.569
				c1.419,0,2.569,1.15,2.569,2.569v2.287C118.617,187.648,117.467,188.798,116.048,188.798z"/>
		</g>
	</g>
</g>
</svg>
