<?xml version="1.0" encoding="utf-8"?>
<!-- Generator: Adobe Illustrator 16.0.0, SVG Export Plug-In . SVG Version: 6.00 Build 0)  -->
<!DOCTYPE svg PUBLIC "-//W3C//DTD SVG 1.1//EN" "http://www.w3.org/Graphics/SVG/1.1/DTD/svg11.dtd">
<svg version="1.1" id="Capa_1" xmlns="http://www.w3.org/2000/svg" xmlns:xlink="http://www.w3.org/1999/xlink" x="0px" y="0px"
	 width="200px" height="200px" viewBox="0 0 200 200" enable-background="new 0 0 200 200" xml:space="preserve">
<g>
	<g>
		<path fill="#FF749F" d="M133.747,48.666c-18.073-6.942-40.352-5.708-56.859-2.241c-2.875,0.874-5.694,1.933-8.423,3.175
			c-13.658,6.212-25.288,17.001-32.682,31.864c-1.535,3.17-2.831,6.494-3.902,9.925c-4.678,15.004-8.041,32.246-3.668,47.34
			c0.877,3.02,5.372,12.562,7.007,15.23c33.964,55.489,95.306,33.442,98.965,32.319c3.658-1.125,6.992-2.574,10.023-4.305
			c2.023-1.156,3.912-2.438,5.674-3.836c28.332-28.937,28.75-63.791,15.564-94.755C156.824,63.139,136.763,49.82,133.747,48.666z"/>
	</g>
	<g>
		<path fill="#87888A" d="M121.38,31.36c-0.576-2.315-3.053-3.636-6.439-4.335c-0.182-5.028-1.432-9.207-3.893-12.367
			C106.195,8.413,98.769,8.4,98.549,8.481c-3.762,0.068-8.689,2.28-10.817,12.404c-0.217,1.02-0.624,4.108-0.85,7.605
			c-2.109,0.377-3.416,0.652-3.416,0.652c-4.55,1.243-2.737,14.901-2.469,16.732c0.005,0.059,0.005,0.066,0.018,0.148
			c0.005,0.014,0.011,0.063,0.011,0.063l0.018,0.002c0.137,0.686,0.662,1.944,2.814,2.341c0,0,34.112,4.758,37.029-1.496
			c0.146-0.118,0.23-0.271,0.255-0.472C121.682,40.958,121.38,31.36,121.38,31.36z M112.054,31.082
			c1.275-0.333,2.545,0.432,2.873,1.688l0.212,0.693c0.192,0.587,0.413,1.251,0.502,2.069c0.184,1.848,0.138,3.818,0.062,5.674
			c-0.051,1.263-1.1,2.254-2.354,2.254c-0.032,0-0.07,0-0.104-0.002c-1.301-0.056-2.311-1.155-2.254-2.457
			c0.075-1.674,0.117-3.44-0.037-4.976c-0.034-0.312-0.15-0.674-0.292-1.089c-0.103-0.322-0.207-0.644-0.3-0.98
			C110.038,32.701,110.788,31.414,112.054,31.082z M95.261,15.463c0.959-1.271,2.034-1.875,3.377-1.897
			c-0.037,0.014,5.05-0.096,8.398,4.216c1.662,2.133,2.584,5.072,2.823,8.663c-5.782-0.265-12.611,0.446-17.895,1.221
			C92.297,23.062,93.194,18.183,95.261,15.463z M102.978,38.524c0.02,0.299,0.123,0.66,0.244,1.076
			c0.095,0.328,0.188,0.663,0.269,1.005c0.28,1.273-0.526,2.532-1.794,2.811c-0.17,0.036-0.343,0.054-0.508,0.054
			c-1.085,0-2.058-0.747-2.303-1.846l-0.188-0.704c-0.163-0.562-0.37-1.261-0.426-2.079c-0.113-1.723-0.02-3.51,0.146-5.668
			c0.099-1.294,1.141-2.281,2.531-2.167c1.295,0.101,2.264,1.235,2.165,2.531C102.964,35.498,102.885,37.095,102.978,38.524z
			 M85.74,35.366c0.113-1.092,1.019-1.924,2.188-1.773c1.091,0.115,1.884,1.094,1.771,2.188c-0.122,1.166-0.236,2.388-0.141,3.412
			c0.009,0.099,0.103,0.334,0.197,0.559c0.103,0.256,0.202,0.51,0.285,0.772c0.329,1.052-0.257,2.166-1.314,2.492
			c-0.192,0.059-0.395,0.089-0.587,0.089c-0.851,0-1.64-0.547-1.901-1.401c-0.349-0.888-0.579-1.442-0.645-2.138
			C85.468,38.168,85.595,36.726,85.74,35.366z"/>
	</g>
	<g>
		<path fill="#FFFFFF" d="M71.408,85.25c-2.442,0-5.182-0.82-8.268-2.888c-2.82-1.889-5.013-4.54-7.133-7.103
			c-2.125-2.57-4.132-4.997-6.365-6.131c-2.451-1.246-2.869-0.849-4.875,1.054c-1.781,1.689-4.477,4.24-8.976,3.797
			c-1.903-0.188-3.294-1.883-3.106-3.786s1.882-3.296,3.786-3.106c1.244,0.123,1.918-0.402,3.531-1.931
			c2.233-2.117,5.97-5.66,12.777-2.202c3.516,1.787,6.083,4.89,8.565,7.892c1.886,2.281,3.668,4.436,5.651,5.763
			c5.073,3.4,7.18,1.725,12.372-4.353c4.377-5.123,10.371-12.14,20.602-7.786c3.648,1.552,5.778,4.43,7.657,6.97
			c1.671,2.258,3.114,4.208,5.379,5.092c7.282,2.844,10.225,0.14,16.189-6.243l0.896-0.958c9.581-10.195,16.776-5.189,22.03-1.534
			c3.049,2.122,5.929,4.125,9.548,4.419c1.907,0.155,3.327,1.825,3.172,3.732c-0.155,1.906-1.832,3.332-3.732,3.171
			c-5.48-0.445-9.619-3.324-12.943-5.637c-5.333-3.711-7.541-5.246-13.027,0.592l-0.883,0.943
			c-5.803,6.212-11.802,12.635-23.768,7.967c-4.126-1.61-6.412-4.699-8.428-7.424c-1.549-2.094-2.888-3.902-4.801-4.716
			c-5.294-2.254-8.109,0.625-12.625,5.912C81.562,80.349,77.375,85.249,71.408,85.25z"/>
	</g>
	<g>
		<path fill="#FFFFFF" d="M94.252,117.121c-0.829,0-1.682-0.078-2.565-0.245c-4.833-0.913-7.565-5.318-9.975-9.204
			c-3.561-5.741-5.076-7.227-8.265-6.023c-1.977,0.747-3.375,2.671-4.994,4.898c-2.371,3.262-5.321,7.322-11.151,8.426
			c-5.608,1.065-10.972-1.908-15.095-8.365c-0.76-1.192-1.319-2.415-1.859-3.598c-1.148-2.514-1.874-3.963-3.438-4.522
			c-1.479-0.53-3.539-0.245-4.895,0.675c-0.203,0.175-0.723,0.963-1.034,1.434c-1.051,1.591-2.631,3.995-5.468,3.766
			c-1.906-0.155-3.326-1.826-3.171-3.732c0.114-1.391,1.033-2.522,2.263-2.972c0.188-0.259,0.423-0.614,0.598-0.879
			c0.766-1.16,1.634-2.474,2.928-3.35c3.189-2.162,7.55-2.737,11.112-1.463c4.393,1.571,6.063,5.228,7.406,8.166
			c0.462,1.011,0.898,1.966,1.397,2.75c1.766,2.765,4.583,5.923,7.968,5.287c2.979-0.564,4.539-2.531,6.837-5.693
			c1.985-2.731,4.234-5.827,8.148-7.305c9-3.399,13.573,3.973,16.599,8.852c1.738,2.803,3.536,5.701,5.375,6.048
			c4.938,0.94,8.951-3.988,13.318-10.023c0.352-0.486,0.692-0.958,1.024-1.407c2.205-2.993,7.367-9.997,14.448-5.435
			c3.08,1.987,4.685,5.09,6.102,7.829c1.094,2.115,2.127,4.113,3.604,5.143c2.753,1.919,6.605,0.433,11.443-4.415
			c0.734-0.736,1.51-1.539,2.321-2.379c6.358-6.581,14.271-14.768,23.053-14.129c4.307,0.315,8.11,2.733,11.305,7.187
			c1.115,1.554,0.758,3.718-0.795,4.833c-1.555,1.115-3.719,0.759-4.833-0.795c-1.968-2.744-3.99-4.156-6.182-4.316
			c-5.544-0.416-12.496,6.784-17.567,12.033c-0.837,0.867-1.639,1.696-2.398,2.458c-9.416,9.438-16.239,8.041-20.308,5.206
			c-2.881-2.01-4.429-5.002-5.794-7.642c-1.119-2.162-2.175-4.204-3.704-5.189c-0.996-0.643-1.78-0.809-5.119,3.721
			c-0.319,0.434-0.648,0.89-0.988,1.359C108.082,109.388,102.485,117.12,94.252,117.121z"/>
	</g>
	<g>
		<path fill="#FFFFFF" d="M86.814,160.332c-6.418,0-7.971-5.102-8.918-8.211c-0.154-0.503-0.31-1.02-0.486-1.536
			c-1.355-3.958-5.104-10.157-8.617-11.5c-0.906-0.347-1.643-0.297-2.464,0.163c-1.229,0.688-2.033,2.349-2.965,4.271
			c-1.627,3.357-4.087,8.431-10.935,8.598c-6.321,0.154-10.585-5.759-12.017-11.694c-0.19-0.781-0.365-1.594-0.54-2.412
			c-1.49-6.966-2.425-8.08-6.239-7.451c-1.526,0.433-5.895,5.302-7.131,7.271c-0.617,1.749-2.514,2.709-4.299,2.149
			c-1.531-0.479-2.546-1.979-2.434-3.58c0.179-2.559,7.885-11.874,12.737-12.674c11-1.812,12.967,7.355,14.139,12.835
			c0.162,0.754,0.321,1.504,0.498,2.23c0.754,3.125,2.963,6.468,5.115,6.401c2.425-0.059,3.177-1.196,4.874-4.695
			c1.259-2.596,2.686-5.539,5.812-7.292c2.618-1.467,5.495-1.67,8.323-0.59c6.9,2.638,11.505,12.247,12.696,15.727
			c0.203,0.593,0.384,1.184,0.559,1.761c1.042,3.418,1.174,3.41,2.78,3.283c3.717-0.29,6.425-4.56,9.293-9.08
			c3.803-5.997,9.014-14.211,18.635-10.348c5.603,2.25,7.447,6.994,8.928,10.806c1.005,2.586,1.874,4.819,3.648,5.915
			c1.089,0.671,1.983,0.913,2.66,0.714c2.083-0.612,4.192-5.021,5.588-7.938c0.618-1.292,1.202-2.512,1.814-3.58
			c4.132-7.189,9.809-8.716,13.884-8.716c0.038,0,0.074,0,0.112,0c10.845,0.074,21.489,10.466,25.584,17.821
			c0.93,1.671,0.33,3.78-1.341,4.71c-1.672,0.93-3.779,0.33-4.71-1.341c-3.735-6.709-12.694-14.217-19.58-14.264
			c-3.272,0.001-5.902,1.691-7.942,5.24c-0.483,0.841-1.013,1.948-1.573,3.12c-2.155,4.504-4.838,10.109-9.881,11.592
			c-2.639,0.776-5.415,0.284-8.25-1.464c-3.752-2.315-5.194-6.026-6.467-9.3c-1.388-3.569-2.374-5.812-5.054-6.888
			c-3.688-1.48-5.685,0.503-10.207,7.63c-3.484,5.491-7.432,11.715-14.603,12.275C87.485,160.318,87.143,160.332,86.814,160.332z"/>
	</g>
	<g>
		<path fill="#FFFFFF" d="M104.203,190.657c-1.16,0-2.55-0.292-4.075-1.198c-3.457-2.053-4.605-5.64-5.528-8.522
			c-0.606-1.894-1.18-3.682-2.193-4.519c-0.8-0.663-1.664-0.94-2.642-0.844c-1.43,0.138-3.02,1.081-4.15,2.46
			c-0.507,0.617-1.058,1.872-1.591,3.085c-1.523,3.467-3.822,8.696-9.767,8.696c-0.034,0-0.066,0-0.101,0
			c-3.946-0.044-7.37-3.065-9.644-8.509c-0.277-0.66-0.545-1.36-0.817-2.072c-1.75-4.581-2.684-6.06-4.879-6.068
			c-1.687,0.024-2.289,0.259-2.666,4.711l-0.067,0.759c-0.18,1.904-1.861,3.302-3.775,3.12c-1.903-0.181-3.301-1.871-3.119-3.775
			l0.06-0.687c0.253-2.99,0.925-10.932,9.468-11.052c0.062-0.001,0.124-0.001,0.184-0.001c7.246,0,9.661,6.325,11.265,10.523
			c0.244,0.639,0.484,1.269,0.735,1.867c1.223,2.928,2.682,4.252,3.328,4.259c0.006,0,0.012,0,0.017,0
			c1.235,0,2.027-1.348,3.438-4.557c0.721-1.641,1.467-3.338,2.575-4.69c2.324-2.835,5.546-4.645,8.84-4.963
			c2.824-0.274,5.495,0.557,7.722,2.4c2.576,2.128,3.532,5.112,4.375,7.744c0.791,2.469,1.352,4.016,2.47,4.681
			c0.363,0.216,0.533,0.228,0.534,0.228c0.828-0.253,2.338-3.242,2.906-4.367c0.189-0.374,0.371-0.733,0.546-1.068
			c2.283-4.351,5.976-9.413,14.341-9.943c10.99-0.676,19.556,9.672,23.685,15.914c1.055,1.595,0.618,3.744-0.978,4.799
			c-1.595,1.055-3.743,0.616-4.799-0.978c-2.658-4.019-9.675-13.308-17.471-12.823c-4.098,0.259-6.36,1.895-8.645,6.249
			c-0.16,0.305-0.325,0.632-0.497,0.973c-1.451,2.873-3.438,6.807-7.182,7.898C105.582,190.54,104.939,190.657,104.203,190.657z"/>
	</g>
</g>
</svg>
