<?xml version="1.0" encoding="utf-8"?>
<!-- Generator: Adobe Illustrator 16.0.0, SVG Export Plug-In . SVG Version: 6.00 Build 0)  -->
<!DOCTYPE svg PUBLIC "-//W3C//DTD SVG 1.1//EN" "http://www.w3.org/Graphics/SVG/1.1/DTD/svg11.dtd">
<svg version="1.1" id="Capa_1" xmlns="http://www.w3.org/2000/svg" xmlns:xlink="http://www.w3.org/1999/xlink" x="0px" y="0px"
	 width="200px" height="200px" viewBox="0 0 200 200" enable-background="new 0 0 200 200" xml:space="preserve">
<g>
	<g>
		<g>
			<path fill="#EE1A13" d="M37.762,182.788c-2.463,0.167-5.002-0.176-7.465-1.107c-9.15-3.458-13.773-13.687-10.316-22.845
				c4.732-12.517,47.834-122.774,104.834-139.415c16.85-4.916,33.574-1.742,48.428,9.186c3.822,2.603,18.797,13.93,21.646,33.403
				c1.463,9.984,0.064,25.502-14.887,42.744c-6.408,7.401-17.605,8.193-24.998,1.78c-7.4-6.414-8.197-17.608-1.781-25.005
				c3.355-3.868,7.229-9.482,6.607-14.25c-0.566-4.393-5.01-8.328-6.521-9.358c-0.377-0.241-0.52-0.349-0.877-0.617
				c-7.693-5.747-13.484-5.081-17.682-3.854c-9.113,2.662-28.367,14.188-54.934,61.488c-16.189,28.835-26.572,56.151-26.674,56.425
				C50.613,178.058,44.465,182.329,37.762,182.788z"/>
		</g>
	</g>
	<g>
		<defs>
			<path id="SVGID_3_" d="M37.762,182.787c-2.463,0.167-5.002-0.177-7.465-1.108c-9.15-3.458-13.773-13.688-10.316-22.843
				C24.713,146.316,67.814,36.06,124.814,19.42c16.85-4.916,33.574-1.743,48.428,9.185c3.818,2.601,18.797,13.93,21.646,33.403
				c1.463,9.984,0.064,25.502-14.887,42.744c-6.408,7.401-17.605,8.193-24.998,1.781c-7.4-6.415-8.197-17.609-1.781-25.004
				c3.355-3.87,7.229-9.485,6.607-14.251c-0.566-4.393-5.01-8.328-6.521-9.358c-0.377-0.241-0.52-0.349-0.877-0.618
				c-7.693-5.747-13.484-5.079-17.682-3.854c-9.113,2.662-28.367,14.188-54.934,61.488c-16.189,28.835-26.572,56.151-26.674,56.425
				C50.613,178.056,44.465,182.327,37.762,182.787z"/>
		</defs>
		<clipPath id="SVGID_2_">
			<use xlink:href="#SVGID_3_"  overflow="visible"/>
		</clipPath>
		<g clip-path="url(#SVGID_2_)">
			<g>
				<path fill="#FFFFFF" d="M64.73,173.235c-0.297,0-0.598-0.023-0.898-0.071c-11.086-1.764-20.918-6.403-30.428-10.89
					c-5.557-2.622-10.807-5.099-16.162-6.959c-2.959-1.028-4.525-4.26-3.498-7.219s4.262-4.523,7.219-3.497
					c5.93,2.06,11.701,4.783,17.283,7.416c9.193,4.338,17.877,8.436,27.369,9.946c3.094,0.492,5.201,3.399,4.709,6.493
					C69.881,171.245,67.471,173.235,64.73,173.235z"/>
			</g>
			<g>
				<path fill="#FFFFFF" d="M67.299,152.753c-1.615,0-3.223-0.688-4.344-2.023c-1.27-1.512-3.08-2.52-5.977-3.852
					c-7.881-3.625-14.877-8.672-21.645-13.553c-2.424-1.749-4.93-3.558-7.396-5.236c-2.588-1.764-3.258-5.292-1.494-7.881
					c1.762-2.59,5.289-3.258,7.879-1.496c2.594,1.766,5.164,3.621,7.65,5.414c6.617,4.773,12.867,9.283,19.746,12.447
					c3.428,1.577,7.018,3.405,9.92,6.86c2.018,2.398,1.705,5.977-0.693,7.992C69.883,152.317,68.588,152.753,67.299,152.753z"/>
			</g>
			<g>
				<path fill="#FFFFFF" d="M79.732,125.723c-0.918,0-1.969-0.226-3.154-0.811c-0.369-0.182-0.834-0.431-1.248-0.652
					c-0.191-0.103-0.365-0.198-0.494-0.263c-4.578-1.97-8.686-4.391-12.104-6.503c-4.129-2.554-8.422-4.768-12.965-7.111
					c-4.453-2.297-9.061-4.673-13.467-7.386c-2.668-1.642-3.498-5.136-1.855-7.803c1.639-2.668,5.133-3.5,7.803-1.857
					c4.043,2.488,8.258,4.662,12.719,6.964c4.537,2.34,9.229,4.76,13.729,7.544c3.244,2.003,6.789,4.09,10.713,5.769
					c0.154,0.065,0.475,0.224,0.865,0.427c0.885,0.161,1.744,0.537,2.5,1.14c3.57,2.85,2.709,6.361,1.637,7.987
					C84.193,123.497,82.617,125.723,79.732,125.723z"/>
			</g>
			<g>
				<path fill="#FFFFFF" d="M86.613,110.474c-2.186,0-4.27-1.271-5.201-3.402c-0.541-1.241-3.545-5.187-5.158-7.307
					c-0.936-1.229-1.811-2.382-2.494-3.327c-1.594-2.208-3.174-4.532-4.699-6.78c-3.758-5.537-7.645-11.262-12.02-15.602
					c-2.223-2.207-2.236-5.798-0.029-8.021c2.205-2.224,5.797-2.237,8.021-0.031c5.152,5.114,9.352,11.3,13.414,17.283
					c1.549,2.281,3.012,4.436,4.508,6.509c0.635,0.88,1.455,1.953,2.326,3.099c3.285,4.318,5.516,7.32,6.527,9.635
					c1.254,2.871-0.057,6.214-2.928,7.468C88.143,110.321,87.371,110.474,86.613,110.474z"/>
			</g>
			<g>
				<path fill="#FFFFFF" d="M106.943,90.328c-1.369,0-2.744-0.494-3.832-1.494c-1.049-0.961-1.652-2.227-1.801-3.537
					c-1.365-1.783-5.58-6.196-14.957-14.291C78.816,64.5,71.711,58.856,70.6,58.111c-2.59-1.738-3.314-5.258-1.59-7.859
					c1.725-2.601,5.205-3.335,7.816-1.624c1.744,1.145,10.314,8.022,18.121,14.816c17.119,14.896,17.471,17.723,17.754,19.995
					c0.232,1.867-0.344,3.709-1.576,5.054C110.006,89.71,108.479,90.328,106.943,90.328z"/>
			</g>
			<g>
				<path fill="#FFFFFF" d="M120.607,73.601c-2.492,0-4.775-1.652-5.467-4.169c-3.709-13.49-10.785-26.282-19.414-35.097
					c-2.191-2.238-2.152-5.83,0.086-8.021c2.24-2.19,5.83-2.152,8.021,0.086c10.08,10.297,17.979,24.511,22.244,40.024
					c0.83,3.02-0.943,6.142-3.965,6.973C121.609,73.535,121.104,73.601,120.607,73.601z"/>
			</g>
			<g>
				<path fill="#FFFFFF" d="M141.395,62.485c-2.373,0-4.586-1.5-5.379-3.875c-4.711-14.09-3.412-29.686-2.266-43.444
					c0.26-3.123,3.002-5.446,6.123-5.182c3.123,0.26,5.441,3.001,5.182,6.123c-1.055,12.669-2.252,27.029,1.721,38.906
					c0.992,2.971-0.611,6.185-3.582,7.178C142.598,62.39,141.99,62.485,141.395,62.485z"/>
			</g>
			<g>
				<path fill="#FFFFFF" d="M155.352,69.703c-1,0-2.012-0.265-2.93-0.821c-2.682-1.622-3.539-5.109-1.916-7.789
					c5.789-9.563,14.967-16.718,22.316-21.882c0.658-0.463,16.26-11.319,23.531-5.532c2.449,1.951,2.855,5.52,0.904,7.97
					c-1.639,2.056-4.416,2.671-6.715,1.663c-2.346,0.324-8.361,3.183-11.197,5.178c-6.443,4.528-14.439,10.719-19.135,18.477
					C159.145,68.729,157.271,69.703,155.352,69.703z"/>
			</g>
			<g>
				<path fill="#FFFFFF" d="M193.539,94.495c-0.645,0-1.297-0.11-1.936-0.342c-1.943-0.706-3.949-1.934-6.074-3.234
					c-2.258-1.381-4.816-2.948-6.795-3.514c-4.752-1.36-10.123-2.252-15.318-3.115c-1.771-0.294-3.527-0.586-5.248-0.894
					l-0.611-0.11c-1.617-0.294-2.895-0.528-3.988-0.372c-3.098,0.433-5.971-1.724-6.406-4.826c-0.438-3.102,1.723-5.971,4.824-6.407
					c2.908-0.411,5.398,0.044,7.6,0.444l0.574,0.104c1.676,0.299,3.389,0.583,5.113,0.87c5.51,0.915,11.207,1.861,16.582,3.4
					c3.463,0.991,6.721,2.985,9.596,4.745c1.479,0.905,3.156,1.931,4.023,2.246c2.943,1.069,4.465,4.322,3.395,7.267
					C198.033,93.063,195.857,94.495,193.539,94.495z"/>
			</g>
			<g>
				<path fill="#FFFFFF" d="M181.07,114.104c-1.344,0-2.691-0.475-3.773-1.439c-7.32-6.527-21.5-12.287-31.578-14.877
					c-3.033-0.78-4.861-3.872-4.08-6.906c0.779-3.034,3.875-4.86,6.904-4.082c10.885,2.798,26.922,9.033,36.305,17.398
					c2.338,2.084,2.543,5.67,0.459,8.008C184.186,113.463,182.631,114.104,181.07,114.104z"/>
			</g>
		</g>
	</g>
	<g>
		<g>
			<path fill="#00AA5D" d="M5.014,102.746c1.873,4.349,6.574,10.046,18.332,12.055c0,0,12.863,3.341,16.75-2.375
				c0,0,4.264-4.568-14.752-16.276c-4.025-2.476-10.551-4.637-17.705-1.212C6.363,95.544,3.703,99.71,5.014,102.746z"/>
		</g>
		<g>
			<path fill="#00AA5D" d="M32.303,76.533c-2.928,3.724-5.688,10.572-1.842,21.865c0,0,3.213,12.895,10.09,13.578
				c0,0,6.053,1.566,7.256-20.735c0.25-4.715-0.967-11.485-7.398-16.136C39.273,74.281,34.34,73.928,32.303,76.533z"/>
		</g>
		<g>
			<g>
				<path fill="#880404" d="M41.289,131.076c-1.92-0.297-3.678-1.11-5.166-2.406c-1.576-1.058-2.959-2.4-4.064-3.976
					c-0.938-1.338-1.619-2.777-2.02-4.256c-1.453-2.921-2.008-5.666-1.662-8.203c0.447-3.304,2.432-6.103,5.887-8.322
					c0.641-0.412,1.283-0.791,1.93-1.131c0.193-0.221,0.395-0.43,0.604-0.632c0.697-0.669,1.621-1.36,2.809-1.862
					c2.281-1.496,4.766-2.181,7.396-1.387c2.727,0.837,5.277,2.622,7.311,5.036c1.748,1.69,3.164,3.935,4.201,6.676
					c1.688,4.437,0.811,9.57-2.064,13.411c-1.484,4.86-5.795,7.529-11.922,7.342c-0.637-0.019-1.266-0.076-1.883-0.17
					C42.188,131.184,41.736,131.144,41.289,131.076z M39.422,123.25c0.529,0.597,1.146,1.112,1.828,1.525
					c3.041,1.839,6.256,2,9.094,0.518c1.367-1.041,2.561-2.314,3.475-3.714c0.051-0.317,0.072-0.642,0.08-0.967
					c-0.758,0.796-1.719,1.55-2.934,2.217c-3.055,1.683-6.572,1.91-9.801,0.673C40.582,123.458,39.984,123.373,39.422,123.25z
					 M33.105,119.613c0.869,1.618,1.961,3.162,3.076,4.539c-0.674-0.96-1.217-2.012-1.631-3.112
					C34,120.605,33.52,120.13,33.105,119.613z M41.807,108.52c-1.539,0.438-2.463,1.3-2.756,2.56
					c-0.418,1.837,0.576,4.237,2.365,5.705c0.955,0.789,2.947,1.937,5.518,0.783c0.068-0.03,0.133-0.062,0.201-0.088l-0.086-0.111
					C45.02,114.586,43.268,111.622,41.807,108.52z M45.191,108.411c1.014,2.012,2.162,3.958,3.438,5.825
					c0.525-0.636,0.918-1.5,1.127-2.495C48.809,110.178,47.188,108.857,45.191,108.411z"/>
			</g>
		</g>
	</g>
</g>
</svg>
