<?xml version="1.0" encoding="utf-8"?>
<!-- Generator: Adobe Illustrator 16.0.0, SVG Export Plug-In . SVG Version: 6.00 Build 0)  -->
<!DOCTYPE svg PUBLIC "-//W3C//DTD SVG 1.1//EN" "http://www.w3.org/Graphics/SVG/1.1/DTD/svg11.dtd">
<svg version="1.1" id="Capa_1" xmlns="http://www.w3.org/2000/svg" xmlns:xlink="http://www.w3.org/1999/xlink" x="0px" y="0px"
	 width="200px" height="200px" viewBox="0 0 200 200" enable-background="new 0 0 200 200" xml:space="preserve">
<g>
	<g>
		<path fill="#3CA1A5" d="M133.746,48.667c-18.072-6.942-40.352-5.709-56.86-2.241c-2.875,0.874-5.692,1.933-8.422,3.175
			c-13.658,6.212-25.289,17.001-32.682,31.864c-1.535,3.17-2.831,6.493-3.903,9.925c-4.678,15.004-8.041,32.246-3.667,47.34
			c0.877,3.021,5.372,12.562,7.007,15.23c33.964,55.489,95.306,33.442,98.965,32.319c3.659-1.125,6.993-2.574,10.022-4.305
			c2.024-1.155,3.913-2.438,5.675-3.835c28.331-28.938,28.748-63.792,15.565-94.756C156.822,63.14,136.761,49.822,133.746,48.667z"
			/>
	</g>
	<g>
		<path fill="#87888A" d="M121.38,31.361c-0.578-2.316-3.054-3.636-6.44-4.335c-0.184-5.028-1.433-9.207-3.893-12.367
			c-4.853-6.245-12.278-6.257-12.5-6.177c-3.762,0.068-8.688,2.28-10.816,12.405c-0.217,1.02-0.624,4.107-0.851,7.604
			c-2.108,0.378-3.414,0.653-3.414,0.653c-4.552,1.242-2.738,14.901-2.471,16.732C81,45.935,81,45.942,81.015,46.024
			c0.003,0.014,0.01,0.063,0.01,0.063l0.018,0.002c0.137,0.686,0.662,1.945,2.812,2.341c0,0,34.114,4.758,37.031-1.496
			c0.146-0.118,0.23-0.27,0.255-0.472C121.681,40.959,121.38,31.361,121.38,31.361z M112.051,31.083
			c1.278-0.333,2.547,0.432,2.875,1.688l0.211,0.693c0.192,0.587,0.414,1.252,0.503,2.069c0.183,1.848,0.137,3.818,0.062,5.674
			c-0.052,1.263-1.1,2.254-2.354,2.254c-0.032,0-0.069,0-0.103-0.002c-1.302-0.057-2.312-1.156-2.255-2.457
			c0.074-1.674,0.117-3.439-0.038-4.977c-0.033-0.312-0.15-0.673-0.292-1.089c-0.103-0.322-0.205-0.643-0.3-0.979
			C110.036,32.702,110.787,31.414,112.051,31.083z M95.261,15.463c0.958-1.27,2.033-1.874,3.376-1.898
			c-0.037,0.015,5.05-0.096,8.398,4.216c1.662,2.134,2.583,5.073,2.823,8.664c-5.783-0.266-12.612,0.447-17.896,1.221
			C92.296,23.063,93.192,18.183,95.261,15.463z M102.978,38.525c0.018,0.298,0.122,0.66,0.243,1.076
			c0.095,0.329,0.188,0.662,0.269,1.005c0.281,1.273-0.527,2.531-1.795,2.811c-0.169,0.036-0.343,0.054-0.507,0.054
			c-1.085,0-2.058-0.747-2.302-1.846l-0.188-0.704c-0.164-0.562-0.371-1.262-0.427-2.079c-0.113-1.723-0.021-3.51,0.146-5.669
			c0.099-1.294,1.141-2.279,2.531-2.167c1.296,0.101,2.264,1.235,2.164,2.531C102.962,35.499,102.882,37.096,102.978,38.525z
			 M85.739,35.367c0.113-1.092,1.02-1.923,2.188-1.772c1.092,0.115,1.885,1.094,1.771,2.188c-0.122,1.166-0.234,2.389-0.141,3.413
			c0.009,0.098,0.104,0.333,0.198,0.559c0.103,0.256,0.2,0.509,0.286,0.772c0.328,1.052-0.259,2.166-1.316,2.491
			c-0.191,0.06-0.394,0.09-0.587,0.09c-0.85,0-1.64-0.547-1.901-1.401c-0.348-0.888-0.579-1.443-0.644-2.138
			C85.467,38.169,85.594,36.726,85.739,35.367z"/>
	</g>
	<g>
		<path fill="#FFFFFF" d="M65.946,73.898c0.404-0.779,0.1-1.741-0.671-2.144c-0.794-0.404-1.743-0.106-2.147,0.678
			c-0.306,0.583-1.301,1.156-2.564,1.656c0.159-1.656,0.249-3.106,0.211-3.839c-0.052-0.875-0.803-1.6-1.672-1.503
			c-0.878,0.043-1.555,0.794-1.502,1.67c0.027,0.542-0.01,1.349-0.081,2.245c-0.686-0.703-1.356-1.403-2.151-2.161
			c-0.633-0.608-1.644-0.585-2.244,0.047c-0.606,0.633-0.592,1.641,0.042,2.25c0.944,0.899,1.757,1.743,2.556,2.564
			c-1.419,0.214-2.748,0.293-3.654,0.131c-0.902-0.15-1.691,0.427-1.842,1.294c-0.155,0.862,0.422,1.687,1.287,1.839
			c0.427,0.077,0.963,0.113,1.577,0.113c1.066,0,2.377-0.125,3.744-0.357c-0.255,1.66-0.511,2.995-0.657,3.346
			c-0.526,0.707-0.376,1.703,0.333,2.224c0.282,0.211,0.615,0.312,0.944,0.312c0.488,0,0.969-0.221,1.277-0.644
			c0.396-0.526,0.795-2.209,1.141-4.232c0.897,0.785,1.842,1.566,2.959,2.339c0.278,0.196,0.593,0.287,0.908,0.287
			c0.502,0,0.995-0.239,1.306-0.681c0.503-0.721,0.328-1.712-0.4-2.217c-1.028-0.716-1.854-1.437-2.686-2.167
			C63.78,76.183,65.283,75.173,65.946,73.898z"/>
	</g>
	<g>
		<path fill="#FFFFFF" d="M108.511,162.101c0.6-1.162,0.145-2.594-1.006-3.198c-1.184-0.604-2.598-0.157-3.204,1.013
			c-0.455,0.869-1.939,1.724-3.822,2.471c0.235-2.471,0.37-4.636,0.313-5.728c-0.078-1.309-1.197-2.386-2.492-2.243
			c-1.311,0.063-2.321,1.184-2.246,2.492c0.042,0.808-0.014,2.015-0.117,3.349c-1.025-1.048-2.03-2.093-3.213-3.225
			c-0.944-0.906-2.452-0.872-3.35,0.07c-0.901,0.947-0.883,2.45,0.066,3.359c1.403,1.341,2.621,2.6,3.809,3.826
			c-2.113,0.318-4.101,0.438-5.448,0.193c-1.348-0.223-2.526,0.64-2.752,1.934c-0.23,1.285,0.634,2.516,1.92,2.742
			c0.641,0.115,1.438,0.17,2.358,0.17c1.588,0,3.546-0.186,5.584-0.533c-0.38,2.479-0.765,4.467-0.98,4.993
			c-0.785,1.054-0.559,2.54,0.498,3.317c0.418,0.315,0.916,0.468,1.409,0.468c0.728,0,1.441-0.331,1.906-0.96
			c0.587-0.787,1.185-3.298,1.7-6.315c1.339,1.17,2.748,2.337,4.415,3.49c0.413,0.291,0.884,0.427,1.354,0.427
			c0.751,0,1.489-0.357,1.948-1.017c0.752-1.075,0.49-2.553-0.596-3.307c-1.535-1.069-2.767-2.144-4.007-3.233
			C105.277,165.511,107.519,164.005,108.511,162.101z"/>
	</g>
	<g>
		<path fill="#FFFFFF" d="M154.132,156.977c0.402-0.78,0.098-1.74-0.673-2.144c-0.794-0.404-1.741-0.105-2.146,0.679
			c-0.306,0.582-1.302,1.156-2.564,1.656c0.159-1.656,0.248-3.107,0.211-3.84c-0.052-0.876-0.804-1.6-1.673-1.503
			c-0.878,0.042-1.554,0.793-1.503,1.669c0.028,0.542-0.009,1.35-0.079,2.245c-0.687-0.702-1.358-1.402-2.152-2.161
			c-0.634-0.608-1.644-0.585-2.244,0.047c-0.606,0.634-0.593,1.642,0.042,2.25c0.944,0.899,1.756,1.743,2.555,2.564
			c-1.418,0.214-2.748,0.294-3.654,0.131c-0.901-0.149-1.69,0.427-1.84,1.294c-0.156,0.862,0.422,1.686,1.286,1.838
			c0.428,0.078,0.963,0.113,1.578,0.113c1.066,0,2.377-0.125,3.743-0.357c-0.254,1.66-0.512,2.994-0.658,3.348
			c-0.525,0.706-0.375,1.701,0.334,2.223c0.282,0.212,0.615,0.312,0.944,0.312c0.489,0,0.968-0.221,1.278-0.643
			c0.395-0.527,0.793-2.211,1.141-4.232c0.897,0.784,1.842,1.566,2.959,2.34c0.276,0.193,0.593,0.285,0.908,0.285
			c0.501,0,0.995-0.239,1.304-0.682c0.503-0.721,0.329-1.711-0.397-2.216c-1.03-0.716-1.855-1.438-2.688-2.168
			C151.965,159.262,153.468,158.253,154.132,156.977z"/>
	</g>
	<g>
		<path fill="#FFFFFF" d="M161.054,114.996c0.361-0.69,0.09-1.543-0.596-1.902c-0.699-0.356-1.541-0.091-1.902,0.604
			c-0.268,0.517-1.15,1.024-2.272,1.468c0.14-1.468,0.22-2.755,0.187-3.406c-0.047-0.778-0.714-1.418-1.484-1.332
			c-0.774,0.036-1.376,0.703-1.328,1.48c0.022,0.481-0.011,1.197-0.076,1.991c-0.605-0.622-1.202-1.245-1.907-1.916
			c-0.559-0.541-1.455-0.519-1.991,0.042c-0.535,0.561-0.521,1.453,0.037,1.994c0.842,0.798,1.561,1.545,2.27,2.273
			c-1.259,0.19-2.438,0.261-3.24,0.117c-0.8-0.134-1.498,0.378-1.631,1.149c-0.141,0.763,0.371,1.493,1.137,1.63
			c0.381,0.067,0.855,0.101,1.4,0.101c0.949,0,2.108-0.11,3.32-0.317c-0.226,1.472-0.455,2.654-0.582,2.966
			c-0.465,0.627-0.333,1.51,0.295,1.973c0.25,0.188,0.545,0.277,0.837,0.277c0.432,0,0.859-0.195,1.132-0.571
			c0.352-0.468,0.705-1.958,1.014-3.753c0.795,0.695,1.631,1.39,2.627,2.074c0.243,0.174,0.521,0.256,0.798,0.256
			c0.45,0,0.883-0.214,1.16-0.606c0.446-0.638,0.291-1.517-0.353-1.965c-0.911-0.635-1.644-1.274-2.386-1.921
			C159.134,117.023,160.467,116.126,161.054,114.996z"/>
	</g>
	<g>
		<path fill="#FFFFFF" d="M128.274,99.081c1.132-2.184,0.277-4.871-1.88-6c-2.222-1.132-4.879-0.296-6.007,1.9
			c-0.85,1.632-3.64,3.233-7.172,4.631c0.441-4.631,0.695-8.694,0.587-10.742c-0.146-2.452-2.249-4.479-4.678-4.209
			c-2.456,0.117-4.35,2.222-4.209,4.673c0.075,1.515-0.028,3.781-0.226,6.28c-1.916-1.963-3.794-3.922-6.017-6.043
			c-1.77-1.702-4.603-1.636-6.285,0.129c-1.694,1.773-1.657,4.594,0.118,6.298c2.645,2.518,4.923,4.878,7.153,7.177
			c-3.964,0.597-7.684,0.822-10.225,0.369c-2.527-0.418-4.739,1.195-5.152,3.621c-0.433,2.413,1.179,4.716,3.602,5.146
			c1.189,0.216,2.687,0.314,4.415,0.314c2.982,0,6.646-0.351,10.475-0.999c-0.713,4.645-1.432,8.38-1.836,9.363
			c-1.47,1.98-1.057,4.77,0.93,6.224c0.794,0.591,1.729,0.876,2.64,0.876c1.366,0,2.711-0.616,3.579-1.799
			c1.099-1.473,2.222-6.186,3.188-11.846c2.514,2.198,5.153,4.385,8.287,6.545c0.771,0.547,1.652,0.808,2.535,0.808
			c1.414,0,2.79-0.671,3.659-1.909c1.405-2.02,0.911-4.791-1.113-6.208c-2.883-2.002-5.199-4.018-7.534-6.063
			C122.216,105.478,126.419,102.65,128.274,99.081z"/>
	</g>
	<g>
		<path fill="#FFFFFF" d="M52.518,142.086c0.583,1.259,2.081,1.801,3.326,1.226c1.272-0.604,1.812-2.078,1.221-3.337
			c-0.438-0.944-0.193-2.743,0.399-4.803c1.921,1.795,3.648,3.305,4.598,3.962c1.146,0.781,2.781,0.539,3.495-0.644
			c0.794-1.136,0.503-2.708-0.639-3.487c-0.705-0.488-1.683-1.312-2.733-2.263c1.539-0.179,3.062-0.349,4.776-0.609
			c1.371-0.207,2.315-1.493,2.104-2.854c-0.207-1.369-1.484-2.322-2.856-2.118c-2.033,0.317-3.874,0.519-5.668,0.73
			c1.099-1.982,2.277-3.722,3.353-4.702c1.062-0.981,1.099-2.527,0.16-3.548c-0.931-1.025-2.518-1.098-3.542-0.163
			c-0.507,0.458-1.065,1.094-1.663,1.864c-1.028,1.334-2.132,3.093-3.16,5.029c-1.827-1.922-3.25-3.525-3.552-4.05
			c-0.375-1.338-1.765-2.113-3.104-1.726c-0.536,0.15-0.981,0.47-1.296,0.878c-0.47,0.61-0.657,1.42-0.432,2.219
			c0.28,0.999,2.001,3.119,4.199,5.505c-1.851,0.366-3.734,0.793-5.782,1.446c-0.507,0.16-0.926,0.465-1.232,0.86
			c-0.483,0.626-0.661,1.477-0.407,2.29c0.418,1.322,1.826,2.058,3.156,1.638c1.893-0.597,3.588-0.938,5.303-1.274
			C51.742,137.175,51.56,140.028,52.518,142.086z"/>
	</g>
	<g>
		<path fill="#FFFFFF" d="M138.198,63.743c0.428-0.829,0.104-1.851-0.713-2.277c-0.846-0.43-1.855-0.113-2.278,0.72
			c-0.329,0.62-1.386,1.229-2.728,1.759c0.167-1.759,0.262-3.302,0.22-4.08c-0.053-0.93-0.851-1.7-1.775-1.597
			c-0.931,0.042-1.649,0.844-1.597,1.773c0.027,0.575-0.01,1.436-0.085,2.387c-0.724-0.748-1.438-1.489-2.282-2.295
			c-0.677-0.648-1.749-0.622-2.387,0.05c-0.648,0.672-0.629,1.743,0.042,2.391c1.006,0.957,1.869,1.851,2.72,2.724
			c-1.508,0.229-2.922,0.312-3.885,0.142c-0.958-0.16-1.798,0.453-1.959,1.373c-0.163,0.916,0.452,1.792,1.373,1.954
			c0.451,0.083,1.018,0.12,1.671,0.12c1.137,0,2.528-0.131,3.983-0.378c-0.272,1.764-0.545,3.18-0.7,3.555
			c-0.558,0.75-0.403,1.809,0.354,2.363c0.301,0.223,0.656,0.332,1.005,0.332c0.517,0,1.023-0.235,1.356-0.684
			c0.419-0.56,0.841-2.349,1.208-4.497c0.958,0.834,1.958,1.665,3.146,2.486c0.297,0.207,0.632,0.306,0.965,0.306
			c0.535,0,1.061-0.256,1.389-0.726c0.531-0.766,0.349-1.817-0.422-2.355c-1.095-0.76-1.973-1.526-2.861-2.302
			C135.897,66.171,137.494,65.099,138.198,63.743z"/>
	</g>
	<g>
		<g>
			<path fill="#FFFFFF" d="M35.219,112.973c-0.002,0-0.004,0-0.006,0c-1.492-0.003-2.698-1.215-2.695-2.707
				c0.001-0.417-0.013-0.852-0.025-1.295c-0.064-2.188-0.146-4.912,1.29-7.028c0.837-1.234,2.518-1.556,3.751-0.719
				c1.234,0.837,1.557,2.517,0.72,3.751c-0.455,0.67-0.4,2.5-0.361,3.836c0.015,0.502,0.029,0.995,0.028,1.466
				C37.916,111.767,36.708,112.973,35.219,112.973z"/>
		</g>
		<g>
			<path fill="#FFFFFF" d="M67.277,105.758c-1.281,0-2.418-0.914-2.655-2.218c-0.119-0.657-0.274-1.327-0.431-2.005
				c-0.368-1.593-0.784-3.399-0.815-5.247c-0.024-1.492,1.164-2.721,2.656-2.746c1.511-0.037,2.721,1.165,2.745,2.656
				c0.021,1.278,0.34,2.66,0.678,4.122c0.176,0.762,0.349,1.515,0.482,2.252c0.267,1.468-0.706,2.874-2.174,3.141
				C67.6,105.744,67.438,105.758,67.277,105.758z"/>
		</g>
		<g>
			<path fill="#FFFFFF" d="M86.922,71.289c-0.648,0-1.299-0.232-1.816-0.703c-1.104-1.003-1.185-2.712-0.182-3.815
				c1.201-1.32,1.663-2.163,1.704-3.109c0.065-1.49,1.314-2.64,2.816-2.581c1.49,0.065,2.646,1.326,2.581,2.816
				c-0.125,2.864-1.64,4.897-3.104,6.508C88.388,70.991,87.656,71.289,86.922,71.289z"/>
		</g>
		<g>
			<path fill="#FFFFFF" d="M148.248,93.334c-0.998,0-1.958-0.556-2.428-1.512c-0.79-1.612-1.232-3.243-1.661-4.821l-0.126-0.465
				c-0.394-1.439,0.454-2.924,1.893-3.318c1.438-0.391,2.925,0.454,3.318,1.893l0.129,0.476c0.378,1.393,0.735,2.709,1.298,3.856
				c0.657,1.339,0.104,2.958-1.235,3.615C149.053,93.246,148.647,93.334,148.248,93.334z"/>
		</g>
		<g>
			<path fill="#FFFFFF" d="M138.225,145.038c-0.059,0-0.118-0.002-0.178-0.006c-1.488-0.097-2.617-1.382-2.52-2.871
				c0.099-1.52-0.158-3.089-0.431-4.75c-0.128-0.782-0.256-1.567-0.354-2.361c-0.182-1.48,0.872-2.828,2.353-3.01
				c1.483-0.182,2.828,0.873,3.01,2.353c0.089,0.721,0.206,1.435,0.322,2.146c0.31,1.888,0.629,3.839,0.49,5.974
				C140.825,143.941,139.637,145.038,138.225,145.038z"/>
		</g>
		<g>
			<path fill="#FFFFFF" d="M66.078,167.482c-0.251,0-0.505-0.035-0.758-0.109c-1.432-0.417-2.254-1.917-1.836-3.35
				c0.659-2.259,1.028-4.331,1.097-6.156c0.056-1.491,1.334-2.644,2.8-2.598c1.491,0.056,2.654,1.31,2.599,2.8
				c-0.085,2.27-0.526,4.782-1.31,7.468C68.326,166.717,67.248,167.482,66.078,167.482z"/>
		</g>
		<g>
			<path fill="#FFFFFF" d="M122.188,185.919c-1.407,0-2.594-1.09-2.692-2.515c-0.056-0.817-0.354-1.853-0.49-2.122
				c-0.672-1.319-0.168-2.957,1.145-3.643c1.313-0.685,2.92-0.21,3.619,1.096c0.617,1.153,1.029,3.034,1.116,4.295
				c0.104,1.488-1.02,2.778-2.508,2.881C122.314,185.917,122.251,185.919,122.188,185.919z"/>
		</g>
		<g>
			<path fill="#FFFFFF" d="M104.557,147.842c-0.045,0-0.091-0.001-0.137-0.003c-1.49-0.074-2.638-1.342-2.563-2.833
				c0.086-1.72-0.108-3.476-0.315-5.336l-0.071-0.648c-0.161-1.483,0.91-2.816,2.393-2.978c1.486-0.158,2.816,0.909,2.978,2.393
				l0.07,0.638c0.221,1.99,0.449,4.047,0.342,6.201C107.18,146.72,105.986,147.842,104.557,147.842z"/>
		</g>
		<g>
			<path fill="#FFFFFF" d="M66.079,57.661c-0.868,0-1.721-0.418-2.242-1.192c-0.834-1.237-0.506-2.916,0.731-3.749
				c1.596-1.075,3.599-1.674,5.535-2.254c0.526-0.158,1.05-0.314,1.551-0.478c1.416-0.463,2.942,0.309,3.407,1.728
				c0.464,1.417-0.31,2.943-1.728,3.407c-0.543,0.178-1.109,0.348-1.682,0.519c-1.55,0.464-3.152,0.944-4.066,1.56
				C67.123,57.512,66.599,57.661,66.079,57.661z"/>
		</g>
		<g>
			<path fill="#FFFFFF" d="M126.599,56.86c-0.521,0-1.048-0.15-1.512-0.464c-0.448-0.303-1.058-0.597-1.703-0.907
				c-0.856-0.413-1.828-0.88-2.746-1.525c-1.221-0.858-1.515-2.543-0.656-3.763c0.857-1.221,2.542-1.515,3.763-0.657
				c0.555,0.39,1.248,0.724,1.982,1.077c0.793,0.382,1.612,0.776,2.389,1.302c1.235,0.836,1.56,2.516,0.723,3.751
				C128.315,56.445,127.465,56.86,126.599,56.86z"/>
		</g>
		<g>
			<path fill="#FFFFFF" d="M168.688,137.423c-0.129,0-0.259-0.009-0.39-0.028c-1.477-0.213-2.5-1.583-2.287-3.06
				c0.111-0.769,0.029-1.582-0.22-2.173c-0.578-1.375,0.067-2.958,1.442-3.537c1.372-0.579,2.958,0.066,3.537,1.442
				c0.632,1.5,0.84,3.291,0.587,5.041C171.164,136.453,170.009,137.423,168.688,137.423z"/>
		</g>
		<g>
			<path fill="#FFFFFF" d="M39.623,154.657c-1.437,0-2.631-1.13-2.696-2.579c-0.058-1.272-0.33-2.307-0.834-3.164
				c-0.756-1.286-0.326-2.941,0.96-3.697c1.288-0.757,2.942-0.325,3.697,0.96c0.947,1.611,1.477,3.515,1.573,5.657
				c0.067,1.49-1.086,2.753-2.576,2.82C39.705,154.656,39.664,154.657,39.623,154.657z"/>
		</g>
	</g>
</g>
</svg>
