<?xml version="1.0" encoding="utf-8"?>
<!-- Generator: Adobe Illustrator 16.0.0, SVG Export Plug-In . SVG Version: 6.00 Build 0)  -->
<!DOCTYPE svg PUBLIC "-//W3C//DTD SVG 1.1//EN" "http://www.w3.org/Graphics/SVG/1.1/DTD/svg11.dtd">
<svg version="1.1" id="Capa_1" xmlns="http://www.w3.org/2000/svg" xmlns:xlink="http://www.w3.org/1999/xlink" x="0px" y="0px"
	 width="200px" height="200px" viewBox="0 0 200 200" enable-background="new 0 0 200 200" xml:space="preserve">
<g>
	<g>
		<g>
			<path fill="#F6AF61" d="M180.571,141.453c5.038-21.705,4.812-46.338,4.812-46.338s0.019-0.004,0.035-0.011
				c0.092-21.85-3.372-34.082-6.538-40.666c-0.019-0.05-11.556-31.876-78.873-31.016c0,0-69.857,1.66-80.23,34.173
				c-3.242,8.436-6.234,23.312-4.848,48.928c-0.011,0.001-0.022,0.005-0.037,0.006c0.462,9.086,1.605,22.267,4.426,34.569
				c2.854,11.452,7.902,23.12,17.079,28.362c11.6,6.621,31.05,11.73,63.61,10.732c32.558,0.998,52.009-4.111,63.608-10.732
				c9.079-5.185,14.116-16.659,16.99-27.993L180.571,141.453z"/>
		</g>
		<g>
			<path fill="#472313" d="M54.294,110.035c0,4.515-3.147,8.176-7.028,8.176c-3.882,0-7.027-3.662-7.027-8.176
				c0-4.512,3.146-8.174,7.027-8.174C51.147,101.861,54.294,105.522,54.294,110.035z"/>
		</g>
		<g>
			<path fill="#472313" d="M162.713,110.035c0,4.515-3.147,8.176-7.027,8.176c-3.883,0-7.029-3.662-7.029-8.176
				c0-4.512,3.146-8.174,7.029-8.174C159.566,101.861,162.713,105.522,162.713,110.035z"/>
		</g>
		<g>
			<path fill="#FF7CCA" d="M37.29,137.051c-0.242,0-0.487-0.015-0.733-0.046c-0.343,0-0.687-0.021-1.031-0.064
				c-3.317-0.408-5.423-2.205-5.82-4.947c-1.231-2.308-1.275-5.146-0.003-7.397c0.785-1.388,1.734-2.479,2.813-3.244
				c1.294-1.136,2.82-1.889,4.365-2.114c1.462-0.214,2.765,0.364,3.869,1.36c0.6,0.37,1.042,0.818,1.362,1.238
				c0.096,0.126,0.187,0.257,0.272,0.392c0.317,0.237,0.631,0.493,0.942,0.767c1.679,1.482,2.515,3.155,2.485,4.972
				c-0.023,1.396-0.551,2.829-1.576,4.285c-0.339,0.76-0.821,1.478-1.437,2.121c-0.725,0.758-1.582,1.366-2.518,1.805
				C39.369,136.758,38.353,137.051,37.29,137.051z M32.889,133.185c1.408,1.033,3.157,1.213,4.948,0.476
				c0.404-0.167,0.776-0.395,1.112-0.67c-0.319,0.018-0.644,0.014-0.968-0.01c-1.838,0.4-3.714-0.015-5.22-1.173
				c-0.599-0.461-1.056-0.948-1.4-1.44c-0.02,0.177-0.032,0.353-0.036,0.527C31.703,131.725,32.244,132.51,32.889,133.185z
				 M41.758,132.202c-0.314,0.554-0.689,1.071-1.126,1.529c0.71-0.645,1.422-1.38,2.016-2.172
				C42.383,131.8,42.086,132.016,41.758,132.202z M35.271,129.24c0.032,0.021,0.064,0.043,0.097,0.065
				c1.291,0.833,2.459,0.38,3.042,0.035c1.085-0.643,1.818-1.854,1.743-2.879c-0.052-0.703-0.479-1.243-1.271-1.606
				c-1.047,1.555-2.238,3.006-3.559,4.333L35.271,129.24z M34.333,125.931c0.03,0.554,0.167,1.051,0.399,1.438
				c0.839-0.898,1.619-1.852,2.332-2.854C35.956,124.59,34.97,125.167,34.333,125.931z M36.387,121.741
				c-0.078,0.04-0.154,0.084-0.228,0.132c0.173-0.054,0.352-0.098,0.534-0.133C36.59,121.737,36.488,121.737,36.387,121.741z"/>
		</g>
		<g>
			<path fill="#FF7CCA" d="M162.71,137.852c-1.059,0-2.072-0.292-2.98-0.865c-0.94-0.439-1.799-1.048-2.526-1.807
				c-0.616-0.644-1.1-1.362-1.439-2.123c-1.025-1.457-1.553-2.89-1.577-4.287c-0.031-1.818,0.805-3.492,2.484-4.975
				c0.313-0.276,0.63-0.533,0.949-0.771c0.083-0.132,0.172-0.26,0.266-0.384c0.322-0.422,0.768-0.873,1.373-1.244
				c1.103-0.991,2.401-1.566,3.859-1.354c1.544,0.225,3.071,0.978,4.365,2.114c1.079,0.765,2.028,1.855,2.812,3.244
				c1.27,2.249,1.226,5.082-0.001,7.389c-0.395,2.745-2.502,4.545-5.822,4.953c-0.345,0.042-0.69,0.063-1.034,0.064
				C163.195,137.836,162.952,137.852,162.71,137.852z M161.035,133.778c0.341,0.281,0.717,0.514,1.128,0.683
				c1.792,0.737,3.542,0.557,4.95-0.479c0.645-0.674,1.185-1.458,1.562-2.288c-0.004-0.174-0.016-0.349-0.036-0.524
				c-0.344,0.492-0.8,0.979-1.398,1.439c-1.523,1.17-3.422,1.58-5.279,1.161C161.651,133.791,161.342,133.794,161.035,133.778z
				 M157.348,132.356c0.597,0.794,1.312,1.533,2.025,2.179c-0.438-0.458-0.815-0.977-1.13-1.532
				C157.913,132.816,157.614,132.599,157.348,132.356z M161.118,125.655c-0.793,0.364-1.222,0.904-1.273,1.607
				c-0.075,1.025,0.659,2.236,1.744,2.879c0.583,0.345,1.752,0.799,3.042-0.036c0.034-0.022,0.067-0.044,0.1-0.066l-0.051-0.051
				C163.356,128.658,162.163,127.206,161.118,125.655z M162.936,125.314c0.713,1.001,1.493,1.955,2.334,2.854
				c0.232-0.386,0.368-0.883,0.398-1.437C165.031,125.968,164.044,125.391,162.936,125.314z M163.304,122.54
				c0.182,0.035,0.36,0.08,0.534,0.133c-0.074-0.047-0.149-0.091-0.228-0.131C163.509,122.538,163.407,122.538,163.304,122.54z"/>
		</g>
		<g>
			<path fill="#472313" d="M100.79,155.477c-2.119,0-3.617-0.334-3.758-0.367c-10.357-2.304-10.965-14.745-9.837-21
				c0.19-1.054,1.194-1.753,2.252-1.564c1.053,0.19,1.753,1.197,1.564,2.25l0,0c-0.025,0.144-2.457,14.456,6.878,16.532
				c0.075,0.018,6.383,1.385,10.641-2.277c3.239-2.785,4.623-7.825,4.113-14.98c-0.076-1.068,0.728-1.996,1.796-2.072
				c1.067-0.077,1.996,0.728,2.072,1.796c0.604,8.466-1.242,14.598-5.483,18.223C107.706,154.858,103.673,155.477,100.79,155.477z"
				/>
		</g>
		<g>
			<g>
				<path fill="#F6AF61" d="M105.914,15.507c0,0,5.644,1.295-6.653,19.556l-4.594-2.127C94.667,32.936,95.815,10.483,105.914,15.507
					z"/>
			</g>
			<g>
				<path fill="#F6AF61" d="M90.532,11.952c0,0-5.788-0.039,1.97,20.563l4.956-1.012C97.458,31.503,101.514,9.391,90.532,11.952z"/>
			</g>
		</g>
		<g>
			<path fill="#F6AF61" d="M63.421,31.354c-1.916,5.482-1.357,9.707,5.165,12.048c4.252,1.526,16.352,0.79,15.918-5.895
				c-0.638,5.68,9.633,13.915,14.629,14.128c5.626,0.24,13.619-6.752,10.732-12.839c-1.834,16.7,38.881,7.693,27.556-10.024"/>
			<path fill="#8A4C1C" d="M99.404,53.149c-0.112,0-0.224-0.002-0.335-0.007c-3.929-0.168-9.556-4.098-12.727-7.8
				c-0.744-0.869-1.538-1.931-2.168-3.101c-0.248,0.247-0.52,0.482-0.816,0.705c-4.04,3.042-11.75,3.141-15.281,1.874
				c-6.553-2.352-8.542-6.92-6.08-13.965c0.275-0.787,1.136-1.2,1.921-0.926c0.786,0.275,1.201,1.135,0.926,1.921
				c-1.948,5.574-0.796,8.32,4.25,10.131c2.804,1.006,9.414,0.841,12.448-1.444c0.843-0.635,1.309-1.347,1.431-2.205
				c-0.016-0.331-0.006-0.663,0.031-0.995c0.087-0.776,0.74-1.328,1.534-1.339c0.781,0.019,1.418,0.63,1.469,1.41
				c0.021,0.329,0.019,0.652-0.006,0.967c0.14,1.401,1.067,3.179,2.63,5.004c3.348,3.909,8.166,6.646,10.564,6.748
				c2.847,0.126,6.597-2.075,8.537-5.001c0.415-0.626,0.822-1.399,1.049-2.259c-0.443-1.264-0.587-2.686-0.417-4.236
				c0.074-0.67,0.583-1.21,1.249-1.323c0.667-0.111,1.324,0.232,1.613,0.841c0.654,1.379,0.882,2.858,0.692,4.359
				c0.59,1.128,1.611,2.008,3.058,2.631c5.983,2.58,16.529-0.033,20.898-5.174c2.618-3.08,2.71-6.572,0.275-10.382
				c-0.449-0.702-0.244-1.634,0.458-2.083s1.634-0.243,2.083,0.458c3.141,4.914,2.958,9.871-0.518,13.959
				c-5.181,6.096-17.262,9.064-24.39,5.991c-1.196-0.516-2.207-1.176-3.022-1.964c-0.157,0.284-0.328,0.566-0.514,0.847
				C107.812,50.469,103.208,53.149,99.404,53.149z"/>
		</g>
		<g>
			<path fill="#F6AF61" d="M80.06,25.259c0,0,6.896,11.544,21.813,8.979c0,0,13.445-1.723,13.87-10.385"/>
			<path fill="#8A4C1C" d="M97.644,36.122c-12.689,0-18.811-9.978-18.878-10.089c-0.427-0.715-0.194-1.641,0.521-2.068
				c0.714-0.426,1.638-0.194,2.066,0.518l0,0c0.263,0.435,6.587,10.618,20.266,8.27c0.184-0.025,12.262-1.68,12.619-8.972
				c0.041-0.833,0.771-1.466,1.58-1.433c0.832,0.041,1.473,0.749,1.433,1.58c-0.481,9.811-14.584,11.73-15.185,11.807
				C100.512,36.001,99.038,36.122,97.644,36.122z"/>
		</g>
		<g>
			<path fill="#8A4C1C" d="M131.66,65.87c-2.062,0-4.221-0.259-6.466-0.782c-4.29-0.998-10.697-4.018-13.781-8.082
				c-2.756,4.108-5.636,7.428-11.841,8.023c-7.46,0.714-21.212-2.534-24.628-11.31c-5.28,2.54-12.839,1.087-18.146-1.622
				c-6.688-3.409-9.591-8.9-9.137-17.282c0.045-0.832,0.766-1.469,1.587-1.424c0.832,0.045,1.469,0.756,1.424,1.587
				c-0.393,7.238,1.849,11.554,7.496,14.432c5.173,2.642,12.807,3.819,16.764,0.802c0.417-0.317,0.967-0.396,1.455-0.208
				c0.488,0.188,0.845,0.615,0.941,1.129c1.551,8.263,15.318,11.528,21.955,10.894c5.641-0.542,7.686-3.694,10.781-8.466
				l0.163-0.251c0.31-0.477,0.865-0.74,1.425-0.679c0.565,0.06,1.048,0.433,1.25,0.964c1.507,3.964,8.503,7.516,12.974,8.556
				c7.395,1.722,13.49,0.324,18.114-4.152c7.74-7.491,9.03-21.134,8.718-22.923c-0.244-0.75,0.134-1.571,0.877-1.867
				c0.772-0.307,1.651,0.07,1.958,0.844c0.803,2.021-0.695,16.078-7.992,24.559C143.419,63.416,138.001,65.87,131.66,65.87z"/>
		</g>
		<g>
			<g>
				<path fill="#8A4C1C" d="M42.31,172.783c-0.744,0-1.392-0.551-1.493-1.309c-1.75-13.087-15.299-15.332-15.875-15.421
					c-0.822-0.127-1.387-0.896-1.261-1.719c0.126-0.822,0.893-1.384,1.715-1.263c0.164,0.025,16.358,2.649,18.411,18.004
					c0.11,0.825-0.469,1.584-1.295,1.694C42.444,172.778,42.376,172.783,42.31,172.783z"/>
			</g>
			<g>
				<path fill="#8A4C1C" d="M53.587,176.171c-0.832,0-1.507-0.674-1.508-1.506c-0.01-7.377-2.276-13.356-6.738-17.772
					c-8.69-8.602-22.951-8.601-23.114-8.575c-0.838,0.006-1.515-0.662-1.522-1.493c-0.008-0.833,0.659-1.514,1.491-1.522
					c0.652-0.019,15.652-0.055,25.251,9.432c5.063,5.004,7.636,11.708,7.646,19.927c0.001,0.833-0.673,1.509-1.506,1.51
					C53.589,176.171,53.588,176.171,53.587,176.171z"/>
			</g>
		</g>
		<g>
			<g>
				<path fill="#8A4C1C" d="M157.366,173.263c-0.067,0-0.134-0.004-0.202-0.014c-0.825-0.11-1.405-0.869-1.294-1.695
					c2.054-15.354,18.249-17.979,18.413-18.003c0.823-0.121,1.592,0.442,1.717,1.266c0.125,0.823-0.441,1.591-1.264,1.716
					c-0.587,0.091-14.126,2.34-15.876,15.422C158.757,172.712,158.109,173.263,157.366,173.263z"/>
			</g>
			<g>
				<path fill="#8A4C1C" d="M146.089,176.654c0,0-0.001,0-0.002,0c-0.833-0.001-1.507-0.677-1.506-1.51
					c0.01-8.22,2.583-14.925,7.647-19.929c9.6-9.487,24.602-9.452,25.251-9.431c0.832,0.009,1.5,0.69,1.491,1.522
					c-0.009,0.832-0.696,1.479-1.522,1.493c-0.146,0.011-14.418-0.033-23.114,8.574c-4.461,4.417-6.729,10.397-6.738,17.775
					C147.596,175.98,146.921,176.654,146.089,176.654z"/>
			</g>
		</g>
	</g>
	<g>
		<path fill="#141015" d="M112.09,170.093c-0.009-0.336-0.209-0.637-0.518-0.77c-0.31-0.135-0.667-0.074-0.915,0.149l-10.245,9.155
			l-10.109-7.778c-0.247-0.19-0.579-0.229-0.869-0.107c-0.287,0.127-0.483,0.399-0.512,0.711l-1.424,15.475
			c-0.027,0.298,0.101,0.587,0.336,0.768c0.238,0.18,0.55,0.222,0.83,0.116l11.756-4.527l10.875,4.897
			c0.112,0.05,0.233,0.073,0.353,0.073c0.164,0,0.332-0.047,0.474-0.143c0.249-0.162,0.396-0.44,0.387-0.736L112.09,170.093z"/>
	</g>
</g>
</svg>
