<?xml version="1.0" encoding="utf-8"?>
<!-- Generator: Adobe Illustrator 16.0.0, SVG Export Plug-In . SVG Version: 6.00 Build 0)  -->
<!DOCTYPE svg PUBLIC "-//W3C//DTD SVG 1.1//EN" "http://www.w3.org/Graphics/SVG/1.1/DTD/svg11.dtd">
<svg version="1.1" id="Capa_1" xmlns="http://www.w3.org/2000/svg" xmlns:xlink="http://www.w3.org/1999/xlink" x="0px" y="0px"
	 width="200px" height="200px" viewBox="0 0 200 200" enable-background="new 0 0 200 200" xml:space="preserve">
<g>
	<g>
		<g>
			<path fill="#FFB5C7" d="M163.428,41.945c-0.868-0.189-1.663-0.731-2.151-1.564c-0.932-1.58-0.39-3.615,1.186-4.544
				c12.803-7.497,9.693-15.779,9.559-16.126c-0.789-1.968-1.399-2.344-1.404-2.349c-1.579,0.291-5.809,6.514-8.494,12.846
				c-0.719,1.687-2.643,2.489-4.358,1.76c-1.69-0.718-2.479-2.668-1.757-4.358c2.16-5.092,7.93-16.93,14.854-16.852
				c2.181,0.025,5.203,1.163,7.316,6.449c2.014,4.669,2.086,15.904-12.35,24.363C165.069,42.01,164.223,42.122,163.428,41.945z"/>
		</g>
	</g>
	<g>
		<path fill="#F07A7B" d="M86.23,18.042c15.706,1.578,58.105,5.679,64.56,4.938c0,0,23.291,0.466,17.999,26.649l-21.487,125.36
			c0,0-0.553,6.719-5.49,9.733c-10.425,6.365-39.273,17.73-107.12-9.893c0,0-21.19-10.243-11.105-42.261
			c8.118-25.772,24.029-30.945,42.625-27.51c0,0,3.274-61.897,10.796-82.267C78.459,18.861,82.59,17.673,86.23,18.042z"/>
	</g>
	<g>
		<path fill="#FFB5C7" d="M168.789,49.629c5.292-26.184-17.999-26.649-17.999-26.649c-6.454,0.741-48.854-3.36-64.56-4.938
			c-3.641-0.369-7.771,0.819-9.224,4.75c-1.617,4.387-3.024,10.737-4.265,17.941c13.661,3.179,66.298,14.656,95.786,10.417
			L168.789,49.629z"/>
	</g>
	<g>
		<g>
			<path fill="#FFFFFF" d="M78.516,47.394c-1.526-0.337-2.491-1.894-2.146-3.476c0.833-3.757,2.182-10.933,2.475-15.296
				l1.592-13.735c0.182-1.605,1.598-2.763,3.153-2.6c1.567,0.213,2.661,1.612,2.479,3.217l-1.578,13.586
				c-0.33,4.913-1.83,12.662-2.576,16.048C81.565,46.724,80.046,47.73,78.516,47.394z"/>
		</g>
	</g>
	<g>
		<g>
			<path fill="#FFFFFF" d="M89.6,52.727c-1.175-0.26-2.087-1.271-2.2-2.569c-0.107-1.329,0.172-2.317,0.389-3.124
				c0.791-3.267,1.568-5.954,2.343-8.636c1.169-4.028,2.267-7.831,2.926-11.779c0.702-4.226,0.776-8.748,0.843-13.117l0.051-3.14
				C94,8.75,95.293,7.46,96.862,7.472c1.535-0.017,2.796,1.346,2.77,2.958l-0.057,3.084c-0.076,4.59-0.155,9.345-0.921,14.004
				c-0.722,4.311-1.921,8.467-3.091,12.484c-0.752,2.586-1.505,5.17-2.111,7.791c-0.024,0.036-0.188,0.728-0.207,0.768
				c-0.166,0.61-0.21,0.788-0.184,1.013c0.125,1.612-1.027,3.045-2.59,3.201C90.167,52.801,89.874,52.787,89.6,52.727z"/>
		</g>
	</g>
	<g>
		<g>
			<path fill="#FFFFFF" d="M106.06,54.14c-1.191-0.264-2.104-1.307-2.186-2.623c-0.388-5.752,0.62-11.986,1.605-18.01
				c0.838-5.196,1.7-10.561,1.645-15.463c-0.021-1.609,1.232-2.949,2.807-2.997c1.555-0.046,2.854,1.242,2.866,2.852
				c0.063,5.414-0.847,11.04-1.732,16.497c-0.953,5.947-1.87,11.574-1.541,16.639c0.11,1.607-1.07,3.029-2.624,3.153
				C106.604,54.219,106.325,54.197,106.06,54.14z"/>
		</g>
	</g>
	<g>
		<g>
			<path fill="#FFFFFF" d="M121.351,55.066c-1.52-0.337-2.478-1.894-2.136-3.467c0.366-1.668,0.378-3.553,0.402-5.541
				c0.017-1.166,0.026-2.308,0.103-3.428l0.121-1.836c0.472-6.726,0.959-13.674,0.361-20.294c-0.149-1.604,1.002-3.052,2.555-3.218
				c1.576-0.173,2.952,0.983,3.09,2.588c0.641,7.107,0.143,14.301-0.342,21.254l-0.133,1.824c-0.068,1.007-0.081,2.048-0.088,3.087
				c-0.025,2.206-0.043,4.495-0.535,6.764c-0.346,1.583-1.859,2.592-3.393,2.266H121.351z"/>
		</g>
	</g>
	<g>
		<g>
			<path fill="#FFFFFF" d="M133.769,54.811c-0.876-0.192-1.635-0.787-1.949-1.711c-0.525-1.492-0.258-2.708-0.084-3.513l0.551-3.277
				c0.316-1.871,0.649-3.725,0.754-5.651c0.214-4.367,0.646-8.665,1.147-13.024c0.082-0.701,0.22-1.453,0.36-2.214
				c0.236-1.282,0.513-2.733,0.333-3.531c-0.349-1.569,0.603-3.154,2.134-3.536c1.511-0.375,3.033,0.575,3.391,2.146
				c0.448,1.997,0.063,4.089-0.283,5.939c-0.123,0.631-0.236,1.243-0.305,1.81c-0.487,4.22-0.911,8.389-1.118,12.638
				c-0.113,2.178-0.474,4.266-0.837,6.375l-0.422,2.627c-0.021,0.069-0.158,0.83-0.176,0.887c0.525,1.516-0.3,3.333-1.77,3.895
				C134.919,54.888,134.325,54.935,133.769,54.811z"/>
		</g>
	</g>
	<g>
		<g>
			<path fill="#FFFFFF" d="M147.606,55.968c-1.423-0.313-2.376-1.716-2.168-3.233c0.242-1.824,0.035-3.952-0.182-6.013l-0.347-3.463
				c-0.365-3.241-0.739-6.585-0.128-10.121c0.232-1.45,0.62-2.948,1.004-4.457c0.68-2.742,1.338-5.335,1.162-7.667
				c-0.114-1.61,1.062-3.032,2.616-3.177c1.544-0.094,2.936,1.054,3.05,2.653c0.237,3.306-0.566,6.495-1.347,9.587
				c-0.342,1.35-0.679,2.698-0.903,3.99c-0.468,2.7-0.156,5.492,0.172,8.441l0.369,3.542c0.227,2.291,0.482,4.893,0.148,7.424
				c-0.221,1.602-1.658,2.731-3.207,2.524C147.764,55.99,147.688,55.986,147.606,55.968z"/>
		</g>
	</g>
	<g>
		<g>
			<path fill="#FFFFFF" d="M160.683,58.269c-0.75-0.166-1.459-0.616-1.911-1.268c-0.343-0.493-0.528-1.095-0.52-1.697
				c0.042-4.215-0.338-8.437-0.729-12.912c-0.535-6.047-1.088-12.312-0.542-18.528c0.14-1.618,1.524-2.824,3.081-2.701
				c1.752,0.181,2.709,1.539,2.574,3.136c-0.508,5.693,0.029,11.691,0.535,17.482c0.367,4.17,0.738,8.462,0.752,12.699
				c0.41,1.289-0.091,2.764-1.254,3.49C162.075,58.335,161.356,58.416,160.683,58.269z"/>
		</g>
	</g>
	<g>
		<path fill="#FFB5C7" d="M48.311,105.145c-10.636,2.539-19.389,10.461-24.725,27.424c-10.085,32.019,11.105,42.261,11.105,42.261
			c8.028,3.273,15.467,5.958,22.438,8.202C74.544,136.378,58.79,114.032,48.311,105.145z"/>
	</g>
	<g>
		<path fill="#FFFFFF" d="M51.869,104.467c-2.136,0.272-4.189,0.746-6.179,1.412c0.152,0.584,0.346,1.172,0.842,1.573
			c0.248,0.188,24.205,20.143,15.838,50.143c-0.026,0.149-3.224,14.843-7.77,24.151c-0.07,0.127,0.012,0.274-0.028,0.411
			c1.772,0.598,3.562,1.2,5.28,1.737c4.756-9.969,7.923-24.479,8.01-24.931C75.815,130.487,57.702,110.125,51.869,104.467z"/>
	</g>
	<g>
		<path fill="#FFB5C7" d="M124.868,191.014c8.09-1.614,13.526-4.207,16.943-6.292c4.938-3.015,5.49-9.733,5.49-9.733l2.233-13.079
			C146.022,163.002,129.259,169.477,124.868,191.014z"/>
	</g>
	<g>
		<path fill="#FFFFFF" d="M149.882,159.971c-3.568-0.094-7.15,0.176-10.199,1.258c-5.027,1.766-12.827,16.359-16.557,25.14
			c-0.719,1.675-1.417,3.48-2.094,5.319c2.379-0.326,4.496-0.777,6.487-1.256c4.507-11.203,11.082-22.25,13.925-23.677
			c2.109-0.743,4.722-0.928,7.42-0.905L149.882,159.971z"/>
	</g>
	<g>
		<path fill="#FFFFFF" d="M140.817,128.454c0.844-1.64,0.206-3.659-1.41-4.503c-1.672-0.851-3.67-0.224-4.506,1.424
			c-0.649,1.227-2.74,2.43-5.393,3.479c0.33-3.479,0.518-6.529,0.436-8.067c-0.105-1.838-1.684-3.362-3.512-3.157
			c-1.84,0.083-3.262,1.668-3.158,3.505c0.055,1.138-0.018,2.839-0.166,4.72c-1.434-1.479-2.846-2.945-4.514-4.54
			c-1.338-1.281-3.459-1.229-4.719,0.099c-1.283,1.329-1.244,3.447,0.082,4.727c1.989,1.892,3.696,3.661,5.377,5.386
			c-2.98,0.452-5.777,0.618-7.681,0.281c-1.894-0.318-3.554,0.895-3.873,2.714c-0.323,1.812,0.895,3.543,2.714,3.863
			c0.894,0.165,2.012,0.238,3.305,0.238c2.248,0,5-0.259,7.875-0.748c-0.537,3.488-1.076,6.288-1.382,7.03
			c-1.104,1.482-0.798,3.576,0.698,4.672c0.595,0.441,1.298,0.656,1.987,0.656c1.021,0,2.022-0.464,2.682-1.352
			c0.829-1.106,1.661-4.645,2.39-8.893c1.895,1.649,3.871,3.293,6.22,4.917c0.587,0.41,1.248,0.604,1.907,0.604
			c1.058,0,2.096-0.506,2.746-1.435c1.051-1.514,0.688-3.594-0.835-4.658c-2.163-1.503-3.899-3.018-5.657-4.551
			C136.269,133.256,139.425,131.134,140.817,128.454z"/>
	</g>
</g>
</svg>
