<?xml version="1.0" encoding="utf-8"?>
<!-- Generator: Adobe Illustrator 16.0.0, SVG Export Plug-In . SVG Version: 6.00 Build 0)  -->
<!DOCTYPE svg PUBLIC "-//W3C//DTD SVG 1.1//EN" "http://www.w3.org/Graphics/SVG/1.1/DTD/svg11.dtd">
<svg version="1.1" id="Capa_1" xmlns="http://www.w3.org/2000/svg" xmlns:xlink="http://www.w3.org/1999/xlink" x="0px" y="0px"
	 width="200px" height="200px" viewBox="0 0 200 200" enable-background="new 0 0 200 200" xml:space="preserve">
<g>
	<g>
		<g>
			<path fill="#FFB5C7" d="M179.01,110.221l-80.039-7.419L18.947,99.19l12.456,74.42c0,0,16.398,13.854,57.46,18.896
				c35.436,4.353,61.463-7.124,61.463-7.124L179.01,110.221z"/>
		</g>
	</g>
	<g>
		<defs>
			<path id="SVGID_5_" d="M178.926,110.39l-80.041-7.424l-80.027-3.604l12.461,74.42c0,0,16.411,13.865,57.447,18.896
				c35.457,4.349,61.475-7.127,61.475-7.127L178.926,110.39z"/>
		</defs>
		<clipPath id="SVGID_2_">
			<use xlink:href="#SVGID_5_"  overflow="visible"/>
		</clipPath>
		<g clip-path="url(#SVGID_2_)">
			<g>
				<g>
					<g>
						<path fill="#EA8499" d="M37.761,193.038c-2.542-5.118-2.646-10.507-2.376-15.572c0.312-5.729,0.07-11.445-0.174-16.979
							c-0.141-3.749-0.311-7.622-0.297-11.509c0.006-8.53-0.743-15.15-2.619-22.816c-0.728-3.009-1.209-6.29-1.688-9.462
							c-0.701-4.844-1.43-9.859-3.076-14.1l2.232-0.868c1.742,4.488,2.498,9.641,3.225,14.618c0.482,3.266,0.935,6.346,1.64,9.249
							c1.913,7.868,2.688,14.647,2.674,23.376c0.006,3.836,0.163,7.69,0.313,11.412c0.235,5.59,0.479,11.367,0.166,17.208
							c-0.25,4.734-0.166,9.751,2.131,14.373L37.761,193.038z"/>
					</g>
				</g>
			</g>
			<g>
				<g>
					<g>
						<path fill="#EA8499" d="M42.891,198.131c-0.324-4.499,0.08-9.071,0.465-13.48c0.235-2.602,0.467-5.284,0.547-7.909
							c0.258-8.112-0.674-16.322-1.558-24.272c-0.41-3.708-0.843-7.547-1.149-11.344c-0.895-10.976-0.449-21.545,0.169-31.329
							l2.39,0.141c-0.607,9.701-1.053,20.165-0.175,30.996c0.304,3.756,0.736,7.579,1.146,11.273
							c0.899,8.028,1.823,16.332,1.579,24.609c-0.082,2.69-0.322,5.416-0.554,8.047c-0.392,4.316-0.782,8.784-0.47,13.092
							L42.891,198.131z"/>
					</g>
				</g>
			</g>
			<g>
				<g>
					<g>
						<path fill="#EA8499" d="M62.474,198.428l-2.396-0.152c0.434-6.458,0.006-12.403-0.436-17.371
							c-0.514-5.614-0.53-10.807-0.535-16.317c-0.006-2.437-0.006-4.906-0.061-7.437c-0.144-6.678-1.539-13.369-2.91-19.847
							c-0.674-3.152-1.353-6.415-1.888-9.637c-0.231-1.397-0.339-2.899-0.452-4.343c-0.203-2.754-0.419-5.601-1.438-7.845
							l2.188-1.009c1.199,2.649,1.429,5.709,1.641,8.669c0.112,1.464,0.207,2.838,0.432,4.13c0.518,3.186,1.193,6.415,1.853,9.543
							c1.392,6.586,2.835,13.392,2.966,20.292c0.058,2.555,0.058,5.028,0.065,7.484c0,5.443,0.013,10.596,0.521,16.096
							C62.486,185.75,62.914,191.814,62.474,198.428z"/>
					</g>
				</g>
			</g>
			<g>
				<g>
					<g>
						<path fill="#EA8499" d="M72.205,209.059l-2.393-0.144c0.139-2.21,0.309-4.413,0.469-6.61
							c0.359-4.741,0.736-9.637,0.832-14.432c0.088-4.093,0.121-8.237,0.141-12.238c0.055-8.974,0.117-18.238,0.806-27.484
							c0.272-3.56,0.727-7.218,1.179-10.747c0.648-5.207,1.31-10.596,1.396-15.805l2.397,0.038
							c-0.082,5.337-0.762,10.797-1.417,16.067c-0.439,3.506-0.907,7.123-1.162,10.629c-0.688,9.161-0.749,18.387-0.809,27.318
							c-0.021,4.019-0.056,8.158-0.136,12.265c-0.097,4.862-0.468,9.792-0.821,14.561C72.518,204.68,72.348,206.87,72.205,209.059z"
							/>
					</g>
				</g>
			</g>
			<g>
				<g>
					<g>
						<path fill="#EA8499" d="M83.496,202.554c-1.085-4.271-0.396-9.65,0.209-14.388c0.257-1.975,0.499-3.83,0.602-5.513
							l2.468-38.211c0.124-1.933,0.453-4.211,0.798-6.606c0.823-5.635,1.742-12.013,0.357-16.187l2.281-0.749
							c1.546,4.703,0.596,11.388-0.269,17.276c-0.325,2.355-0.657,4.585-0.776,6.414l-2.463,38.21
							c-0.116,1.765-0.354,3.668-0.615,5.673c-0.582,4.524-1.241,9.657-0.279,13.497L83.496,202.554z"/>
					</g>
				</g>
			</g>
			<g>
				<g>
					<g>
						<path fill="#EA8499" d="M101.825,203.369l-2.391-0.159c0.304-4.597,1.008-9.185,1.696-13.619
							c0.668-4.281,1.35-8.702,1.652-13.099c0.488-6.687,1.215-13.436,1.922-19.968c0.697-6.485,1.434-13.197,1.906-19.812
							c0.045-0.718,0.128-1.514,0.216-2.337c0.355-3.759,0.814-8.443-0.825-11.352l2.088-1.184
							c2.015,3.566,1.524,8.672,1.112,12.768c-0.076,0.803-0.157,1.573-0.202,2.281c-0.466,6.654-1.194,13.383-1.91,19.895
							c-0.703,6.509-1.449,13.24-1.911,19.878c-0.315,4.486-1.005,8.969-1.678,13.292
							C102.823,194.344,102.129,198.877,101.825,203.369z"/>
					</g>
				</g>
			</g>
			<g>
				<g>
					<g>
						<path fill="#EA8499" d="M120.33,202.861c-0.035-3.745-0.061-8.685,0.006-13.773c0.042-2.54,0.066-5.064,0.09-7.579
							c0.107-9.755,0.207-19.833,0.732-29.902c0.217-4.353,0.151-8.867,0.078-13.241c-0.098-5.683-0.205-11.557,0.363-17.222
							l2.382,0.236c-0.556,5.527-0.448,11.328-0.35,16.949c0.073,4.411,0.149,8.972-0.083,13.4
							c-0.519,10.017-0.613,20.086-0.729,29.804c-0.021,2.526-0.046,5.052-0.081,7.582c-0.068,5.068-0.047,10.001-0.014,13.73
							L120.33,202.861z"/>
					</g>
				</g>
			</g>
			<g>
				<g>
					<g>
						<path fill="#EA8499" d="M133.967,206.138c-1.225-3.763-0.1-9.479,0.895-14.505c0.464-2.336,0.904-4.542,1.05-6.283
							c0.806-9.134,1.46-18.441,2.103-27.44c0.842-11.65,1.705-23.69,2.857-35.521l2.376,0.237
							c-1.142,11.796-1.995,23.815-2.834,35.457c-0.642,9.005-1.313,18.315-2.111,27.477c-0.169,1.866-0.608,4.13-1.08,6.533
							c-0.952,4.745-2.017,10.144-0.979,13.298L133.967,206.138z"/>
					</g>
				</g>
			</g>
			<g>
				<g>
					<g>
						<path fill="#EA8499" d="M144.523,212.034l-2.348-0.477c0.479-2.368,0.412-4.846,0.352-7.467
							c-0.056-2.054-0.102-4.188,0.119-6.287c1-8.851,3.799-17.07,6.52-25.02c1.85-5.422,3.752-11.027,5.086-16.78
							c2.823-12.37,5.059-25.104,6.631-37.855l2.367,0.29c-1.564,12.833-3.812,25.648-6.676,38.103
							c-1.341,5.87-3.278,11.537-5.141,17.02c-2.678,7.825-5.439,15.919-6.397,24.521c-0.216,1.92-0.163,3.961-0.113,5.953
							C144.988,206.677,145.058,209.404,144.523,212.034z"/>
					</g>
				</g>
			</g>
		</g>
	</g>
	<g>
		<g>
			<path fill="#73423C" d="M103.518,44.247l-0.006-0.148c0,0-84.31-8.26-84.769,56.853c0,0,4.948,8.878,21.247,17.051
				c37.115,18.632,104.275,11.705,117.119,7.301c16.115-5.506,21.719-13.514,21.719-13.514
				C186.844,50.989,112.293,44.771,103.518,44.247z"/>
		</g>
	</g>
	<g>
		<g>
			<path fill="#8BD0BE" d="M173.516,68.218c-9.913-12.329-26.124-19.783-37.969-23.873c-12.969-4.471-47.038-6.081-58.988-4.539
				c-5.883,0.767-12.221,2.001-18.49,3.968c-24.295,7.599-38.399,23.428-40.793,45.772c-0.068,0.651,0.119,1.282,0.524,1.778
				c7.248,8.77,17.943,11.567,31.065,7.926c3.385,4.019,14.547,15.681,30.67,16.723c9.574,0.614,19.152-2.663,28.463-9.749
				c3.479,2.497,12.352,8.102,22.684,8.764c8.246,0.54,15.516-2.16,21.625-8.031c1.522,0.313,4.242,0.772,7.502,0.982
				c6.581,0.428,15.664-0.189,21.617-5.527c0.41-0.375,0.682-0.874,0.761-1.427C184.063,88.753,181.148,77.727,173.516,68.218z"/>
		</g>
	</g>
	<g>
		<g>
			<path fill="#FFFFFF" d="M182.551,89.979c-0.087-0.982-0.228-1.96-0.396-2.925c-4.78,4.953-12.931,7.768-19.113,8.719
				c-2.834,0.436-5.494,0.544-7.766,0.341c0.949-3.016-0.48-7.164-1.734-9.295c-2.247-3.794-4.596-4.121-5.779-3.962
				c-1.673,0.206-3.049,1.522-3.624,3.452c-0.721,2.473-0.175,6.512,3.767,9.812c0.959,0.803,2.275,1.417,3.872,1.842
				c-2.132,3.695-5.376,6.287-9.71,7.69c-9.905,3.222-23.809-0.408-31.84-5.453c-2.26-1.417-4.359-2.824-5.984-4.451
				c2.199-2.035,3.368-4.352,3.429-6.859c0.095-4.403-2.277-6.769-4.731-6.82c-2.049-0.043-4.34,1.718-4.436,5.724
				c-0.061,3.077,0.803,5.526,2.277,7.596c-4.221,2.865-10.463,4.548-14.382,4.717c-8.509,0.357-31.981-4.123-38.825-14.449
				c-0.621-0.951-1.078-1.909-1.377-2.895c2.053-1.31,3.933-3.212,5.076-4.994c1.234-1.927,2.48-5.534,0.593-6.988
				c-1.248-0.955-2.383-0.944-3.132-0.772c-2.152,0.523-3.468,2.976-3.818,3.718c-1.276,2.7-1.748,5.301-1.438,7.805
				c-0.587,0.263-1.133,0.432-1.64,0.493c-3.354,0.412-9.076,0.115-14.301-1.495c-2.498-0.759-5.352-1.974-7.342-3.82
				c-0.291,0.817-0.576,1.636-0.827,2.474c6.103,4.872,17.435,5.872,22.762,5.22c0.611-0.077,1.259-0.253,1.907-0.502
				c0.366,1.046,0.891,2.068,1.547,3.077C53.283,98.6,78.301,102.853,86.512,102.5c3.134-0.134,8.289-1.242,12.707-3.418
				c1.163-0.569,2.209-1.184,3.131-1.825c1.847,1.876,4.166,3.449,6.608,4.977c5.63,3.537,14.025,6.411,22.136,6.928
				c4.116,0.27,8.145-0.067,11.723-1.231c5.197-1.691,9.037-4.886,11.436-9.503c2.635,0.314,5.756,0.236,9.166-0.287
				C169.707,97.163,177.348,94.547,182.551,89.979z M45.779,80.136c-0.02-1.718,0.418-3.503,1.303-5.386
				c0.405-0.849,1.321-2.2,2.219-2.416c0.082-0.021,0.17-0.023,0.291-0.017c0.211,0.01,0.465,0.094,0.791,0.34
				c0.235,0.351-0.068,2.166-1.137,3.82C48.383,77.821,47.123,79.134,45.779,80.136z M100.914,87.852
				c0.055-2.365,1.025-3.404,1.985-3.384c0,0,0.026-0.003,0.046,0.004c1.195,0.081,2.388,1.612,2.32,4.353
				c-0.045,1.899-1.039,3.593-2.59,5.062C101.521,92.203,100.848,90.252,100.914,87.852z M152.913,95.607
				c-0.021,0.047-0.04,0.098-0.062,0.142c-1.457-0.327-2.632-0.81-3.411-1.471c-3.045-2.541-3.518-5.524-3-7.285
				c0.298-1.002,0.918-1.667,1.606-1.759c0.087-0.017,0.169-0.017,0.271-0.009c0.976,0.063,2.124,1.086,3.151,2.817
				C152.743,90.211,153.674,93.735,152.913,95.607z"/>
		</g>
	</g>
	<g>
		<g>
			<path fill="#00AA5D" d="M130.85,6.853c-15.709-3.428-17.963,11.254-18.24,13.923l-0.229,0.176c0,0,0.073,0.017,0.206,0.036
				c-0.011,0.132-0.011,0.199-0.011,0.199l0.215-0.162c2.66,0.402,17.428,1.896,18.053-14.164L130.85,6.853z"/>
		</g>
	</g>
	<g>
		<g>
			<path fill="#FF316B" d="M124.033,38.896c-0.768,11.375-10.607,19.959-21.977,19.189c-11.353-0.772-19.949-10.612-19.188-21.97
				c0.781-11.364,10.615-19.948,21.979-19.187C116.213,17.702,124.805,27.541,124.033,38.896z"/>
		</g>
	</g>
</g>
</svg>
