<?xml version="1.0" encoding="utf-8"?>
<!-- Generator: Adobe Illustrator 16.0.0, SVG Export Plug-In . SVG Version: 6.00 Build 0)  -->
<!DOCTYPE svg PUBLIC "-//W3C//DTD SVG 1.1//EN" "http://www.w3.org/Graphics/SVG/1.1/DTD/svg11.dtd">
<svg version="1.1" id="Capa_1" xmlns="http://www.w3.org/2000/svg" xmlns:xlink="http://www.w3.org/1999/xlink" x="0px" y="0px"
	 width="200px" height="200px" viewBox="0 0 200 200" enable-background="new 0 0 200 200" xml:space="preserve">
<g>
	<g>
		<path fill="#65CEA8" d="M90.198,18.007c0,0-37.212,41.022-29.494,51.122c0,0,2.67,3.17,10.688-1.169
			c0,0-41.498,47.581-13.577,51.958c0,0-23.356,17.607-15.886,35.441c0,0,1.135,2.973,6.021,5.147
			c13.41,5.994,77.089,9.764,101.353-0.709c2.832-1.229,10.047-9.74,10.233-18.019c0.234-10.762-4.987-24.924-30.271-33.057
			c0,0,49.637-15.591-5.004-40.185c0,0,16.546-7.505,13.585-14.375c0,0-15.914-40.987-33.777-47.901
			C104.07,6.262,100.784,4.2,90.198,18.007z"/>
	</g>
	<path fill="#117A6D" d="M119.053,93.18c-0.266-1.894-2.021-3.215-3.911-2.946c-1.894,0.266-3.212,2.018-2.945,3.911
		c0.352,2.507,0.415,5.791-1.291,7.193c-1.812,1.491-5.395,1.034-7.51,0.521c1.157-33.81,2.824-64.685,3.293-67.544
		c0.435-1.771-0.585-3.594-2.351-4.134c-1.828-0.559-3.765,0.469-4.323,2.298c-0.486,1.59-1.418,17.854-2.288,37.219
		c-2.107,0.092-4.837-0.2-6.628-1.75c-1.975-1.711-2.762-4.889-2.338-9.444c0.177-1.904-1.224-3.591-3.128-3.768
		c-1.906-0.18-3.591,1.224-3.767,3.127c-0.645,6.934,0.951,12.1,4.74,15.354c3.212,2.759,7.281,3.413,10.415,3.413
		c0.14,0,0.269-0.006,0.404-0.009c-0.389,9.14-0.752,18.644-1.042,27.404c-0.463,14.047-0.879,29.778-1.021,44.167
		c-2.642,0.31-6.549,0.449-9.109-1.7c-2.013-1.689-3.1-4.735-3.23-9.052c-0.059-1.911-1.655-3.417-3.566-3.355
		c-1.911,0.059-3.414,1.655-3.356,3.566c0.195,6.374,2.113,11.132,5.701,14.145c3.357,2.819,7.444,3.5,10.827,3.499
		c0.965,0,1.869-0.057,2.687-0.134c-0.054,15.848,0.297,29.292,1.389,35.797c0.284,1.692,1.75,2.89,3.411,2.89
		c0.19,0,0.383-0.016,0.577-0.048c1.886-0.316,3.158-2.102,2.841-3.987c-1.087-6.478-1.404-20.836-1.274-38.333
		c0.001-0.028,0.009-0.055,0.009-0.083c0-0.026-0.008-0.052-0.008-0.078c0.099-13.057,0.444-27.848,0.905-42.424
		c1.153,0.214,2.519,0.383,3.972,0.383c2.715,0,5.721-0.589,8.146-2.57C118.658,103.945,119.927,99.395,119.053,93.18z"/>
</g>
</svg>
