<?xml version="1.0" encoding="utf-8"?>
<!-- Generator: Adobe Illustrator 16.0.0, SVG Export Plug-In . SVG Version: 6.00 Build 0)  -->
<!DOCTYPE svg PUBLIC "-//W3C//DTD SVG 1.1//EN" "http://www.w3.org/Graphics/SVG/1.1/DTD/svg11.dtd">
<svg version="1.1" id="Capa_1" xmlns="http://www.w3.org/2000/svg" xmlns:xlink="http://www.w3.org/1999/xlink" x="0px" y="0px"
	 width="200px" height="200px" viewBox="0 0 200 200" enable-background="new 0 0 200 200" xml:space="preserve">
<g>
	<g>
		<g>
			<path fill="#00AA5D" d="M68.999,28.102c16.309-1.854,60.303-7.016,66.695-9.148c0,0,23.762-4.589,24.254,22.288l6.267,127.835
				c0,0,0.945,6.721-3.399,10.756c-9.155,8.513-35.911,25.939-111.039,13.502c0,0-23.814-5.469-20.75-39.118
				c2.47-27.086,17.477-35.617,37.141-36.274c0,0-10.552-61.529-7.477-83.175C61.286,30.589,65.221,28.531,68.999,28.102z"/>
		</g>
	</g>
	<g>
		<g>
			<path fill="#EE1A13" d="M49.999,121.908c-10.236,4.802-17.353,14.486-18.972,32.309c-3.064,33.648,20.75,39.118,20.75,39.118
				c8.893,1.475,17.058,2.5,24.638,3.198C83.657,146.909,62.637,128.37,49.999,121.908z"/>
		</g>
	</g>
	<g>
		<g>
			<path fill="#EE1A13" d="M147.021,189.687c7.855-3.338,12.794-7.068,15.795-9.855c4.344-4.035,3.399-10.756,3.399-10.756
				l-0.655-13.334C162.233,157.575,146.654,167.572,147.021,189.687z"/>
		</g>
	</g>
	<g>
		<path fill="#EE1A13" d="M160.765,7.199c-3.331-4.75-6.645-5.193-8.836-4.721c-5.713,1.221-8.89,10.072-10.426,16.229
			c-3.265-0.235-5.646,0.211-5.646,0.211c-6.393,2.133-50.388,7.297-66.697,9.149c-3.778,0.432-7.71,2.49-8.304,6.668
			c-0.595,4.188-0.679,9.893-0.422,16.328l13.205-9.321c0,0,9.422,11.063,10.324,12.119c0.902,1.055,16.576-12.015,16.576-12.015
			l14.614,15.414l9.118-18.192L144.49,57.26l15.386-19.204c-0.326-3.337-1.061-6.093-2.065-8.396
			C165.834,19.792,163.49,10.852,160.765,7.199z M153.241,9.125c0.007,0.002,0.718,0.206,1.986,2.017
			c0.444,0.631,3.471,5.471-1.451,12.617c-1.732-1.657-3.666-2.809-5.613-3.583C149.638,14.606,151.912,9.567,153.241,9.125z"/>
	</g>
	<g>
		<g>
			<path fill="#FFFFFF" d="M168.142,27.576c-1.271-1.02-3.123-0.813-4.14,0.456l-20.02,24.987l-17.904-16.108
				c-0.722-0.647-1.71-0.897-2.648-0.676c-0.94,0.223-1.712,0.89-2.065,1.789l-6.021,15.356l-14.205-14.975
				c-0.573-0.602-1.396-0.916-2.209-0.918c-0.835,0.024-1.62,0.396-2.162,1.026L85.622,51.491l-9.905-11.626
				c-0.986-1.154-2.691-1.375-3.941-0.494L48.995,55.461c-1.325,0.938-1.643,2.775-0.705,4.104c0.938,1.331,2.775,1.647,4.106,0.705
				l20.582-14.536l10.391,12.197c0.559,0.655,1.375,1.034,2.236,1.036c0.002,0,0.004,0,0.007,0c0.859,0,1.677-0.374,2.233-1.026
				l11.264-13.114l15.151,15.968c0.561,0.592,1.335,0.918,2.135,0.918c0.188,0,0.376-0.019,0.565-0.055
				c0.989-0.192,1.811-0.878,2.179-1.813l6.159-15.711l17.06,15.349c0.603,0.542,1.413,0.809,2.21,0.746
				c0.809-0.065,1.551-0.461,2.06-1.094l21.971-27.419C169.615,30.445,169.411,28.593,168.142,27.576z"/>
		</g>
		<g>
			<path fill="#FFFFFF" d="M78.116,90.645c1.945,0,4.341-0.225,6.843-0.643c-0.463,3.039-0.935,5.479-1.2,6.115
				c-0.962,1.302-0.697,3.123,0.604,4.078c0.521,0.376,1.125,0.571,1.721,0.571c0.901,0,1.782-0.408,2.345-1.176
				c0.715-0.976,1.454-4.046,2.092-7.748c1.636,1.434,3.357,2.871,5.407,4.275c0.501,0.354,1.086,0.53,1.658,0.53
				c0.923,0,1.823-0.439,2.398-1.238c0.912-1.322,0.592-3.135-0.737-4.066c-1.885-1.312-3.389-2.625-4.917-3.967
				c3.339-1.403,6.086-3.246,7.294-5.582c0.736-1.422,0.182-3.173-1.231-3.91c-1.443-0.75-3.184-0.208-3.923,1.236
				c-0.553,1.067-2.375,2.111-4.691,3.022c0.288-3.022,0.459-5.682,0.387-7.016c-0.099-1.607-1.472-2.926-3.06-2.754
				c-1.6,0.08-2.847,1.454-2.745,3.054c0.038,0.991-0.024,2.466-0.156,4.107c-1.248-1.293-2.478-2.56-3.935-3.956
				c-1.156-1.106-3-1.062-4.109,0.093c-1.104,1.159-1.082,3.001,0.087,4.107c1.729,1.65,3.214,3.198,4.667,4.689
				c-2.59,0.403-5.018,0.547-6.678,0.259c-1.66-0.288-3.104,0.779-3.37,2.355c-0.286,1.576,0.769,3.083,2.355,3.371
				C76.005,90.583,76.979,90.645,78.116,90.645z"/>
		</g>
		<g>
			<path fill="#FFFFFF" d="M116.383,172.091c1.199-0.288,1.926-1.487,1.641-2.674c-0.286-1.209-1.485-1.948-2.675-1.641
				c-0.902,0.215-2.416-0.317-4.107-1.188c1.898-1.351,3.515-2.581,4.25-3.311c0.884-0.859,0.943-2.315,0.041-3.133
				c-0.848-0.892-2.261-0.921-3.123-0.062c-0.563,0.532-1.441,1.228-2.458,1.976c0.123-1.36,0.235-2.715,0.317-4.25
				c0.052-1.228-0.89-2.262-2.119-2.325c-1.221-0.049-2.283,0.881-2.326,2.102c-0.093,1.833-0.238,3.461-0.369,5.059
				c-1.524-1.303-2.826-2.622-3.491-3.72c-0.668-1.104-2.01-1.403-3.053-0.766c-1.056,0.622-1.404,1.986-0.761,3.052
				c0.309,0.513,0.761,1.105,1.334,1.761c0.973,1.127,2.312,2.398,3.809,3.617c-1.977,1.271-3.634,2.211-4.126,2.386
				c-1.233,0.093-2.152,1.167-2.048,2.396c0.047,0.482,0.232,0.931,0.527,1.272c0.453,0.532,1.129,0.82,1.858,0.768
				c0.929-0.084,3.061-1.188,5.51-2.685c0,1.671,0.042,3.382,0.257,5.268c0.038,0.468,0.235,0.891,0.521,1.226
				c0.463,0.533,1.17,0.832,1.926,0.758c1.219-0.144,2.099-1.238,1.969-2.468c-0.187-1.739-0.187-3.267-0.177-4.824
				C111.988,171.906,114.438,172.559,116.383,172.091z"/>
		</g>
		<g>
			<path fill="#FFFFFF" d="M154.09,120.114c-0.33-1.392-1.72-2.252-3.093-1.893c-1.045,0.245-2.809-0.369-4.766-1.384
				c2.193-1.568,4.069-2.991,4.928-3.831c1.023-1.002,1.085-2.684,0.042-3.636c-0.985-1.034-2.624-1.067-3.617-0.072
				c-0.655,0.616-1.68,1.425-2.847,2.293c0.131-1.576,0.264-3.145,0.36-4.924c0.059-1.423-1.024-2.622-2.458-2.694
				c-1.406-0.062-2.643,1.015-2.696,2.428c-0.103,2.13-0.264,4.013-0.42,5.869c-1.772-1.506-3.277-3.044-4.057-4.315
				c-0.767-1.279-2.324-1.626-3.535-0.888c-1.227,0.725-1.626,2.303-0.876,3.543c0.356,0.595,0.876,1.278,1.545,2.036
				c1.127,1.312,2.684,2.778,4.415,4.19c-2.297,1.476-4.221,2.569-4.785,2.778c-1.425,0.1-2.5,1.35-2.375,2.775
				c0.06,0.552,0.264,1.075,0.612,1.476c0.522,0.614,1.312,0.943,2.151,0.89c1.084-0.103,3.554-1.381,6.39-3.113
				c0,1.938,0.043,3.915,0.297,6.104c0.041,0.544,0.269,1.036,0.604,1.422c0.535,0.617,1.353,0.964,2.236,0.88
				c1.413-0.172,2.437-1.442,2.274-2.866c-0.207-2.02-0.207-3.79-0.197-5.594c2.87,1.416,5.708,2.173,7.972,1.631
				C153.576,122.889,154.428,121.5,154.09,120.114z"/>
		</g>
		<g>
			<path fill="#FFFFFF" d="M73.548,72.604c-0.175-0.437,0.063-1.55,0.252-2.442c0.434-2.041,1.026-4.833-0.873-7.356
				c-0.977-1.303-2.828-1.562-4.123-0.583c-1.301,0.979-1.562,2.826-0.583,4.124c0.288,0.384,0.05,1.504-0.183,2.591
				c-0.245,1.149-0.527,2.492-0.413,3.9c-0.002,0.22,0.017,0.444,0.064,0.667c0.049,0.34,0.152,1.132,0.758,1.948
				c0.574,0.77,1.458,1.188,2.365,1.188c0.487,0,0.979-0.123,1.432-0.375C73.539,75.545,74.093,73.979,73.548,72.604z"/>
		</g>
		<g>
			<path fill="#FFFFFF" d="M111.079,69.227c-0.058-0.444-0.21-0.856-0.441-1.211c-0.37-1.168-0.655-2.502-0.874-4.059
				c-0.225-1.614-1.722-2.747-3.321-2.511c-1.613,0.223-2.735,1.712-2.512,3.322c0.223,1.6,0.602,3.778,1.434,6.016
				c0.229,1.024,0.689,1.981,1.356,2.816c0.581,0.72,1.434,1.101,2.301,1.101c0.561,0,1.125-0.156,1.621-0.487
				c1.269-0.84,1.691-2.507,0.975-3.848C111.422,70.007,111.245,69.628,111.079,69.227z"/>
		</g>
		<g>
			<path fill="#FFFFFF" d="M147.492,70.805c0.088,0.307,0.225,0.583,0.427,0.874c0.578,0.823,1.521,1.291,2.476,1.291
				c0.474,0,0.952-0.115,1.391-0.362c1.173-0.655,1.749-1.964,1.441-3.221c-0.004-0.341,0.019-0.842,0.034-1.279
				c0.012-0.439,0.024-0.746,0.021-0.988c0.106-0.49,0.223-0.974,0.312-1.339c0.392-1.6,0.729-2.981,0.527-4.274
				c-0.244-1.61-1.748-2.763-3.363-2.511c-1.606,0.247-2.715,1.7-2.468,3.308c0.006,0.345-0.25,1.391-0.419,2.084
				C147.362,66.461,146.793,68.8,147.492,70.805z"/>
		</g>
		<g>
			<path fill="#FFFFFF" d="M126.389,66.277c0.454,0.254,0.948,0.374,1.435,0.374c1.031,0,2.035-0.544,2.574-1.509
				c0.964-1.727,0.893-3.812,0.838-5.488c-0.012-0.338-0.025-0.669-0.025-0.976c0-1.626-1.317-2.943-2.943-2.943
				c-1.629,0-2.945,1.317-2.945,2.943c0,0.372,0.011,0.768,0.027,1.176c0.022,0.712,0.066,2.043-0.094,2.415
				C124.462,63.689,124.968,65.482,126.389,66.277z"/>
		</g>
		<g>
			<path fill="#FFFFFF" d="M138.657,89.708c0.038,0.497,0.198,0.986,0.484,1.413c0.55,0.964,1.644,1.634,2.742,1.634
				c0.185,0,0.371-0.017,0.554-0.058c1.306-0.288,2.278-1.497,2.334-2.833c0.016-0.381-0.043-0.76-0.172-1.12
				c-0.543-1.504-1.214-2.943-1.863-4.334c-0.438-0.94-0.875-1.873-1.257-2.807c-0.616-1.506-2.331-2.231-3.839-1.612
				c-1.506,0.617-2.229,2.334-1.613,3.84c0.415,1.02,0.89,2.039,1.37,3.065C137.848,87.863,138.28,88.792,138.657,89.708z"/>
		</g>
		<g>
			<path fill="#FFFFFF" d="M113.514,92.655c0.192,1.341,0.427,3.01,1.54,4.378c0.588,0.722,1.456,1.104,2.327,1.104
				c0.647,0,1.3-0.214,1.837-0.653c1.263-1.026,1.473-2.852,0.444-4.113c-0.131-0.24-0.247-1.056-0.314-1.543
				c-0.122-0.852-0.247-1.734-0.597-2.583c-0.608-1.497-2.306-2.197-3.809-1.598c-1.501,0.6-2.229,2.319-1.644,3.828
				C113.375,91.662,113.458,92.26,113.514,92.655z"/>
		</g>
		<g>
			<path fill="#FFFFFF" d="M81.803,114.983c-0.156-1.622-1.622-2.812-3.217-2.644c-1.529,0.148-2.674,1.446-2.657,2.955
				c-0.142,0.317-0.583,0.918-0.859,1.292c-0.348,0.476-0.674,0.936-0.921,1.354c-0.821,1.405-0.351,3.209,1.055,4.032
				c0.469,0.274,0.982,0.401,1.486,0.401c1.012,0,1.996-0.521,2.545-1.456c0.153-0.264,0.373-0.552,0.592-0.854
				C80.747,118.804,82.01,117.079,81.803,114.983z"/>
		</g>
		<g>
			<path fill="#FFFFFF" d="M109.666,123.122c-0.146,0.501-0.926,1.943-1.389,2.593c-0.518,0.346-0.931,0.861-1.148,1.495
				c-0.527,1.537,0.291,3.214,1.828,3.742c0.297,0.103,0.623,0.151,0.952,0.151c0.548,0,1.11-0.137,1.565-0.394
				c1.769-0.993,3.673-5.087,3.935-6.282c0.343-1.552-0.628-3.03-2.171-3.418C111.686,120.615,110.103,121.596,109.666,123.122z"/>
		</g>
		<g>
			<path fill="#FFFFFF" d="M142.348,146.051c-0.623-1.501-2.345-2.217-3.849-1.593c-1.504,0.624-2.215,2.346-1.594,3.848
				c0.351,0.842,0.778,1.611,1.19,2.355c0.276,0.499,0.556,1.007,0.777,1.483c-0.055,0.6,0.072,1.214,0.385,1.754
				c0.34,0.789,0.884,1.374,1.617,1.748c0.421,0.213,0.878,0.317,1.333,0.317c0.592,0,1.185-0.178,1.689-0.533
				c0.89-0.623,1.365-1.685,1.235-2.765c-0.228-1.871-1.108-3.459-1.886-4.86C142.919,147.216,142.591,146.636,142.348,146.051z"/>
		</g>
		<g>
			<path fill="#FFFFFF" d="M90.155,136.828c-0.75,0.324-1.516,0.597-2.276,0.871c-1.593,0.571-3.238,1.164-4.868,2.166
				c-1.383,0.854-1.815,2.67-0.963,4.054c0.558,0.904,1.523,1.4,2.512,1.4c0.527,0,1.06-0.141,1.542-0.437
				c1.108-0.684,2.401-1.149,3.771-1.641c0.881-0.316,1.761-0.635,2.629-1.015c1.495-0.646,2.176-2.379,1.528-3.872
				C93.381,136.861,91.649,136.168,90.155,136.828z"/>
		</g>
		<g>
			<path fill="#FFFFFF" d="M96.79,186.615c-0.979,0.59-4.734,0.89-5.778,0.463c-1.396-0.787-3.177-0.307-3.99,1.083
				c-0.817,1.406-0.343,3.21,1.062,4.028c1.164,0.679,2.919,0.977,4.771,0.977c2.886,0,6.001-0.72,7.462-1.836
				c1.293-0.985,1.563-2.849,0.578-4.142C99.911,185.894,98.085,185.622,96.79,186.615z"/>
		</g>
		<g>
			<path fill="#FFFFFF" d="M128.096,183.387c-0.761,0.22-1.689,0.363-2.668,0.511c-1.041,0.158-2.12,0.321-3.211,0.609
				c-0.394,0.104-0.816,0.234-1.257,0.37c-0.963,0.297-2.754,0.851-3.323,0.602c-1.5-0.65-3.228,0.038-3.874,1.533
				c-0.646,1.489,0.038,3.223,1.533,3.871c0.901,0.391,1.83,0.538,2.744,0.538c1.691,0,3.333-0.505,4.658-0.915
				c0.364-0.112,0.717-0.221,1.031-0.306c0.774-0.205,1.65-0.337,2.578-0.478c1.13-0.17,2.301-0.349,3.44-0.682
				c1.563-0.457,2.456-2.093,2-3.652C131.291,183.824,129.642,182.929,128.096,183.387z"/>
		</g>
		<g>
			<path fill="#FFFFFF" d="M139.353,170.822c-1.48,0.496-2.305,2.053-1.909,3.542c-0.051,0.527-0.631,1.703-1.034,2.082
				c-1.308,0.917-1.652,2.713-0.761,4.05c0.569,0.849,1.502,1.31,2.452,1.31c0.564,0,1.13-0.161,1.633-0.496
				c2.057-1.371,4.367-5.602,3.35-8.634C142.565,171.134,140.897,170.302,139.353,170.822z"/>
		</g>
		<g>
			<path fill="#FFFFFF" d="M130.825,148.063c-1.192-0.338-2.432,0.113-3.146,1.041c-0.395,0.02-0.965-0.017-1.332-0.134
				c-1.552-0.516-3.21,0.336-3.716,1.878c-0.505,1.544,0.334,3.212,1.881,3.716c0.803,0.267,1.83,0.437,2.885,0.437
				c1.154,0,2.34-0.205,3.306-0.718c1.072-0.568,1.836-1.484,2.147-2.58C133.296,150.138,132.389,148.509,130.825,148.063z"/>
		</g>
		<g>
			<path fill="#FFFFFF" d="M89.954,154.096c-1.014-0.851-2.425-0.9-3.48-0.223c-0.672-0.041-1.893-0.434-2.301-0.723
				c-1.288-0.99-3.133-0.753-4.125,0.53c-0.995,1.288-0.761,3.137,0.524,4.133c1.061,0.818,3.632,1.952,6.023,1.952
				c1.427,0,2.792-0.406,3.725-1.523C91.366,156.996,91.201,155.14,89.954,154.096z"/>
		</g>
		<g>
			<path fill="#FFFFFF" d="M156.145,133.112c-1.251-1.041-3.108-0.866-4.146,0.384c-1.039,1.252-0.869,3.109,0.384,4.148
				c0.885,0.733,1.738,2.094,2.125,3.382c0.381,1.278,1.552,2.101,2.818,2.101c0.281,0,0.566-0.039,0.848-0.125
				c1.559-0.468,2.443-2.109,1.976-3.667C159.427,136.919,157.928,134.592,156.145,133.112z"/>
		</g>
	</g>
</g>
</svg>
