<?xml version="1.0" encoding="utf-8"?>
<!-- Generator: Adobe Illustrator 16.0.0, SVG Export Plug-In . SVG Version: 6.00 Build 0)  -->
<!DOCTYPE svg PUBLIC "-//W3C//DTD SVG 1.1//EN" "http://www.w3.org/Graphics/SVG/1.1/DTD/svg11.dtd">
<svg version="1.1" id="Capa_1" xmlns="http://www.w3.org/2000/svg" xmlns:xlink="http://www.w3.org/1999/xlink" x="0px" y="0px"
	 width="200px" height="200px" viewBox="0 0 200 200" enable-background="new 0 0 200 200" xml:space="preserve">
<g>
	<g>
		<path fill="#EBEDED" d="M163.501,109.79c-0.286-14.86-2.059-24.446-3.945-30.509c-3.532-13.685-16.064-21.602-28.907-26.177
			c-11.752-4.188-44.76-4.543-54.887-1.544c-14.364,4.253-29.684,12.35-33.655,27.721c-1.649,5.296-3.205,13.297-3.765,25.136
			c0.309,0.071,85.232,19.367,104.438-15.611C142.779,88.806,142.638,106.902,163.501,109.79z"/>
	</g>
	<g>
		<g>
			<g>
				<path fill="#EBEDED" d="M155.573,102.952c0,0,15.081,8.348,12.739,25.496c0,0,20.616,8.586,6.346,25.485
					c0,0,14.873,21.453-6.524,23.92c0,0-11.224,5.505-34.478-2.737C133.656,175.116,156.257,113.826,155.573,102.952z"/>
			</g>
			<g>
				<path fill="#D9DADB" d="M164.307,180.892c-0.242,0-0.482-0.102-0.651-0.3c-2.059-2.408-1.762-12.141-0.921-14.787
					c0.329-1.032,0.94-1.905,1.531-2.749c0.68-0.971,1.323-1.888,1.493-2.967c0.241-1.523-0.321-3.125-0.864-4.673
					c-0.16-0.456-0.317-0.904-0.453-1.345c-0.868-2.809-1.255-5.82-1.628-8.732c-0.119-0.928-0.237-1.852-0.371-2.762
					c-0.236-1.607-0.67-3.345-1.13-5.185c-0.852-3.409-1.734-6.936-1.413-10.009c0.049-0.47,0.468-0.811,0.94-0.762
					c0.47,0.049,0.811,0.47,0.762,0.94c-0.289,2.774,0.555,6.151,1.371,9.417c0.471,1.882,0.915,3.66,1.164,5.352
					c0.135,0.92,0.254,1.854,0.375,2.792c0.364,2.84,0.741,5.776,1.565,8.444c0.13,0.42,0.281,0.849,0.433,1.283
					c0.585,1.667,1.248,3.557,0.939,5.507c-0.233,1.469-1.02,2.593-1.782,3.681c-0.542,0.772-1.053,1.502-1.302,2.285
					c-0.837,2.635-0.791,11.539,0.591,13.156c0.307,0.359,0.265,0.899-0.094,1.206C164.701,180.824,164.503,180.892,164.307,180.892
					z"/>
			</g>
			<g>
				<path fill="#D9DADB" d="M157.18,182.378c-0.035,0-0.07-0.002-0.106-0.007c-0.469-0.058-0.802-0.484-0.745-0.954
					c0.049-0.396,0.103-0.738,0.152-1.05c0.172-1.086,0.258-1.631-0.123-2.856c-0.164-0.524-0.406-1.051-0.664-1.607
					c-0.443-0.961-0.902-1.954-1.036-3.105c-0.293-2.519,0.358-5.17,0.988-7.735c0.476-1.938,0.926-3.769,0.951-5.428
					c0.007-0.473,0.407-0.847,0.869-0.843c0.473,0.008,0.85,0.396,0.843,0.869c-0.029,1.853-0.523,3.864-1,5.81
					c-0.594,2.417-1.208,4.917-0.95,7.129c0.102,0.879,0.485,1.708,0.889,2.584c0.269,0.583,0.547,1.185,0.744,1.817
					c0.499,1.606,0.365,2.456,0.179,3.631c-0.046,0.295-0.098,0.619-0.144,0.993C157.975,182.061,157.606,182.378,157.18,182.378z"
					/>
			</g>
			<g>
				<path fill="#D9DADB" d="M170.363,178.879c-0.007,0-0.014,0-0.021,0c-0.486-0.011-0.871-0.414-0.86-0.9
					c0.025-1.094,0.8-2.338,1.621-3.655c0.553-0.887,1.125-1.805,1.383-2.564l0.277-0.799c0.715-2.045,1.694-4.846,1.473-6.606
					c-0.149-1.187-1.031-2.153-1.964-3.176c-0.856-0.939-1.742-1.91-2.21-3.174c-1.363-3.688-0.294-6.836,0.74-9.882
					c0.627-1.846,1.219-3.589,1.31-5.459c0.205-4.212-1.438-6.795-3.517-10.064c-2.673-4.202-5.999-9.432-6.032-20.048
					c-0.001-0.486,0.391-0.881,0.877-0.883c0.001,0,0.002,0,0.003,0c0.485,0,0.879,0.392,0.88,0.877
					c0.032,10.106,3.074,14.888,5.758,19.108c2.158,3.394,4.022,6.324,3.79,11.094c-0.102,2.117-0.762,4.061-1.401,5.941
					c-0.979,2.881-1.903,5.603-0.756,8.705c0.349,0.941,1.083,1.747,1.859,2.598c1.078,1.181,2.192,2.403,2.41,4.143
					c0.273,2.17-0.785,5.197-1.557,7.407l-0.273,0.786c-0.324,0.951-0.95,1.956-1.556,2.928c-0.629,1.009-1.341,2.153-1.355,2.764
					C171.231,178.498,170.84,178.879,170.363,178.879z"/>
			</g>
		</g>
		<g>
			<g>
				<path fill="#EBEDED" d="M44.426,103.577c0,0-15.081,8.348-12.738,25.494c0,0-20.617,8.587-6.347,25.486
					c0,0-14.872,21.452,6.524,23.919c0,0,11.225,5.506,34.478-2.737C66.343,175.739,43.742,114.451,44.426,103.577z"/>
			</g>
			<g>
				<path fill="#D9DADB" d="M35.693,181.516c-0.197,0-0.394-0.067-0.555-0.205c-0.359-0.307-0.402-0.847-0.095-1.206
					c1.382-1.619,1.427-10.522,0.589-13.157c-0.249-0.783-0.761-1.513-1.302-2.286c-0.761-1.087-1.548-2.211-1.781-3.68
					c-0.308-1.951,0.354-3.84,0.939-5.507c0.153-0.435,0.303-0.863,0.433-1.284c0.824-2.666,1.201-5.6,1.565-8.438
					c0.121-0.941,0.241-1.876,0.376-2.799c0.248-1.692,0.693-3.47,1.164-5.352c0.816-3.266,1.66-6.643,1.37-9.417
					c-0.049-0.47,0.292-0.891,0.762-0.94c0.476-0.051,0.891,0.292,0.94,0.762c0.322,3.074-0.56,6.6-1.412,10.009
					c-0.46,1.84-0.894,3.578-1.13,5.186c-0.134,0.912-0.252,1.838-0.372,2.769c-0.374,2.909-0.76,5.917-1.627,8.725
					c-0.136,0.44-0.293,0.889-0.453,1.345c-0.543,1.548-1.105,3.149-0.864,4.674c0.17,1.078,0.812,1.995,1.492,2.965
					c0.591,0.844,1.202,1.717,1.531,2.749c0.841,2.646,1.14,12.377-0.919,14.788C36.175,181.415,35.935,181.516,35.693,181.516z"/>
			</g>
			<g>
				<path fill="#D9DADB" d="M42.819,183.001c-0.426,0-0.794-0.317-0.848-0.75c-0.046-0.374-0.097-0.698-0.144-0.992
					c-0.186-1.176-0.32-2.025,0.179-3.631c0.198-0.633,0.476-1.236,0.745-1.819c0.405-0.876,0.787-1.704,0.89-2.583
					c0.257-2.213-0.357-4.713-0.95-7.13c-0.478-1.945-0.971-3.957-1-5.81c-0.007-0.473,0.37-0.861,0.843-0.869
					c0.454,0.016,0.861,0.37,0.869,0.843c0.025,1.66,0.475,3.49,0.951,5.428c0.63,2.564,1.281,5.216,0.988,7.736
					c-0.134,1.15-0.593,2.143-1.036,3.102c-0.258,0.558-0.501,1.084-0.665,1.61c-0.38,1.224-0.294,1.769-0.123,2.854
					c0.049,0.312,0.103,0.654,0.152,1.049c0.058,0.469-0.275,0.896-0.744,0.954C42.889,183,42.854,183.001,42.819,183.001z"/>
			</g>
			<g>
				<path fill="#D9DADB" d="M29.637,179.503c-0.477,0-0.869-0.381-0.88-0.86c-0.014-0.612-0.727-1.757-1.357-2.767
					c-0.605-0.971-1.231-1.975-1.556-2.925l-0.279-0.804c-0.769-2.205-1.823-5.225-1.55-7.389c0.219-1.74,1.333-2.961,2.41-4.143
					c0.777-0.852,1.51-1.656,1.859-2.598c1.148-3.104,0.223-5.825-0.756-8.708c-0.638-1.879-1.298-3.822-1.4-5.938
					c-0.238-4.898,2.249-8.753,4.654-12.481c2.819-4.371,5.482-8.498,3.548-13.999c-0.161-0.459,0.08-0.961,0.539-1.123
					c0.459-0.162,0.962,0.08,1.123,0.539c2.219,6.314-0.805,11.003-3.73,15.537c-2.358,3.656-4.585,7.108-4.375,11.442
					c0.091,1.869,0.683,3.611,1.309,5.457c1.035,3.046,2.105,6.196,0.74,9.885c-0.467,1.263-1.353,2.233-2.209,3.173
					c-0.934,1.023-1.815,1.99-1.964,3.176c-0.221,1.754,0.754,4.549,1.466,6.589l0.283,0.817c0.258,0.758,0.83,1.674,1.383,2.561
					c0.822,1.319,1.599,2.564,1.624,3.659c0.011,0.486-0.375,0.889-0.86,0.9C29.651,179.503,29.644,179.503,29.637,179.503z"/>
			</g>
		</g>
		<g>
			<path fill="#FFC19B" d="M163.277,125.663c1.062-24.283-1.231-38.386-3.721-46.381c-3.532-13.685-16.064-21.602-28.907-26.177
				c-11.752-4.188-44.76-4.543-54.887-1.544c-14.364,4.253-29.684,12.35-33.655,27.721c-2.491,7.996-4.785,22.099-3.721,46.381
				c-3.689,0.479-6.55,3.918-6.55,8.095c0,4.505,3.324,8.158,7.431,8.158c0.053,0,0.107-0.009,0.161-0.01
				c1.216,13.536,4.557,35.748,15.436,43.418c8.553,6.033,22.709,10.718,45.967,10.24c23.259,0.478,37.415-4.208,45.969-10.24
				c10.88-7.67,14.222-29.882,15.437-43.418c0.054,0.001,0.109,0.01,0.163,0.01c4.104,0,7.43-3.652,7.43-8.158
				C169.829,129.581,166.968,126.141,163.277,125.663z"/>
		</g>
		<g>
			<path fill="#CC8C6B" d="M98.545,153.938c-0.569,0-1.051-0.44-1.093-1.017c-0.044-0.604,0.409-1.13,1.014-1.175
				c3.296-0.242,5.386-1.025,5.885-2.204c0.541-1.28-0.834-3.01-0.849-3.027c-0.429-0.596-0.833-1.008-1.261-1.445
				c-1.538-1.57-3.281-3.35-4.776-10.918c-0.117-0.594,0.269-1.171,0.864-1.289c0.596-0.114,1.171,0.27,1.289,0.864
				c1.368,6.926,2.803,8.391,4.19,9.808c0.468,0.477,0.952,0.971,1.428,1.639c0.041,0.044,2.211,2.68,1.135,5.223
				c-0.872,2.061-3.406,3.218-7.745,3.538C98.6,153.937,98.573,153.938,98.545,153.938z"/>
		</g>
		<g>
			<g>
				<path fill="#FF7CCA" d="M148.344,166.29c-0.942,0-1.843-0.261-2.65-0.772c-0.827-0.388-1.584-0.925-2.224-1.594
					c-0.545-0.569-0.973-1.205-1.273-1.877c-0.908-1.29-1.376-2.56-1.396-3.796c-0.027-1.61,0.714-3.091,2.201-4.403
					c0.275-0.243,0.554-0.469,0.834-0.679c0.075-0.12,0.155-0.235,0.24-0.346c0.284-0.372,0.677-0.77,1.209-1.097
					c0.977-0.88,2.127-1.389,3.421-1.203c1.366,0.2,2.716,0.865,3.861,1.869c0.957,0.678,1.798,1.644,2.493,2.875
					c1.126,1.992,1.088,4.501,0,6.544c-0.35,2.43-2.216,4.022-5.155,4.382c-0.303,0.038-0.606,0.056-0.908,0.057
					C148.779,166.276,148.561,166.29,148.344,166.29z M146.862,162.683c0.302,0.25,0.635,0.456,1,0.605
					c1.585,0.653,3.131,0.494,4.377-0.419c0.573-0.599,1.054-1.295,1.388-2.033c-0.004-0.153-0.014-0.308-0.032-0.463
					c-0.305,0.436-0.709,0.867-1.239,1.274c-1.347,1.037-3.028,1.401-4.674,1.028C147.407,162.695,147.133,162.697,146.862,162.683z
					 M143.596,161.422c0.531,0.709,1.169,1.367,1.805,1.943c-0.393-0.409-0.73-0.873-1.012-1.369
					C144.097,161.83,143.832,161.637,143.596,161.422z M146.935,155.49c-0.702,0.322-1.081,0.801-1.126,1.423
					c-0.066,0.908,0.583,1.979,1.544,2.549c0.515,0.306,1.551,0.707,2.695-0.032c0.029-0.019,0.057-0.038,0.085-0.057l-0.045-0.045
					C148.917,158.152,147.861,156.866,146.935,155.49z M148.544,155.189c0.632,0.888,1.322,1.733,2.066,2.529
					c0.206-0.342,0.327-0.781,0.354-1.272C150.4,155.769,149.526,155.257,148.544,155.189z M148.869,152.733
					c0.163,0.031,0.323,0.071,0.48,0.119c-0.066-0.043-0.135-0.082-0.205-0.118C149.052,152.732,148.961,152.731,148.869,152.733z"
					/>
			</g>
		</g>
		<g>
			<g>
				<path fill="#FF7CCA" d="M54.305,166.29c-0.216,0-0.435-0.014-0.655-0.042c-0.302-0.001-0.606-0.02-0.909-0.057
					c-2.939-0.36-4.805-1.953-5.154-4.384c-1.087-2.042-1.125-4.551-0.001-6.542c0.696-1.233,1.54-2.201,2.498-2.878
					c1.144-1.002,2.492-1.666,3.857-1.866c1.296-0.188,2.448,0.324,3.427,1.206c0.53,0.327,0.921,0.723,1.204,1.093
					c0.084,0.111,0.164,0.226,0.239,0.345c0.282,0.211,0.561,0.438,0.837,0.681c1.487,1.312,2.228,2.794,2.201,4.404
					c-0.021,1.237-0.489,2.506-1.396,3.795c-0.301,0.672-0.728,1.308-1.272,1.876c-0.641,0.669-1.399,1.207-2.227,1.595
					C56.147,166.029,55.247,166.29,54.305,166.29z M50.408,162.865c1.247,0.916,2.796,1.076,4.382,0.422
					c0.358-0.148,0.687-0.35,0.985-0.594c-0.282,0.017-0.568,0.013-0.854-0.008c-1.63,0.354-3.292-0.013-4.627-1.039
					c-0.53-0.408-0.934-0.839-1.239-1.274c-0.018,0.155-0.028,0.31-0.032,0.464C49.357,161.572,49.836,162.268,50.408,162.865z
					 M58.26,161.997c-0.28,0.494-0.616,0.955-1.006,1.363c0.634-0.574,1.27-1.231,1.8-1.938
					C58.818,161.637,58.553,161.83,58.26,161.997z M52.516,159.373c0.028,0.019,0.057,0.039,0.086,0.058
					c1.143,0.739,2.178,0.338,2.694,0.032c0.961-0.569,1.61-1.641,1.544-2.549c-0.045-0.623-0.424-1.101-1.126-1.423
					c-0.927,1.377-1.984,2.663-3.154,3.838L52.516,159.373z M51.685,156.446c0.027,0.49,0.147,0.93,0.353,1.271
					c0.744-0.795,1.434-1.64,2.067-2.528C53.123,155.257,52.249,155.77,51.685,156.446z M53.506,152.735
					c-0.07,0.036-0.138,0.075-0.204,0.118c0.156-0.048,0.316-0.088,0.479-0.119C53.688,152.732,53.597,152.732,53.506,152.735z"/>
			</g>
		</g>
		<g>
			<path fill="#472313" d="M99.453,178.407c-1.877,0-3.204-0.296-3.329-0.325c-9.167-2.037-9.706-13.05-8.708-18.589
				c0.168-0.933,1.06-1.554,1.994-1.385c0.933,0.168,1.553,1.06,1.385,1.993c-0.029,0.164-2.161,12.8,6.089,14.633
				c0.066,0.015,5.651,1.227,9.421-2.015c2.868-2.465,4.093-6.927,3.642-13.262c-0.067-0.946,0.645-1.767,1.59-1.834
				c0.938-0.072,1.767,0.644,1.834,1.59c0.534,7.496-1.1,12.923-4.856,16.132C105.574,177.859,102.005,178.407,99.453,178.407z"/>
		</g>
		<g>
			<g>
				<path fill="#472313" d="M74.558,147.688c-0.033,0-0.066-0.001-0.099-0.002c-0.943-0.054-1.664-0.862-1.611-1.805
					c0.003-0.049,0.256-4.977-1.462-8.572c-0.955-2.003-2.285-3.12-4.065-3.413c-1.603-0.265-2.757-0.056-3.527,0.638
					c-1.832,1.653-1.81,6.071-1.586,9.736c0.058,0.943-0.66,1.754-1.603,1.812c-0.94,0.058-1.755-0.66-1.812-1.604
					c-0.302-4.942-0.183-9.875,2.709-12.485c1.571-1.417,3.716-1.913,6.377-1.474c2.883,0.477,5.164,2.314,6.595,5.315
					c2.102,4.401,1.804,10.006,1.79,10.243C76.212,146.987,75.458,147.688,74.558,147.688z"/>
			</g>
			<g>
				<path fill="#472313" d="M73.092,138.071c-0.302,0-0.491-0.061-0.611-0.1c-0.771-0.248-1.194-1.073-0.946-1.844
					c0.224-0.698,0.92-1.109,1.622-1c0.511-0.121,1.933-0.942,3.084-1.786c0.653-0.479,1.57-0.338,2.049,0.314
					c0.479,0.652,0.338,1.57-0.314,2.049C75.257,137.701,73.835,138.071,73.092,138.071z"/>
			</g>
			<g>
				<path fill="#472313" d="M67.527,133.786c-0.494,0-0.984-0.212-1.323-0.625c-0.423-0.514-0.615-0.749-0.387-5.802
					c0.042-0.945,0.847-1.68,1.786-1.633c0.944,0.043,1.675,0.843,1.632,1.787c-0.071,1.578-0.113,3.512-0.069,4.075
					c0.189,0.64-0.007,1.359-0.554,1.809C68.294,133.659,67.909,133.786,67.527,133.786z"/>
			</g>
			<g>
				<path fill="#472313" d="M60.792,138.422c-0.247,0-0.498-0.059-0.731-0.183c-1.164-0.62-4.302-2.958-4.656-3.223
					c-0.69-0.516-0.831-1.494-0.315-2.184c0.516-0.689,1.494-0.832,2.183-0.315c1.263,0.944,3.535,2.585,4.253,2.968
					c0.76,0.405,1.049,1.349,0.644,2.11C61.89,138.123,61.35,138.422,60.792,138.422z"/>
			</g>
		</g>
		<g>
			<g>
				<path fill="#472313" d="M130.608,147.689c-0.9,0-1.654-0.702-1.707-1.611c-0.014-0.236-0.312-5.841,1.788-10.244
					c1.431-3,3.712-4.838,6.596-5.314c2.66-0.441,4.805,0.056,6.376,1.472c2.89,2.606,3.01,7.541,2.71,12.484
					c-0.057,0.943-0.871,1.643-1.812,1.605c-0.943-0.058-1.661-0.869-1.604-1.812c0.223-3.667,0.243-8.086-1.586-9.737
					c-0.77-0.693-1.923-0.902-3.526-0.637c-1.781,0.294-3.111,1.41-4.065,3.411c-1.726,3.618-1.463,8.523-1.461,8.572
					c0.055,0.944-0.666,1.752-1.609,1.807C130.675,147.688,130.641,147.689,130.608,147.689z"/>
			</g>
			<g>
				<path fill="#472313" d="M132.073,138.071c-0.743,0-2.164-0.371-4.884-2.365c-0.653-0.479-0.794-1.396-0.315-2.049
					c0.478-0.653,1.396-0.795,2.049-0.315c1.153,0.844,2.576,1.665,3.085,1.786c0.701-0.109,1.397,0.302,1.622,1
					c0.248,0.771-0.176,1.596-0.947,1.844C132.563,138.01,132.374,138.071,132.073,138.071z"/>
			</g>
			<g>
				<path fill="#472313" d="M137.636,133.786c-0.383,0-0.767-0.127-1.086-0.389c-0.548-0.451-0.743-1.17-0.553-1.81
					c0.044-0.563,0.002-2.497-0.069-4.073c-0.043-0.944,0.688-1.744,1.632-1.787c0.935-0.065,1.744,0.687,1.787,1.632
					c0.229,5.053,0.036,5.288-0.388,5.803C138.62,133.574,138.13,133.786,137.636,133.786z"/>
			</g>
			<g>
				<path fill="#472313" d="M144.371,138.421c-0.559,0-1.099-0.301-1.38-0.829c-0.404-0.761-0.114-1.706,0.648-2.109
					c0.719-0.381,2.99-2.022,4.252-2.966c0.69-0.517,1.667-0.374,2.184,0.315c0.516,0.69,0.375,1.667-0.315,2.184
					c-0.354,0.265-3.492,2.604-4.66,3.224C144.867,138.363,144.617,138.421,144.371,138.421z"/>
			</g>
		</g>
		<g>
			<circle fill="#FFFFFF" cx="37.839" cy="138.305" r="1.38"/>
		</g>
		<g>
			<circle fill="#FFFFFF" cx="163.501" cy="138.305" r="1.381"/>
		</g>
		<g>
			<path fill="#EBEDED" d="M129.237,119.329c-0.264,0.954-0.442,2.453,0.972,2.678c0,0,12.437-2.412,13.616-1.737
				c0,0,2.833,1.656,3.085,1.737c0,0-0.242-9.795-16.379-3.86C130.199,118.269,129.368,118.867,129.237,119.329z"/>
		</g>
		<g>
			<path fill="#EBEDED" d="M74.8,119.329c0.267,0.954,0.444,2.453-0.97,2.678c0,0-12.437-2.412-13.618-1.737
				c0,0-2.83,1.656-3.083,1.737c0,0,0.243-9.795,16.38-3.86C73.84,118.269,74.672,118.867,74.8,119.329z"/>
		</g>
		<g>
			<path fill="#EDAD89" d="M163.44,121.166c0.663-15.182-0.146-21.887-1.334-30.106l-28.45-10.507c0,0-16.52-0.625-17.852-0.979
				c-1.333-0.354-28.757,4.217-29.901,4.788c-1.141,0.571-43.502,20.893-43.502,20.893s13.792,15.864,41.406,9.008
				c0,0,36.376,15.389,58.659-9.008C142.467,105.254,150.922,121.331,163.44,121.166z"/>
		</g>
		<g>
			<g>
				<path fill="#EBEDED" d="M38.386,125.663c0,0,5.827-0.362,4.015-20.409c0,0,13.699,17.339,39.122,4.536
					c0,0,54.56,15.551,61.144-18.84c0,0,0.581,20.646,21.011,24.073c0,0,6.679-20.403-1.694-33.835c0,0-4.027-27.236-25.865-24.03
					l-73.493-0.917c0,0-12.48-0.686-18.63,17.844C43.996,74.084,19.566,97.947,38.386,125.663z"/>
			</g>
			<g>
				<path fill="#D9DADB" d="M37.062,126.092c-0.197,0-0.395-0.065-0.559-0.201c-0.375-0.309-0.429-0.864-0.12-1.239
					c1.146-1.392,0.634-5.5,0.222-8.802c-0.262-2.104-0.51-4.09-0.399-5.534l0.032-0.416c0.321-4.197,0.867-8.826,3.289-10.629
					c0.057-0.042,0.119-0.078,0.184-0.105c2.835-1.196,5.208,1.4,6.94,3.294c0.319,0.349,0.623,0.682,0.912,0.972
					c0.585,0.588,1.085,1.211,1.569,1.814c1.05,1.31,1.956,2.441,3.484,2.996c3.726,1.351,10.065,0.804,12.618,0.503
					c4.594-0.538,9.669-1.972,15.972-4.512l0.96-0.392c3.541-1.456,7.202-2.96,11.049-1.108c0.48,0.231,0.959,0.466,1.439,0.702
					c4.725,2.315,9.188,4.5,14.365,3.621c3.636-0.62,6.596-3.111,9.459-5.521c0.513-0.431,1.023-0.86,1.534-1.277
					c2.012-1.641,4.176-3,6.268-4.313c2.111-1.327,4.293-2.698,6.246-4.324c0.708-0.589,1.391-1.235,2.052-1.859
					c1.777-1.679,3.614-3.414,6.132-4.261c5.489-1.846,8.487-0.521,10.693,4.731c0.727,1.729,1.15,3.501,1.558,5.214
					c0.352,1.474,0.684,2.866,1.194,4.237c1.505,4.039,5.758,6.916,9.273,8.312c0.056,0.008,0.112,0.022,0.167,0.043
					c0.097,0.035,0.18,0.076,0.25,0.117c0.14,0.052,0.279,0.101,0.416,0.147c0.389,0.133,0.633,0.518,0.59,0.926
					c-0.043,0.409-0.364,0.733-0.771,0.781c-0.535,0.066-0.866-0.155-1.035-0.276c-3.917-1.499-8.794-4.758-10.538-9.437
					c-0.548-1.472-0.908-2.982-1.257-4.443c-0.41-1.72-0.798-3.344-1.469-4.941c-1.864-4.437-3.852-5.312-8.508-3.744
					c-2.151,0.723-3.77,2.252-5.484,3.872c-0.68,0.643-1.384,1.308-2.135,1.932c-2.043,1.701-4.276,3.104-6.436,4.461
					c-2.047,1.286-4.164,2.616-6.091,4.188c-0.504,0.411-1.007,0.834-1.513,1.26c-3.043,2.561-6.19,5.208-10.297,5.909
					c-5.736,0.979-10.667-1.438-15.436-3.775c-0.477-0.233-0.953-0.467-1.429-0.696c-3.139-1.512-6.285-0.219-9.615,1.15
					l-0.971,0.396c-6.452,2.6-11.672,4.071-16.426,4.627c-3.326,0.389-9.492,0.829-13.423-0.598
					c-1.992-0.723-3.144-2.16-4.257-3.549c-0.454-0.567-0.924-1.153-1.442-1.673c-0.305-0.306-0.627-0.658-0.964-1.026
					c-1.811-1.981-3.325-3.455-4.858-2.898c-1.909,1.562-2.307,6.766-2.5,9.285l-0.032,0.417c-0.097,1.266,0.139,3.167,0.391,5.18
					c0.5,4.013,1.018,8.163-0.61,10.139C37.568,125.983,37.316,126.092,37.062,126.092z"/>
			</g>
			<g>
				<path fill="#D9DADB" d="M57.219,103.156c-3.88,0-6.541-2.012-9.118-3.959c-1.039-0.785-2.113-1.597-3.268-2.282
					c-3.301-1.959-6.675-3.528-8.994-1.77c-0.646,0.491-1.274,1.961-1.828,3.257c-0.836,1.957-1.626,3.806-3.035,4.202
					c-0.468,0.131-0.954-0.141-1.086-0.609c-0.131-0.468,0.142-0.954,0.609-1.086c0.597-0.167,1.376-1.991,1.892-3.198
					c0.702-1.644,1.365-3.195,2.384-3.968c3.583-2.713,8.563,0.239,10.956,1.658c1.24,0.735,2.354,1.578,3.431,2.392
					c2.642,1.998,4.92,3.717,8.402,3.597c2.762-0.101,5.208-0.309,7.175-1.849c0.687-0.537,1.3-1.185,1.949-1.869
					c1.092-1.153,2.221-2.345,3.792-3.072c3.739-1.733,10.228-1.471,14.094-0.235c4.723,1.511,8.919,2.388,14.051,1.755l0.309-0.039
					c2.198-0.268,3.785-0.462,5.11-1.842c0.78-0.812,1.381-1.663,1.963-2.484c0.917-1.295,1.865-2.634,3.49-3.835
					c5.259-3.888,10.837-6.617,16.743-9.506l1.562-0.765c3.431-1.686,9.974-4.444,15.277-3.945
					c3.751,0.352,7.718,3.481,10.376,5.806c0.742,0.649,1.489,1.288,2.235,1.925c2.002,1.711,4.073,3.48,6.01,5.438
					c1.868,1.89,3.772,2.633,4.628,1.807c0.35-0.337,0.907-0.327,1.245,0.023c0.337,0.351,0.327,0.908-0.023,1.245
					c-1.644,1.582-4.431,0.862-7.101-1.837c-1.885-1.905-3.927-3.65-5.902-5.338c-0.751-0.642-1.503-1.285-2.25-1.938
					c-2.474-2.163-6.138-5.074-9.381-5.378c-4.871-0.455-11.073,2.168-14.337,3.772l-1.565,0.767
					c-5.832,2.852-11.34,5.547-16.47,9.34c-1.398,1.033-2.224,2.2-3.099,3.436c-0.619,0.875-1.26,1.78-2.13,2.686
					c-1.759,1.833-3.801,2.082-6.167,2.371l-0.307,0.038c-5.45,0.671-9.859-0.244-14.803-1.825
					c-3.568-1.141-9.57-1.351-12.817,0.155c-1.264,0.586-2.231,1.606-3.254,2.686c-0.665,0.702-1.353,1.427-2.143,2.045
					c-2.38,1.863-5.235,2.114-8.196,2.222C57.491,103.154,57.354,103.156,57.219,103.156z"/>
			</g>
			<g>
				<path fill="#D9DADB" d="M54.637,89.559c-0.76,0-1.503-0.051-2.223-0.163c-1.318-0.205-2.565-0.565-3.771-0.913
					c-1.201-0.347-2.336-0.675-3.526-0.858c-0.759-0.117-1.65-0.168-2.594-0.222c-2.485-0.142-5.301-0.302-7.252-1.759
					c-0.403-0.301-0.486-0.872-0.185-1.274c0.301-0.403,0.872-0.486,1.274-0.185c1.512,1.128,4.038,1.272,6.266,1.4
					c0.989,0.057,1.923,0.11,2.768,0.24c1.305,0.201,2.55,0.561,3.754,0.908c1.204,0.348,2.342,0.676,3.545,0.863
					c3.944,0.615,8.844-0.845,13.553-2.51l1.678-0.6c3.166-1.137,6.44-2.313,9.863-2.939c2.922-0.533,5.021-0.491,7.888-0.368
					c4.026,0.179,8.806-3.215,11.375-5.037c6.594-4.674,15.984-7.982,24.505-8.634c4.369-0.335,8.733-0.016,12.952,0.291
					l0.801,0.058c1.974,0.141,3.903,0.674,5.768,1.189c1.589,0.438,3.232,0.892,4.853,1.083c4.53,0.533,10.181,0.399,11.383-3.252
					c0.157-0.479,0.673-0.737,1.15-0.581c0.478,0.157,0.737,0.671,0.58,1.149c-1.273,3.87-5.758,5.38-13.325,4.492
					c-1.76-0.207-3.471-0.679-5.125-1.136c-1.862-0.514-3.62-1-5.414-1.128l-0.802-0.059c-4.344-0.316-8.447-0.615-12.681-0.291
					c-8.211,0.628-17.25,3.81-23.591,8.304c-2.747,1.947-7.86,5.578-12.507,5.37c-2.745-0.12-4.748-0.159-7.482,0.34
					c-3.276,0.599-6.478,1.75-9.575,2.861l-1.687,0.603C62.738,88.258,58.462,89.559,54.637,89.559z"/>
			</g>
			<g>
				<path fill="#D9DADB" d="M46.397,75.218c-0.978,0-1.958-0.192-2.646-0.912c-0.336-0.352-0.323-0.909,0.028-1.245
					c0.351-0.336,0.909-0.324,1.245,0.028c0.52,0.543,1.99,0.357,2.963,0.233l0.519-0.063c3.58-0.386,7.327-0.902,10.481-2.051
					c2.751-1.002,4.749-2.62,6.864-4.333c0.765-0.62,1.549-1.254,2.391-1.883c2.797-2.085,5.2-3.382,9.206-3.838
					c4.614-0.53,10.015,0.489,13.531,1.617c5.042,1.616,9.199,2.619,14.325,2.619c0.013,0,0.026-0.001,0.04,0
					c1.052,0,2.185,0.088,3.28,0.174c2.196,0.172,4.465,0.35,6.363-0.134c0.885-0.226,1.709-0.604,2.58-1.004
					c1.11-0.511,2.258-1.039,3.599-1.266c2.944-0.5,5.956-0.733,8.868-0.958c2.259-0.175,4.594-0.355,6.857-0.66
					c1.709-0.228,3.197,0.087,4.637,0.392c0.804,0.171,1.635,0.347,2.49,0.421c1.787,0.154,3.339-0.093,4.26-0.68
					c0.547-0.348,1.467-1.302,1.119-1.932c-0.235-0.426-0.08-0.961,0.346-1.196c0.425-0.235,0.961-0.081,1.196,0.346
					c0.951,1.725-0.504,3.497-1.714,4.268c-1.698,1.083-4.085,1.061-5.358,0.948c-0.962-0.083-1.848-0.271-2.704-0.453
					c-1.352-0.287-2.629-0.558-4.037-0.369c-2.312,0.311-4.673,0.493-6.956,0.669c-2.873,0.222-5.844,0.452-8.709,0.938
					c-1.111,0.188-2.105,0.646-3.158,1.129c-0.905,0.417-1.84,0.846-2.881,1.112c-2.179,0.555-4.597,0.367-6.935,0.182
					c-1.11-0.087-2.159-0.169-3.143-0.169c-0.013,0-0.026,0-0.04,0c-5.355,0-9.658-1.034-14.863-2.703
					c-4.199-1.347-9.223-1.95-12.794-1.544c-3.63,0.414-5.736,1.55-8.354,3.501c-0.823,0.614-1.588,1.234-2.336,1.839
					c-2.233,1.808-4.342,3.516-7.37,4.62c-3.331,1.213-7.205,1.749-10.894,2.147l-0.487,0.059
					C47.657,75.138,47.028,75.218,46.397,75.218z"/>
			</g>
			<g>
				<path fill="#D9DADB" d="M66.156,65.865c-1.58,0-3.251-0.271-4.81-0.524c-0.886-0.144-1.723-0.279-2.428-0.342
					c-0.546-0.048-1.105-0.082-1.669-0.115c-2.488-0.148-5.061-0.302-7.239-1.68c-0.411-0.26-0.533-0.803-0.273-1.214
					c0.26-0.411,0.803-0.534,1.215-0.273c1.794,1.135,4.136,1.275,6.402,1.41c0.581,0.035,1.157,0.069,1.719,0.119
					c0.769,0.067,1.636,0.208,2.555,0.357c2.482,0.403,5.571,0.904,7.408-0.061c1.145-0.601,2.656-3.062,2.66-3.674
					c-0.048-0.484,0.305-0.909,0.789-0.957c0.486-0.045,0.916,0.312,0.964,0.795c0.137,1.37-1.979,4.546-3.594,5.394
					C68.772,65.669,67.497,65.865,66.156,65.865z"/>
			</g>
			<g>
				<g>
					<path fill="#FFFFFF" d="M133.616,49.438c0,0-15.942-1.456-33.769-1.828v-0.018c-0.151,0.002-0.299,0.006-0.449,0.009
						c-0.148-0.003-0.295-0.007-0.445-0.009v0.018c-17.828,0.372-33.773,1.828-33.773,1.828c-8.232,1.742-8.085,7.878-7.364,11.167
						c0.279,1.272,2.337,2.973,3.701,3.317c7.525,1.891,24.617,3.359,37.784,3.229c13.166,0.129,30.455-1.339,37.978-3.229
						c1.364-0.344,3.424-2.045,3.702-3.317C141.704,57.316,141.852,51.18,133.616,49.438z"/>
				</g>
				<g>
					<path fill="#EE1A13" d="M100.821,12.801c0,0-35.879,27.25-36.629,39.456c0,0,5.357,3.02,15.078,3.724
						c19.146,1.387,49.82,3.855,55.143-4.432c0,0-7.55-28.683-32.735-38.748"/>
				</g>
				<g>
					<path fill="#FFFFFF" d="M101.623,15.162c-0.939,0-1.884-0.277-2.693-0.804c-1.69-0.393-2.7-1.816-2.782-3.932
						c-0.009-0.224-0.004-0.447,0.014-0.667c-0.03-0.83,0.205-1.605,0.689-2.264c0.331-0.59,0.77-1.117,1.302-1.545
						c0.423-0.341,0.885-0.599,1.363-0.769c0.959-0.57,1.879-0.826,2.749-0.771c1.136,0.076,2.136,0.692,2.972,1.832
						c0.155,0.211,0.298,0.423,0.429,0.637c0.072,0.054,0.14,0.111,0.207,0.171c0.252,0.227,0.518,0.537,0.722,0.946
						c0.56,0.747,0.85,1.596,0.643,2.505c-0.22,0.963-0.767,1.886-1.541,2.642c-0.532,0.64-1.259,1.181-2.163,1.602
						C102.932,15.026,102.279,15.162,101.623,15.162z M99.701,13.4c0.11,0.007,0.22,0.009,0.33,0.004
						c-0.291-0.244-0.573-0.56-0.831-0.966c-0.649-1.02-0.807-2.235-0.45-3.383c0.003-0.197,0.017-0.392,0.043-0.584
						c-0.189,0.198-0.349,0.419-0.474,0.666c-0.554,1.096-0.533,2.209,0.036,3.152C98.741,12.733,99.203,13.118,99.701,13.4z
						 M102.065,11.431c0.227,0.168,0.529,0.281,0.872,0.331c0.509-0.366,0.909-0.963,1.017-1.649
						C103.296,10.509,102.666,10.95,102.065,11.431z M102.714,8.038c-0.581,0-1.25,0.371-1.66,0.941
						c-0.255,0.354-0.613,1.079-0.152,1.955c0.01,0.019,0.021,0.039,0.031,0.058l0.027-0.023c0.897-0.765,1.863-1.442,2.885-2.021
						c-0.184-0.522-0.497-0.823-0.929-0.893C102.85,8.043,102.782,8.038,102.714,8.038z M99.885,6.204
						c-0.531,0.338-1.032,0.755-1.476,1.176c0.308-0.251,0.649-0.461,1.011-0.631C99.558,6.544,99.713,6.362,99.885,6.204z"/>
				</g>
			</g>
		</g>
	</g>
</g>
</svg>
