<?xml version="1.0" encoding="utf-8"?>
<!-- Generator: Adobe Illustrator 16.0.0, SVG Export Plug-In . SVG Version: 6.00 Build 0)  -->
<!DOCTYPE svg PUBLIC "-//W3C//DTD SVG 1.1//EN" "http://www.w3.org/Graphics/SVG/1.1/DTD/svg11.dtd">
<svg version="1.1" id="Capa_1" xmlns="http://www.w3.org/2000/svg" xmlns:xlink="http://www.w3.org/1999/xlink" x="0px" y="0px"
	 width="200px" height="200px" viewBox="0 0 200 200" enable-background="new 0 0 200 200" xml:space="preserve">
<g>
	<g>
		<path fill="#8CEECC" d="M125.894,48.065c-18.074-6.942-40.352-5.709-56.86-2.24c-2.876,0.874-5.693,1.933-8.422,3.175
			C46.953,55.211,35.325,66,27.929,80.864c-1.535,3.17-2.832,6.493-3.902,9.925c-4.678,15.004-4.907,32.046-0.535,47.141
			c0.879,3.02,1.935,5.965,3.176,8.837c16.425,34.037,52.343,54.576,87.691,41.279c4.33-0.449,8.312-1.244,11.973-2.367
			c3.657-1.125,6.993-2.574,10.022-4.305c2.025-1.156,3.913-2.438,5.674-3.835c28.332-28.938,28.75-63.792,15.565-94.756
			C148.97,62.538,128.909,49.22,125.894,48.065z"/>
	</g>
	<g>
		<path fill="#FFFFFF" d="M124.28,89.163c-8.114,0-17.688-1.573-25.17-8.605c-6.604,4.394-16.427,5.351-23.57,2.367
			c-0.024,0.021-0.049,0.041-0.073,0.061c-5.287,4.338-13.305,6.578-19.499,5.448c-7.895-1.435-15.633-7.922-20.768-12.676
			c-4.675-4.337-6.812-10.512-5.58-16.118c0.411-1.868,2.258-3.048,4.125-2.639c1.868,0.411,3.05,2.258,2.639,4.125
			c-0.697,3.17,0.686,6.92,3.523,9.552c2.59,2.398,10.477,9.702,17.301,10.942c3.678,0.672,8.714-0.562,12.396-2.925
			c-2.223-2.615-4.577-6.865-4.685-10.981c-0.07-2.698,0.833-5.016,2.611-6.702c2.214-2.099,4.926-2.668,7.44-1.564
			c4.481,1.969,6.642,8.669,6.592,11.867c-0.033,2.05-0.504,4.017-1.39,5.857c4.524,1.111,10.34,0.367,14.374-1.943
			c-1.863-2.916-3.307-6.807-2.057-11.22c0.146-0.513,1.515-5.056,4.865-6.85c1.444-0.773,3.007-0.923,4.525-0.436
			c2.235,0.719,3.838,2.479,4.513,4.955c1.19,4.37-0.612,10.438-2.477,13.895c5.803,5.425,13.893,7.404,26.104,6.41
			c14.135-1.148,23.125-4.826,25.314-10.356c0.834-2.103,0.849-5.793,0.25-6.913c-0.901-1.687-0.265-3.785,1.422-4.687
			c1.688-0.901,3.786-0.265,4.687,1.422c1.819,3.404,1.458,9.258,0.08,12.729c-3.256,8.227-14.042,13.313-31.191,14.707
			C128.644,89.043,126.517,89.163,124.28,89.163z M72.413,65.935c-0.034,0.029-0.073,0.063-0.116,0.104
			c-0.13,0.124-0.479,0.454-0.452,1.494c0.049,1.881,1.198,4.226,2.399,5.883c0.251-0.715,0.384-1.453,0.396-2.209
			C74.667,69.542,73.336,66.693,72.413,65.935z M99.868,64.253c-0.283,0.49-0.555,1.087-0.712,1.644
			c-0.276,0.975-0.278,1.97,0.01,3.02C99.635,67.228,99.938,65.429,99.868,64.253z"/>
	</g>
	<g>
		<path fill="#FFFFFF" d="M157.397,140.032c-6.124,0-12.26-1.358-17.838-4.095c-5.099-2.5-10.91-6.948-14.891-12.302
			c-2.71,2.099-5.95,3.759-9.623,4.899c-7.478,2.321-15.969,2.308-23.335,0.221c-3.672,5.599-9.525,7.2-16.137,8.483
			c-10.967,2.12-19.48,1.463-25.453-1.945c-7.51,2.651-18.795-1.129-27.52-9.247c-8.411-7.825-11.985-17.52-9.561-25.933
			c0.53-1.837,2.45-2.897,4.287-2.369c1.837,0.53,2.898,2.449,2.369,4.287c-1.687,5.852,1.164,12.934,7.623,18.944
			c5.119,4.762,11.459,7.832,16.399,8.222c-0.412-0.644-0.792-1.321-1.14-2.032c-1.943-3.963-2.064-11.806,0.681-16.371
			c1.552-2.581,3.919-4.051,6.666-4.139c2.248-0.079,4.244,0.777,5.791,2.46c3.424,3.724,3.629,10.687,3.259,13.848
			c-0.344,2.948-1.24,5.488-2.625,7.53c4.369,1.439,10.312,1.415,17.908-0.054c5.19-1.007,8.543-1.937,10.758-4.336
			c-0.919-0.486-1.802-1.013-2.641-1.579c-5.275-3.565-8.082-7.503-8.341-11.706c-0.226-3.665,1.49-7.121,5.1-10.271
			c4.316-3.771,7.982-3.333,9.783-2.738c3.445,1.14,5.945,4.539,7.039,9.572c0.966,4.449,0.006,8.694-1.418,12.958
			c5.874,1.465,12.611,1.395,18.458-0.419c2.577-0.799,5.617-2.138,8.209-4.366c-0.333-0.837-0.61-1.686-0.824-2.541
			c-1.212-4.856-0.301-9.572,2.635-13.636c3.102-4.302,5.914-3.659,7.315-2.894c4.808,2.628,2.717,13.152,1.906,15.21
			c-0.685,1.741-1.578,3.375-2.663,4.889c3.148,4.647,8.432,8.879,13.038,11.138c9.938,4.874,22.006,4.48,31.494-1.03l0.521-0.301
			c4.468-2.573,5.81-3.906,6.107-4.585c-0.413-1.757,0.602-3.559,2.352-4.099c1.83-0.563,3.766,0.462,4.33,2.29
			c1.838,5.965-5.429,10.149-9.333,12.396l-0.5,0.288C171.451,138.238,164.433,140.032,157.397,140.032z M50.21,113.575
			c-0.02,0-0.041,0.001-0.062,0.001c-0.172,0.006-0.491,0.016-0.955,0.787c-1.52,2.527-1.323,7.866-0.398,9.752
			c0.479,0.976,1.056,1.855,1.733,2.639c0.822-1.127,1.339-2.652,1.566-4.595c0.324-2.77-0.251-7.022-1.479-8.357
			C50.43,113.601,50.333,113.575,50.21,113.575z M86.401,106.333c-0.682,0-1.662,0.511-2.714,1.43
			c-1.907,1.664-2.829,3.221-2.743,4.627c0.117,1.89,2.001,4.161,5.307,6.394c0.573,0.387,1.175,0.751,1.804,1.091
			c1.047-3.196,1.73-6.265,1.131-9.025c-0.591-2.722-1.655-4.205-2.446-4.466C86.638,106.35,86.524,106.333,86.401,106.333z"/>
	</g>
	<g>
		<path fill="#FFFFFF" d="M138.358,183.678c-11.443,0-23.884-7.07-30.912-14.725c-2.542,1.893-5.572,3.457-8.987,4.613
			c-6.56,2.221-13.665,2.662-19.494,1.21c-2.837-0.707-5.443-2.21-7.559-4.307c-0.708,0.317-1.445,0.635-2.213,0.954
			c-10.301,4.273-25.954,6.432-36.158-1.547c-1.506-1.178-1.773-3.355-0.595-4.861c1.178-1.506,3.355-1.773,4.861-0.595
			c7.35,5.749,19.981,4.446,29.24,0.604c0.32-0.133,0.638-0.267,0.951-0.402c-1.515-3.694-1.685-7.758-0.435-11.4
			c1.44-4.173,4.667-7.314,8.422-8.202c3.249-0.768,6.471,0.208,9.07,2.75c3.233,3.165,3.424,6.35,3.016,8.465
			c-0.538,2.779-2.743,6.612-9.458,10.741c0.798,0.492,1.653,0.86,2.532,1.079c8.324,2.073,17.52-0.665,23.08-5.045
			c-1.717-3.703-2.976-8.315-1.839-12.045c0.885-2.906,3.088-4.927,6.205-5.693c3.774-0.929,5.817,0.799,6.699,1.911
			c3.727,4.702-0.647,14.032-0.693,14.124c-0.488,0.958-1.062,1.881-1.717,2.768c0.028,0.032,0.056,0.063,0.083,0.094
			c7.941,8.727,25.006,17.236,35.092,9.796c1.917-1.417,2.922-2.618,3.069-3.669c0.265-1.894,2.008-3.211,3.91-2.95
			c1.894,0.265,3.214,2.016,2.95,3.91c-0.557,3.982-3.585,6.633-5.815,8.281C147.709,182.453,143.12,183.677,138.358,183.678z
			 M77.607,151.692c-0.243,0-0.425,0.043-0.534,0.069c-1.4,0.331-2.826,1.859-3.467,3.716c-0.659,1.92-0.618,4.012,0.1,6.022
			c4.041-2.375,6.714-4.795,7.059-6.579c0.056-0.292,0.189-0.978-1.059-2.199C78.834,151.868,78.098,151.692,77.607,151.692z
			 M109.377,152.105c-0.622,0.225-0.767,0.533-0.872,0.878c-0.26,0.853-0.168,2.031,0.136,3.316
			C109.091,154.825,109.393,153.145,109.377,152.105z"/>
	</g>
	<g>
		<path fill="#87888A" d="M113.527,30.759c-0.577-2.315-3.053-3.636-6.439-4.335c-0.183-5.028-1.432-9.207-3.893-12.368
			C98.341,7.812,90.917,7.8,90.695,7.88c-3.762,0.068-8.689,2.28-10.816,12.405c-0.216,1.019-0.625,4.107-0.851,7.604
			c-2.109,0.378-3.414,0.653-3.414,0.653c-4.551,1.242-2.738,14.9-2.472,16.732c0.006,0.059,0.006,0.065,0.019,0.148
			c0.006,0.013,0.011,0.062,0.011,0.062l0.018,0.003c0.137,0.686,0.664,1.944,2.814,2.341c0,0,34.113,4.758,37.03-1.497
			c0.146-0.117,0.23-0.27,0.254-0.471C113.828,40.357,113.527,30.759,113.527,30.759z M104.2,30.482
			c1.277-0.333,2.544,0.432,2.874,1.688l0.211,0.693c0.192,0.586,0.414,1.251,0.503,2.069c0.183,1.848,0.137,3.818,0.061,5.673
			c-0.051,1.264-1.099,2.254-2.354,2.254c-0.032,0-0.069,0-0.102-0.002c-1.302-0.056-2.312-1.156-2.256-2.457
			c0.076-1.674,0.117-3.44-0.038-4.976c-0.031-0.312-0.149-0.674-0.291-1.09c-0.103-0.322-0.206-0.644-0.3-0.979
			C102.184,32.099,102.935,30.813,104.2,30.482z M87.408,14.862c0.958-1.27,2.033-1.874,3.377-1.898
			c-0.037,0.015,5.05-0.096,8.397,4.216c1.663,2.135,2.584,5.073,2.822,8.663c-5.781-0.265-12.609,0.446-17.895,1.222
			C84.444,22.462,85.34,17.582,87.408,14.862z M95.125,37.924c0.02,0.299,0.122,0.66,0.244,1.075
			c0.094,0.329,0.188,0.662,0.268,1.006c0.282,1.273-0.526,2.531-1.794,2.81c-0.169,0.036-0.343,0.054-0.507,0.054
			c-1.086,0-2.058-0.746-2.302-1.846l-0.188-0.704c-0.164-0.562-0.371-1.262-0.428-2.079c-0.111-1.724-0.019-3.511,0.146-5.669
			c0.099-1.294,1.143-2.281,2.532-2.167c1.296,0.1,2.264,1.235,2.165,2.531C95.11,34.897,95.031,36.494,95.125,37.924z
			 M77.887,34.766c0.112-1.092,1.019-1.923,2.189-1.773c1.088,0.115,1.883,1.094,1.771,2.188c-0.123,1.165-0.236,2.388-0.143,3.413
			c0.011,0.098,0.104,0.333,0.198,0.559c0.103,0.256,0.202,0.509,0.285,0.772c0.331,1.053-0.257,2.166-1.314,2.492
			c-0.192,0.06-0.395,0.09-0.587,0.09c-0.85,0-1.639-0.547-1.902-1.401c-0.348-0.889-0.577-1.443-0.643-2.138
			C77.615,37.568,77.742,36.125,77.887,34.766z"/>
	</g>
</g>
</svg>
