<?xml version="1.0" encoding="utf-8"?>
<!-- Generator: Adobe Illustrator 16.0.0, SVG Export Plug-In . SVG Version: 6.00 Build 0)  -->
<!DOCTYPE svg PUBLIC "-//W3C//DTD SVG 1.1//EN" "http://www.w3.org/Graphics/SVG/1.1/DTD/svg11.dtd">
<svg version="1.1" id="Capa_1" xmlns="http://www.w3.org/2000/svg" xmlns:xlink="http://www.w3.org/1999/xlink" x="0px" y="0px"
	 width="200px" height="200px" viewBox="0 0 200 200" enable-background="new 0 0 200 200" xml:space="preserve">
<g>
	<g>
		<g>
			<path fill="#FF473A" d="M79.141,172.723c0,0-7.271,0.604-7.887,3.167c0,0,0.51,9.772,2.916,15.388c0,0,11.293,6.267,41.875,0.931
				c1.598-0.278,5.287-1.546,5.74-2.556c1.883-4.194,5.836-15.224-3.488-17.534L79.141,172.723z"/>
		</g>
		<g>
			<path fill="#EC2B26" d="M124.17,178.656c-0.33-2.963-1.885-5.549-5.873-6.537l-39.156,0.604c0,0-7.271,0.604-7.887,3.167
				c0,0,0.021,0.39,0.072,1.043c2.814,2.244,6.574,3.847,22.25,5.142C103.018,182.854,117.633,183.371,124.17,178.656z"/>
		</g>
	</g>
	<g>
		<g>
			<g>
				<g>
					<path fill="#743809" d="M76.018,177.898c0,0,37.715,3.392,42.375,0c0,0-16.947-100.859-14.404-111.452
						c0,0-6.723,4.31-10.355,2.579L76.018,177.898z"/>
				</g>
			</g>
			<path fill="#00AA5D" d="M179.477,151.855c-3.691-4.005-23.093-24.874-43.416-43.295c18.075-0.452,18.898-2.05,19.568-3.374
				c0.35-0.693,0.275-1.525-0.197-2.141c-3.025-3.96-21.219-27.57-37.791-44.314c17.546-0.065,18.172-1.289,18.676-2.28
				c0.24-0.47,0.174-1.036-0.164-1.441c-1.201-1.443-29.527-35.411-39.545-39.887c-0.535-0.235-1.176-0.096-1.549,0.361
				c-32.072,38.578-31.711,39.85-31.467,40.695c0.119,0.418,0.469,0.79,0.889,0.927c0.105,0.037,0.227,0.06,0.342,0.065
				c0.137,0.008,6.278,0.321,14.861,0.665c-36.276,44.055-35.789,45.767-35.459,46.936c0.186,0.641,0.727,1.208,1.365,1.419
				c0.17,0.058,0.352,0.093,0.531,0.101c0.17,0.008,6.48,0.33,15.956,0.734C18.979,150.692,19.499,152.71,19.9,154.242
				c0.236,0.912,1.027,1.709,1.936,1.959c0.193,0.053,0.393,0.085,0.588,0.095c0.676,0.028,67.729,2.856,113.18,2.856
				c0.004,0,0.004,0,0.006,0c41.658,0,43.057-2.284,44.182-4.121C180.406,154.02,180.281,152.726,179.477,151.855z"/>
			<g>
				<g>
					<path fill="#FFFFFF" d="M76.648,55.725c-0.645,0-1.229-0.441-1.389-1.098c-0.416-1.74,0.244-3.459,0.824-4.978
						c0.344-0.902,0.67-1.752,0.736-2.47c0.059-0.786,0.689-1.341,1.545-1.298c0.783,0.066,1.365,0.759,1.295,1.546
						c-0.098,1.115-0.506,2.198-0.91,3.244c-0.477,1.242-0.924,2.411-0.707,3.292c0.182,0.766-0.297,1.537-1.061,1.72
						C76.871,55.709,76.76,55.725,76.648,55.725z"/>
				</g>
			</g>
			<g>
				<g>
					<path fill="#FFFFFF" d="M89.365,53.18c-0.547,0-1.066-0.31-1.305-0.838c-0.758-1.676-0.42-3.544-0.146-5.043
						c0.141-0.774,0.895-1.414,1.68-1.276c0.775,0.142,1.316,0.757,1.174,1.534l-0.043,0.252c-0.225,1.223-0.453,2.488-0.062,3.356
						c0.322,0.717,0.008,1.565-0.705,1.89C89.76,53.14,89.562,53.18,89.365,53.18z"/>
				</g>
			</g>
			<g>
				<g>
					<path fill="#FFFFFF" d="M82.795,44.812c-0.246,0-0.492-0.06-0.717-0.19c-0.686-0.396-0.912-1.269-0.52-1.952
						c0.398-0.696,0.756-2.613,0.664-3.603c-0.074-0.784,0.5-1.48,1.287-1.554c0.748-0.072,1.48,0.503,1.555,1.29
						c0.135,1.43-0.26,3.958-1.035,5.297C83.77,44.557,83.285,44.812,82.795,44.812z"/>
				</g>
			</g>
			<g>
				<g>
					<path fill="#FFFFFF" d="M101.439,53.498c-0.6,0-1.158-0.382-1.354-0.985c-0.244-0.746-0.324-1.492-0.398-2.148
						c-0.055-0.504-0.105-1.004-0.25-1.473c-0.232-0.755,0.188-1.554,0.945-1.784c0.746-0.236,1.555,0.188,1.787,0.939
						c0.197,0.645,0.279,1.319,0.352,2.004c0.068,0.571,0.125,1.113,0.277,1.577c0.244,0.75-0.168,1.558-0.918,1.801
						C101.736,53.475,101.588,53.498,101.439,53.498z"/>
				</g>
			</g>
			<g>
				<g>
					<path fill="#FFFFFF" d="M94.025,33.373c-0.037,0-0.078-0.004-0.117-0.007c-0.787-0.064-1.373-0.754-1.307-1.542
						c0.045-0.506,0.133-1.04,0.223-1.575c0.127-0.722,0.254-1.463,0.205-1.983c-0.076-0.786,0.496-1.482,1.279-1.556
						c0.883-0.114,1.484,0.498,1.561,1.284c0.09,0.895-0.076,1.833-0.227,2.736c-0.076,0.451-0.156,0.904-0.191,1.333
						C95.387,32.809,94.76,33.373,94.025,33.373z"/>
				</g>
			</g>
			<g>
				<g>
					<path fill="#FFFFFF" d="M95.934,24.259c-0.072,0-0.15-0.005-0.225-0.019c-0.779-0.122-1.311-0.854-1.184-1.63
						c0.062-0.427-0.014-0.892-0.066-1.021c-0.324-0.701-0.047-1.566,0.646-1.909c0.688-0.34,1.502-0.112,1.875,0.571
						c0.43,0.806,0.494,1.987,0.363,2.802C97.236,23.757,96.625,24.259,95.934,24.259z"/>
				</g>
			</g>
			<g>
				<g>
					<path fill="#FFFFFF" d="M104.619,39.091c-0.564,0-1.09-0.33-1.322-0.88c-0.566-1.369-0.467-3.04-0.377-4.515
						c0.031-0.472,0.053-0.924,0.053-1.331c0-0.792,0.643-1.428,1.432-1.428c0.791,0,1.432,0.637,1.432,1.428
						c0,0.461-0.031,0.97-0.066,1.5c-0.066,1.169-0.148,2.492,0.17,3.253c0.299,0.728-0.043,1.562-0.775,1.863
						C104.986,39.057,104.803,39.091,104.619,39.091z"/>
				</g>
			</g>
			<g>
				<g>
					<path fill="#FFFFFF" d="M110.34,49.049c-0.678,0-1.289-0.488-1.406-1.182l-0.164-0.869c-0.094-0.492-0.188-0.992-0.264-1.493
						c-0.119-0.779,0.42-1.508,1.197-1.626c0.816-0.125,1.508,0.418,1.625,1.2c0.068,0.463,0.162,0.926,0.248,1.382l0.168,0.914
						c0.139,0.778-0.381,1.517-1.156,1.65C110.504,49.042,110.42,49.049,110.34,49.049z"/>
				</g>
			</g>
			<g>
				<g>
					<path fill="#FFFFFF" d="M120.51,55.618c-0.006,0-0.006,0-0.01,0c-0.785-0.005-1.418-0.647-1.418-1.434
						c0.004-0.667,0.092-1.423,0.18-2.195c0.127-1.062,0.27-2.265,0.084-2.925c-0.213-0.759,0.234-1.546,0.996-1.757
						c0.777-0.209,1.547,0.234,1.756,0.993c0.336,1.202,0.166,2.637,0,4.025c-0.078,0.661-0.158,1.308-0.158,1.875
						C121.936,54.986,121.297,55.618,120.51,55.618z"/>
				</g>
			</g>
			<g>
				<g>
					<path fill="#FFFFFF" d="M109.285,58.373c-0.064,0-0.127-0.006-0.193-0.014c-0.783-0.103-1.326-0.821-1.225-1.604
						c0.027-0.23,0.055-0.492,0.074-0.77c0.129-1.495,0.305-3.541,1.865-4.497c0.678-0.415,1.553-0.2,1.969,0.476
						c0.406,0.673,0.193,1.551-0.477,1.962c-0.334,0.202-0.461,1.726-0.51,2.3c-0.025,0.328-0.055,0.635-0.094,0.905
						C110.604,57.851,109.988,58.373,109.285,58.373z"/>
				</g>
			</g>
			<g>
				<g>
					<path fill="#FFFFFF" d="M114.789,43.542c-0.025,0-0.055,0-0.084-0.003c-0.785-0.045-1.385-0.722-1.342-1.509
						c0.035-0.604-0.043-1.194-0.119-1.786l-0.088-0.74c-0.082-0.784,0.49-1.488,1.277-1.566c0.857-0.071,1.482,0.493,1.562,1.273
						l0.078,0.677c0.094,0.763,0.188,1.528,0.141,2.311C116.168,42.955,115.539,43.542,114.789,43.542z"/>
				</g>
			</g>
			<g>
				<g>
					<path fill="#FFFFFF" d="M84.277,63.195c-0.184,0-0.369-0.036-0.551-0.111c-0.723-0.302-1.072-1.141-0.764-1.866
						c0.316-0.765,0.441-2.34,0.527-3.38c0.066-0.782,0.648-1.339,1.539-1.309c0.783,0.062,1.369,0.753,1.311,1.539
						c-0.139,1.677-0.289,3.154-0.746,4.248C85.365,62.864,84.836,63.195,84.277,63.195z"/>
				</g>
			</g>
			<g>
				<g>
					<path fill="#FFFFFF" d="M96.037,63.513c-0.75,0-1.379-0.585-1.424-1.345c-0.033-0.605-0.016-1.271,0.008-1.906
						c0.021-0.57,0.051-1.103,0-1.491c-0.096-0.785,0.453-1.498,1.236-1.598c0.758-0.137,1.496,0.451,1.596,1.234
						c0.064,0.513,0.049,1.213,0.025,1.96c-0.02,0.542-0.049,1.116-0.018,1.632c0.049,0.789-0.555,1.465-1.34,1.51
						C96.094,63.513,96.062,63.513,96.037,63.513z"/>
				</g>
			</g>
			<g>
				<g>
					<path fill="#FFFFFF" d="M109.703,73.683c-0.514,0-1.012-0.281-1.264-0.773c-0.516-0.983-0.518-2.115-0.521-3.208
						c0-0.751-0.008-1.529-0.191-2.047c-0.266-0.743,0.113-1.56,0.855-1.828c0.762-0.27,1.559,0.119,1.83,0.859
						c0.355,0.982,0.361,2.053,0.363,3.004c0,0.72,0.004,1.536,0.195,1.91c0.363,0.699,0.088,1.561-0.613,1.922
						C110.148,73.633,109.928,73.683,109.703,73.683z"/>
				</g>
			</g>
			<g>
				<g>
					<path fill="#FFFFFF" d="M125.594,84.17c-0.535,0-1.051-0.305-1.295-0.828c-0.807-1.741-1.033-3.681-1.246-5.553l-0.145-1.216
						c-0.105-0.781,0.445-1.499,1.227-1.602c0.85-0.073,1.498,0.449,1.604,1.229l0.154,1.263c0.189,1.649,0.383,3.351,0.998,4.678
						c0.334,0.714,0.021,1.565-0.693,1.896C126.002,84.128,125.801,84.17,125.594,84.17z"/>
				</g>
			</g>
			<g>
				<g>
					<path fill="#FFFFFF" d="M117.33,68.915c-0.719,0-1.336-0.541-1.418-1.271c-0.08-0.731-0.033-1.446,0.02-2.133
						c0.045-0.612,0.084-1.138,0-1.562c-0.152-0.772,0.35-1.525,1.121-1.676c0.801-0.168,1.525,0.354,1.68,1.126
						c0.16,0.802,0.1,1.577,0.047,2.323c-0.041,0.521-0.086,1.061-0.025,1.608c0.084,0.785-0.484,1.491-1.27,1.577
						C117.436,68.914,117.379,68.915,117.33,68.915z"/>
				</g>
			</g>
			<g>
				<g>
					<path fill="#FFFFFF" d="M90.635,70.822c-0.102,0-0.205-0.01-0.311-0.033c-0.766-0.171-1.254-0.933-1.084-1.703
						c0.17-0.772,0.172-1.572,0.016-2.192c-0.199-0.764,0.256-1.541,1.016-1.742c0.785-0.198,1.547,0.259,1.744,1.021
						c0.279,1.059,0.281,2.312,0.014,3.529C91.883,70.367,91.289,70.822,90.635,70.822z"/>
				</g>
			</g>
			<g>
				<g>
					<path fill="#FFFFFF" d="M76.33,77.812c-0.191,0-0.389-0.037-0.58-0.122c-0.719-0.322-1.041-1.167-0.723-1.885
						c0.527-1.189,0.816-2.797,0.607-3.368c-0.281-0.737,0.092-1.562,0.832-1.837c0.73-0.271,1.566,0.094,1.838,0.835
						c0.812,2.162-0.605,5.396-0.666,5.531C77.398,77.498,76.879,77.812,76.33,77.812z"/>
				</g>
			</g>
			<g>
				<g>
					<path fill="#FFFFFF" d="M69.658,84.806c-0.535,0-1.047-0.3-1.291-0.816c-0.814-1.729-0.662-4.532,0.359-6.383
						c0.381-0.691,1.266-0.939,1.936-0.564c0.695,0.38,0.941,1.249,0.568,1.938c-0.617,1.121-0.658,2.991-0.279,3.789
						c0.338,0.711,0.029,1.562-0.682,1.901C70.07,84.761,69.861,84.806,69.658,84.806z"/>
				</g>
			</g>
			<g>
				<g>
					<path fill="#FFFFFF" d="M88.092,85.443c-0.105,0-0.213-0.015-0.316-0.036c-0.771-0.175-1.254-0.943-1.072-1.71
						c0.283-1.232,0.539-2.433,0.6-3.573c0.041-0.792,0.645-1.446,1.498-1.349c0.793,0.042,1.396,0.715,1.352,1.502
						c-0.072,1.365-0.355,2.698-0.67,4.054C89.334,84.995,88.744,85.443,88.092,85.443z"/>
				</g>
			</g>
			<g>
				<g>
					<path fill="#FFFFFF" d="M107.48,87.985c-0.588,0-1.139-0.363-1.346-0.947c-0.521-1.457-0.463-2.888-0.406-4.269
						c0.031-0.79,0.781-1.51,1.492-1.411c0.785,0.032,1.402,0.657,1.365,1.446v0.085c-0.053,1.21-0.092,2.252,0.24,3.186
						c0.262,0.742-0.127,1.561-0.867,1.825C107.801,87.957,107.639,87.985,107.48,87.985z"/>
				</g>
			</g>
			<g>
				<g>
					<path fill="#FFFFFF" d="M57.58,96.248c-0.605,0-1.172-0.389-1.359-1c-0.225-0.7-0.283-1.401-0.338-2.02
						c-0.064-0.713-0.121-1.33-0.377-1.657c-0.486-0.62-0.381-1.516,0.238-2.005c0.623-0.487,1.514-0.38,2.006,0.237
						c0.779,0.994,0.885,2.153,0.977,3.172c0.047,0.52,0.092,1.011,0.215,1.417c0.24,0.752-0.178,1.554-0.934,1.791
						C57.867,96.227,57.721,96.248,57.58,96.248z"/>
				</g>
			</g>
			<g>
				<g>
					<path fill="#FFFFFF" d="M71.248,97.837c-0.791,0-1.432-0.639-1.432-1.428c0-0.452,0.023-0.951,0.041-1.469
						c0.051-1.239,0.111-2.938-0.215-3.641c-0.34-0.712-0.037-1.564,0.676-1.902c0.713-0.335,1.564-0.037,1.902,0.681
						c0.629,1.333,0.561,3.183,0.49,4.974c-0.02,0.477-0.033,0.938-0.033,1.357C72.678,97.198,72.039,97.837,71.248,97.837z"/>
				</g>
			</g>
			<g>
				<g>
					<path fill="#FFFFFF" d="M80.781,96.566c-0.785,0-1.422-0.637-1.43-1.422c0-0.465,0.016-0.935,0.027-1.405
						c0.043-1.407,0.074-2.738-0.281-3.899c-0.234-0.754,0.189-1.555,0.943-1.785c0.746-0.249,1.557,0.187,1.791,0.941
						c0.498,1.612,0.449,3.244,0.4,4.825c-0.01,0.44-0.025,0.88-0.021,1.314c0,0.789-0.635,1.429-1.424,1.432
						C80.781,96.566,80.781,96.566,80.781,96.566z"/>
				</g>
			</g>
			<g>
				<g>
					<path fill="#FFFFFF" d="M93.496,97.202c-0.631,0-1.207-0.422-1.383-1.059c-0.387-1.449-0.377-2.878-0.367-4.261v-0.867
						c-0.004-0.79,0.633-1.432,1.418-1.437c0.01,0,0.01,0,0.016,0c0.785,0,1.422,0.633,1.43,1.415L94.602,91.9
						c-0.01,1.249-0.014,2.431,0.273,3.502c0.201,0.762-0.244,1.546-1.012,1.752C93.736,97.187,93.613,97.202,93.496,97.202z"/>
				</g>
			</g>
			<g>
				<g>
					<path fill="#FFFFFF" d="M97.627,78.768c-0.527,0-1.033-0.294-1.281-0.799l-0.637-1.272c-0.348-0.707-0.055-1.561,0.652-1.91
						c0.709-0.346,1.561-0.059,1.914,0.654l0.631,1.272c0.35,0.707,0.055,1.561-0.648,1.91
						C98.055,78.721,97.838,78.768,97.627,78.768z"/>
				</g>
			</g>
			<g>
				<g>
					<path fill="#FFFFFF" d="M113.836,101.016c-0.094,0-0.189-0.011-0.285-0.028c-0.818,0.055-1.523-0.417-1.766-1.315
						c-0.08-0.282-0.068-0.581,0.029-0.858c0.498-1.374,0.443-3.521,0.074-4.385c-0.312-0.726,0.025-1.564,0.742-1.875
						c0.723-0.31,1.568,0.021,1.879,0.748c0.562,1.308,0.672,3.456,0.322,5.262c0.488,0.473,0.578,1.243,0.184,1.824
						C114.746,100.796,114.291,101.016,113.836,101.016z"/>
				</g>
			</g>
			<g>
				<g>
					<path fill="#FFFFFF" d="M123.371,97.837c-0.537,0-1.049-0.3-1.293-0.817c-0.256-0.548-0.49-1.175-0.709-1.777
						c-0.191-0.508-0.361-0.999-0.551-1.378c-0.348-0.707-0.059-1.564,0.65-1.915c0.703-0.344,1.564-0.06,1.91,0.648
						c0.23,0.462,0.447,1.05,0.672,1.664c0.188,0.522,0.385,1.066,0.609,1.538c0.34,0.712,0.035,1.564-0.678,1.903
						C123.781,97.792,123.572,97.837,123.371,97.837z"/>
				</g>
			</g>
			<g>
				<g>
					<path fill="#FFFFFF" d="M138.309,100.062c-0.635,0-1.215-0.426-1.383-1.068c-0.188-0.71-0.262-1.451-0.332-2.193
						c-0.059-0.639-0.115-1.283-0.291-1.899c-0.223-0.757,0.213-1.551,0.973-1.771c0.727-0.228,1.543,0.211,1.768,0.971
						c0.23,0.789,0.316,1.612,0.391,2.429c0.061,0.59,0.111,1.179,0.256,1.743c0.197,0.762-0.258,1.54-1.02,1.739
						C138.549,100.046,138.43,100.062,138.309,100.062z"/>
				</g>
			</g>
			<g>
				<g>
					<path fill="#FFFFFF" d="M128.773,111.503c-0.025,0-0.057,0-0.08-0.001c-0.791-0.043-1.389-0.718-1.346-1.505
						c0.08-1.413-0.018-2.935-0.303-4.788c-0.117-0.779,0.412-1.509,1.191-1.628c0.799-0.146,1.512,0.415,1.631,1.191
						c0.316,2.057,0.42,3.767,0.332,5.382C130.16,110.914,129.529,111.503,128.773,111.503z"/>
				</g>
			</g>
			<g>
				<g>
					<path fill="#FFFFFF" d="M93.496,113.41c-0.605,0-1.176-0.389-1.361-1c-0.312-0.982-0.32-1.983-0.332-2.863
						c-0.012-1.006-0.021-1.871-0.432-2.473c-0.455-0.648-0.289-1.538,0.355-1.987c0.652-0.439,1.545-0.287,1.984,0.362
						c0.92,1.319,0.932,2.779,0.947,4.065c0.008,0.751,0.014,1.457,0.197,2.041c0.238,0.752-0.178,1.554-0.932,1.792
						C93.779,113.39,93.633,113.41,93.496,113.41z"/>
				</g>
			</g>
			<g>
				<g>
					<path fill="#FFFFFF" d="M76.33,118.812c-0.787,0-1.428-0.637-1.428-1.428c0-0.692,0.029-1.407,0.059-2.133
						c0.074-1.873,0.156-3.811-0.318-5.407c-0.221-0.754,0.209-1.55,0.967-1.772c0.777-0.224,1.551,0.208,1.773,0.962
						c0.609,2.048,0.518,4.227,0.434,6.334c-0.027,0.686-0.055,1.362-0.055,2.016C77.762,118.176,77.123,118.812,76.33,118.812z"/>
				</g>
			</g>
			<g>
				<g>
					<path fill="#FFFFFF" d="M58.219,129.619c-0.25,0-0.504-0.065-0.729-0.201c-0.678-0.402-0.904-1.279-0.498-1.957
						c0.439-0.745,0.646-2.216,0.234-3.139c-0.314-0.722,0.008-1.566,0.727-1.888c0.725-0.311,1.564,0.009,1.887,0.725
						c0.85,1.917,0.445,4.349-0.396,5.762C59.174,129.371,58.703,129.619,58.219,129.619z"/>
				</g>
			</g>
			<g>
				<g>
					<path fill="#FFFFFF" d="M49.637,144.239c-0.078,0-0.164-0.006-0.254-0.022c-0.775-0.14-1.291-0.878-1.154-1.657
						c0.289-1.613,0.496-3.349,0.027-5.104c-0.207-0.763,0.252-1.544,1.01-1.745c0.781-0.216,1.547,0.254,1.75,1.015
						c0.609,2.3,0.354,4.495,0.027,6.337C50.918,143.754,50.316,144.239,49.637,144.239z"/>
				</g>
			</g>
			<g>
				<g>
					<path fill="#FFFFFF" d="M61.076,154.409c-0.525,0-1.029-0.292-1.281-0.797c-0.572-1.153-0.764-2.513-0.934-3.71
						c-0.145-0.984-0.289-2.004-0.611-2.561c-0.393-0.684-0.156-1.557,0.523-1.952c0.674-0.393,1.561-0.161,1.949,0.522
						c0.596,1.034,0.787,2.331,0.965,3.588c0.148,1.035,0.305,2.104,0.672,2.852c0.348,0.708,0.055,1.565-0.652,1.911
						C61.502,154.362,61.289,154.409,61.076,154.409z"/>
				</g>
			</g>
			<g>
				<g>
					<path fill="#FFFFFF" d="M65.846,136.93c-0.07,0-0.139-0.005-0.213-0.014c-0.783-0.118-1.318-0.845-1.197-1.625
						c0.111-0.782-0.045-1.631-0.408-2.163c-0.445-0.651-0.273-1.538,0.375-1.983c0.656-0.446,1.547-0.277,1.988,0.375
						c0.766,1.125,1.09,2.694,0.865,4.195C67.152,136.421,66.539,136.93,65.846,136.93z"/>
				</g>
			</g>
			<g>
				<g>
					<path fill="#FFFFFF" d="M33.744,153.138c-0.742,0-1.361-0.565-1.422-1.313c-0.121-1.512-0.375-2.612-0.838-3.672
						c-0.318-0.723,0.01-1.564,0.734-1.883c0.711-0.309,1.566,0.008,1.875,0.735c0.596,1.35,0.926,2.767,1.076,4.591
						c0.057,0.785-0.529,1.475-1.312,1.538C33.82,153.137,33.779,153.138,33.744,153.138z"/>
				</g>
			</g>
			<g>
				<g>
					<path fill="#FFFFFF" d="M84.912,155.681c-0.393,0-0.791-0.167-1.076-0.491c-1.842-2.119-1.078-5.334-0.516-7.68l0.197-0.869
						c0.164-0.768,0.896-1.263,1.699-1.092c0.77,0.166,1.264,0.927,1.094,1.698l-0.215,0.924c-0.416,1.744-0.982,4.134-0.107,5.148
						c0.52,0.594,0.457,1.496-0.135,2.013C85.58,155.566,85.248,155.681,84.912,155.681z"/>
				</g>
			</g>
			<g>
				<g>
					<path fill="#FFFFFF" d="M90.953,133.433c-0.143,0-0.291-0.021-0.432-0.067c-0.756-0.24-1.17-1.041-0.928-1.793
						c0.404-1.276,0.418-2.838,0.035-3.802c-0.295-0.733,0.062-1.562,0.791-1.857c0.725-0.284,1.564,0.061,1.859,0.793
						c0.764,1.907,0.521,4.212,0.035,5.734C92.121,133.046,91.557,133.433,90.953,133.433z"/>
				</g>
			</g>
			<g>
				<g>
					<path fill="#FFFFFF" d="M113.836,126.124c-0.785,0-1.42-0.633-1.43-1.417c0-0.386,0.016-0.784,0.029-1.181
						c0.039-1.041,0.072-2.023-0.227-2.706c-0.314-0.725,0.012-1.566,0.738-1.884c0.711-0.319,1.562,0.009,1.877,0.735
						c0.564,1.285,0.512,2.705,0.463,3.958c-0.01,0.358-0.025,0.713-0.021,1.057c0.004,0.789-0.629,1.433-1.42,1.438
						C113.84,126.124,113.84,126.124,113.836,126.124z"/>
				</g>
			</g>
			<g>
				<g>
					<path fill="#FFFFFF" d="M138.309,143.921c-0.791,0-1.432-0.638-1.432-1.428c0-0.675,0.049-1.417,0.096-2.193
						c0.123-2.035,0.266-4.344-0.521-5.65c-0.406-0.676-0.188-1.555,0.486-1.962c0.662-0.407,1.551-0.191,1.957,0.487
						c1.242,2.067,1.076,4.849,0.93,7.299c-0.045,0.712-0.086,1.398-0.086,2.018C139.738,143.283,139.096,143.921,138.309,143.921z"
						/>
				</g>
			</g>
			<g>
				<g>
					<path fill="#FFFFFF" d="M118.287,157.271c-0.6,0-1.16-0.381-1.357-0.981c-0.217-0.642-0.387-1.289-0.568-1.935
						c-0.424-1.574-0.83-3.062-1.773-4.34c-0.465-0.636-0.324-1.53,0.311-1.997c0.629-0.465,1.529-0.329,1.994,0.304
						c1.258,1.707,1.75,3.525,2.225,5.283c0.168,0.598,0.33,1.198,0.525,1.791c0.246,0.749-0.158,1.557-0.91,1.804
						C118.582,157.249,118.434,157.271,118.287,157.271z"/>
				</g>
			</g>
			<g>
				<g>
					<path fill="#FFFFFF" d="M113.518,142.014c-0.158,0-0.316-0.024-0.475-0.081c-0.748-0.263-1.133-1.078-0.873-1.824
						c0.338-0.934,0.297-2.192,0.258-3.409l-0.021-1.198c0-0.791,0.637-1.43,1.43-1.43c0.789,0,1.43,0.64,1.43,1.43l0.021,1.117
						c0.037,1.409,0.088,3.007-0.422,4.443C114.656,141.649,114.105,142.014,113.518,142.014z"/>
				</g>
			</g>
			<g>
				<g>
					<path fill="#FFFFFF" d="M129.094,153.457c-0.773,0-1.41-0.612-1.426-1.386c-0.051-1.574-0.062-3.247,0.359-4.853
						c0.199-0.763,0.955-1.234,1.744-1.021c0.762,0.199,1.219,0.98,1.02,1.741c-0.324,1.244-0.314,2.624-0.275,4.048
						c0.027,0.789-0.596,1.445-1.385,1.47C129.121,153.457,129.104,153.457,129.094,153.457z"/>
				</g>
			</g>
			<g>
				<g>
					<path fill="#FFFFFF" d="M154.129,155.87c-0.074,0-0.148-0.007-0.223-0.019c-0.553-0.086-1.004-0.488-1.15-1.03
						c-0.176-0.628-0.236-1.286-0.281-1.946c-0.045-0.602-0.088-1.167-0.254-1.633c-0.268-0.742,0.115-1.56,0.857-1.828
						c0.762-0.276,1.559,0.113,1.826,0.859c0.264,0.727,0.342,1.446,0.398,2.105c0.086,0.119,0.166,0.253,0.229,0.399
						c0.336,0.863,0.264,1.73-0.209,2.449C155.059,155.631,154.607,155.87,154.129,155.87z"/>
				</g>
			</g>
			<g>
				<g>
					<path fill="#FFFFFF" d="M153.564,136.93c-0.682,0-1.287-0.487-1.408-1.182c-0.123-0.689-0.488-1.637-0.736-1.992
						c-0.434-0.655-0.258-1.542,0.393-1.983c0.662-0.438,1.535-0.265,1.982,0.388c0.488,0.726,0.996,2.056,1.172,3.095
						c0.141,0.774-0.379,1.516-1.154,1.65C153.729,136.921,153.645,136.93,153.564,136.93z"/>
				</g>
			</g>
			<g>
				<g>
					<path fill="#FFFFFF" d="M142.438,125.805c-0.717,0-1.334-0.539-1.418-1.266c-0.094-0.859-0.297-1.771-0.564-2.562
						c-0.254-0.748,0.141-1.557,0.889-1.813c0.742-0.24,1.562,0.146,1.812,0.894c0.336,0.995,0.58,2.086,0.705,3.159
						c0.09,0.784-0.479,1.493-1.262,1.579C142.541,125.803,142.488,125.805,142.438,125.805z"/>
				</g>
			</g>
			<g>
				<g>
					<path fill="#FFDD00" d="M100.715,38.881c-0.08-0.328-0.361-0.567-0.699-0.594l-1.773-0.144l-1.141-1.618
						c-0.154-0.227-0.434-0.36-0.691-0.332c-0.275,0.018-0.516,0.183-0.641,0.426l-0.865,1.691l-1.885,0.464
						c-0.289,0.071-0.512,0.297-0.576,0.589c-0.064,0.29,0.039,0.593,0.273,0.779l1.525,1.24l-0.18,1.61
						c-0.041,0.307,0.113,0.608,0.383,0.764c0.268,0.159,0.604,0.141,0.854-0.042l1.781-1.291l1.215,1.211
						c0.15,0.15,0.352,0.23,0.553,0.23c0.119,0,0.238-0.025,0.348-0.08c0.299-0.15,0.473-0.474,0.428-0.808l-0.338-2.555
						l1.086-0.689C100.658,39.552,100.795,39.208,100.715,38.881z"/>
				</g>
			</g>
			<g>
				<g>
					<path fill="#FFDD00" d="M121.434,81.596c-0.078-0.329-0.363-0.567-0.701-0.593l-1.77-0.145l-1.139-1.618
						c-0.158-0.228-0.436-0.362-0.697-0.331c-0.271,0.017-0.516,0.182-0.641,0.423l-0.863,1.693l-1.887,0.462
						c-0.287,0.073-0.512,0.298-0.578,0.59c-0.062,0.291,0.043,0.593,0.273,0.778l1.525,1.244l-0.176,1.608
						c-0.039,0.308,0.113,0.608,0.381,0.765c0.268,0.159,0.604,0.141,0.854-0.042l1.783-1.291l1.211,1.211
						c0.154,0.149,0.354,0.228,0.557,0.228c0.117,0,0.238-0.025,0.348-0.079c0.297-0.149,0.471-0.474,0.428-0.806l-0.338-2.555
						l1.088-0.69C121.373,82.266,121.514,81.924,121.434,81.596z"/>
				</g>
			</g>
			<g>
				<g>
					<path fill="#FFDD00" d="M86.93,102.279c-0.08-0.327-0.361-0.565-0.701-0.594l-1.771-0.144l-1.137-1.619
						c-0.158-0.226-0.438-0.361-0.695-0.329c-0.273,0.016-0.518,0.178-0.643,0.424l-0.863,1.689l-1.885,0.464
						c-0.291,0.073-0.514,0.299-0.574,0.589c-0.07,0.29,0.037,0.592,0.27,0.779l1.525,1.242l-0.178,1.61
						c-0.041,0.307,0.113,0.608,0.379,0.764c0.27,0.157,0.609,0.141,0.854-0.042l1.783-1.291l1.213,1.212
						c0.154,0.149,0.355,0.229,0.559,0.229c0.117,0,0.236-0.024,0.348-0.08c0.299-0.149,0.469-0.474,0.426-0.807l-0.338-2.554
						l1.088-0.691C86.871,102.95,87.012,102.606,86.93,102.279z"/>
				</g>
			</g>
			<g>
				<g>
					<path fill="#FFDD00" d="M132.941,124.819c-0.08-0.326-0.363-0.566-0.701-0.593l-1.773-0.145l-1.135-1.618
						c-0.16-0.226-0.441-0.359-0.699-0.331c-0.271,0.018-0.516,0.181-0.639,0.426l-0.863,1.689l-1.889,0.465
						c-0.289,0.072-0.512,0.298-0.576,0.589s0.041,0.593,0.275,0.78l1.523,1.241l-0.178,1.61c-0.041,0.307,0.113,0.608,0.383,0.765
						c0.266,0.158,0.605,0.141,0.852-0.043l1.781-1.291l1.213,1.212c0.156,0.149,0.354,0.229,0.557,0.229
						c0.117,0,0.238-0.025,0.348-0.08c0.297-0.149,0.471-0.476,0.428-0.808l-0.338-2.554l1.086-0.692
						C132.877,125.491,133.02,125.148,132.941,124.819z"/>
				</g>
			</g>
			<g>
				<g>
					<path fill="#FFDD00" d="M74.107,143.278c-0.078-0.328-0.363-0.566-0.701-0.593l-1.773-0.144l-1.133-1.618
						c-0.164-0.229-0.441-0.363-0.699-0.332c-0.271,0.018-0.514,0.181-0.639,0.424l-0.863,1.69l-1.889,0.464
						c-0.289,0.072-0.51,0.298-0.576,0.589c-0.062,0.29,0.039,0.593,0.275,0.779l1.523,1.24l-0.182,1.61
						c-0.039,0.308,0.115,0.609,0.385,0.765c0.27,0.159,0.609,0.142,0.854-0.042l1.785-1.292l1.211,1.212
						c0.154,0.149,0.354,0.228,0.559,0.228c0.115,0,0.232-0.025,0.342-0.079c0.301-0.149,0.473-0.475,0.432-0.808l-0.34-2.554
						l1.086-0.691C74.049,143.949,74.188,143.606,74.107,143.278z"/>
				</g>
			</g>
			<g>
				<g>
					<path fill="#FFDD00" d="M109.285,151.834c-0.082-0.329-0.367-0.566-0.703-0.592l-1.773-0.146l-1.137-1.619
						c-0.158-0.226-0.438-0.359-0.695-0.331c-0.273,0.019-0.518,0.182-0.641,0.425l-0.861,1.691l-1.887,0.464
						c-0.289,0.072-0.516,0.297-0.578,0.588c-0.064,0.29,0.039,0.594,0.27,0.78l1.525,1.242l-0.176,1.608
						c-0.039,0.308,0.113,0.609,0.381,0.765c0.268,0.16,0.605,0.142,0.855-0.042l1.781-1.291l1.211,1.212
						c0.156,0.149,0.354,0.229,0.557,0.229c0.117,0,0.238-0.026,0.352-0.08c0.295-0.149,0.467-0.476,0.424-0.807l-0.338-2.557
						l1.086-0.69C109.221,152.503,109.361,152.163,109.285,151.834z"/>
				</g>
			</g>
		</g>
		<g>
			<g>
				<path fill="#FF7CCA" d="M103.943,18.025c-0.492,0.92-1.219,1.664-2.139,2.185c-0.82,0.605-1.75,1.07-2.744,1.344
					c-0.844,0.235-1.693,0.318-2.516,0.259c-1.736,0.211-3.225,0-4.445-0.63c-1.592-0.821-2.652-2.326-3.158-4.472
					c-0.09-0.398-0.166-0.792-0.223-1.177c-0.08-0.138-0.15-0.276-0.213-0.416c-0.217-0.475-0.398-1.069-0.441-1.766
					c-0.346-1.418-0.24-2.809,0.627-3.98c0.914-1.234,2.275-2.206,3.861-2.798c1.166-0.582,2.555-0.898,4.129-0.933
					c2.543-0.053,4.984,1.307,6.412,3.449c2.191,1.623,2.771,4.288,1.576,7.354c-0.123,0.317-0.262,0.624-0.42,0.92
					C104.158,17.595,104.059,17.812,103.943,18.025z M99.65,17.57c0.4-0.164,0.766-0.38,1.102-0.652
					c1.471-1.209,2.129-2.807,1.893-4.508c-0.283-0.875-0.713-1.712-1.26-2.428c-0.156-0.075-0.311-0.147-0.473-0.213
					c0.27,0.526,0.477,1.15,0.596,1.884c0.299,1.85-0.209,3.672-1.414,5.077C99.965,17.021,99.812,17.302,99.65,17.57z
					 M96.682,20.112c0.967-0.146,1.941-0.423,2.838-0.74c-0.602,0.166-1.236,0.253-1.861,0.267
					C97.342,19.838,97.014,19.997,96.682,20.112z M92.625,13.723c-0.053,0.856,0.215,1.479,0.803,1.85
					c0.854,0.545,2.242,0.472,3.311-0.168c0.57-0.346,1.506-1.149,1.383-2.656c-0.002-0.04-0.004-0.077-0.006-0.116l-0.072,0.021
					C96.271,13.183,94.459,13.541,92.625,13.723z M93.176,11.988c1.201-0.152,2.395-0.385,3.564-0.696
					c-0.225-0.38-0.596-0.731-1.059-1.014C94.721,10.474,93.76,11.061,93.176,11.988z M90.941,10.373
					c0.115-0.141,0.238-0.274,0.365-0.401c-0.076,0.043-0.15,0.088-0.219,0.135C91.037,10.196,90.99,10.282,90.941,10.373z"/>
			</g>
		</g>
	</g>
</g>
</svg>
