<?xml version="1.0" encoding="utf-8"?>
<!-- Generator: Adobe Illustrator 16.0.0, SVG Export Plug-In . SVG Version: 6.00 Build 0)  -->
<!DOCTYPE svg PUBLIC "-//W3C//DTD SVG 1.1//EN" "http://www.w3.org/Graphics/SVG/1.1/DTD/svg11.dtd">
<svg version="1.1" id="Capa_1" xmlns="http://www.w3.org/2000/svg" xmlns:xlink="http://www.w3.org/1999/xlink" x="0px" y="0px"
	 width="200px" height="200px" viewBox="0 0 200 200" enable-background="new 0 0 200 200" xml:space="preserve">
<g>
	<g>
		<g>
			<path fill="#FF9400" d="M124.637,177.822c0,0,62.748-33.45,6.969-103.843c0,0-52.146-57.438-104.752,26.417
				c0,0-30.754,59.831,18.611,85.462C45.465,185.858,83.072,204.689,124.637,177.822z"/>
		</g>
		<g>
			<g>
				<path fill="#FFFFFF" d="M152.451,124.45c-1.318,0.339-2.535,0.61-3.66,0.809c-17.561,3.108-33.928-3.138-42.625-16.003
					c-7.494,5.955-16.432,7.183-26.264,3.482c-3.98-1.496-7.928-4.11-11.311-7.31c-7.037,3.96-13.645,6.165-14.17,6.342
					c-17.154,5.64-36.988-5.729-49.01-19.49c-1.502-1.732-1.324-4.368,0.408-5.885c1.732-1.525,4.369-1.339,5.881,0.404
					c10.215,11.679,26.662,21.474,40.117,17.032c3.184-1.038,7.287-2.751,11.271-4.894c-0.992-1.529-1.854-3.1-2.531-4.678
					c-2.33-5.518-2.443-11.003-0.33-15.855c2.381-5.501,7.107-8.959,12.295-9.012c5.092-0.06,9.645,3.157,12.158,8.609
					c1.809,3.911,1.834,8.119,0.08,12.161c-1.758,4.032-5.102,7.565-8.955,10.54c2.346,1.925,4.832,3.396,7.045,4.227
					c7.697,2.897,14.045,1.804,19.619-3.491c-1.852-5.887-3.445-14.691-1.197-20.614c1.443-3.824,4.021-5.426,5.918-6.096
					c6.119-2.153,9.232,0.318,10.51,2.005c5.307,6.974-2.932,22.688-4.238,24.557c-0.426,0.627-0.875,1.228-1.326,1.807
					c7.895,13.477,23.828,15.956,35.205,13.943c12.779-2.281,33.807-12.853,38.826-24.927c1.928-4.636,1.305-9.12-1.881-13.704
					c-1.322-1.887-0.865-4.486,1.033-5.805c1.875-1.314,4.492-0.856,5.809,1.036c4.82,6.908,5.762,14.405,2.756,21.676
					C187.551,110.547,165.615,121.034,152.451,124.45z M110.729,82.362c-0.207,0.053-0.465,0.133-0.752,0.236
					c-0.141,0.046-0.523,0.18-0.904,1.18c-0.756,2.008-0.697,5.105-0.242,8.26c1.4-3.524,2.58-7.816,2.312-9.767
					C111.021,82.294,110.898,82.322,110.729,82.362z M71.768,77.853c-1.557,0.403-2.99,1.817-3.893,3.88
					c-1.195,2.743-1.057,5.864,0.375,9.27c0.512,1.224,1.162,2.394,1.908,3.519c3.207-2.379,5.783-5.006,6.955-7.686
					c0.814-1.874,0.811-3.575-0.008-5.34c-1.121-2.409-2.754-3.778-4.477-3.757C72.33,77.745,72.045,77.783,71.768,77.853z"/>
			</g>
		</g>
		<g>
			<g>
				<path fill="#FFFFFF" d="M140.57,179.305c-7.9,2.051-16.977,2.21-25.387,0.726c-10.535-1.851-18.984-5.846-24.619-11.366
					c-5.334,3.505-11.896,5.395-18.52,5.142c-7.447-0.286-14.311-4.516-19.613-10.196c-7.941,6.071-18.904,9.272-28.709,9.3
					c-2.303,0.004-4.176-1.863-4.189-4.165c0-2.304,1.859-4.19,4.178-4.184c7.209-0.019,16.908-2.413,23.645-7.512
					c-3.141-4.93-5.148-10.179-5.57-14.597c-0.682-7.009,2.408-12.062,8.297-13.584c0.092-0.03,0.195-0.054,0.297-0.08
					c5.07-1.188,8.168,0.625,9.889,2.345c5.234,5.285,3.115,15.32,2.633,17.281c-0.846,3.461-2.41,6.574-4.535,9.332
					c3.963,4.297,8.955,7.525,13.994,7.716c5.24,0.204,9.729-1.318,13.145-3.467c-1.834-3.474-2.844-7.296-2.855-11.381
					c-0.037-7.334,3.92-11.206,7.916-11.738c3.918-0.55,8.707,1.919,10.613,8.685c1.32,4.7-0.123,10.172-3.965,15.045
					c-0.123,0.157-0.25,0.317-0.379,0.471c5.012,4.626,12.555,7.464,19.795,8.734c14.818,2.61,32.428-0.822,36.209-11.069
					c0.791-2.17,3.184-3.269,5.348-2.473c2.17,0.794,3.279,3.193,2.48,5.357C157.652,171.791,149.938,176.877,140.57,179.305z
					 M91.568,147.138c0.121,0.076-0.58,1.033-0.572,3.434c0.012,1.832,0.309,3.548,0.859,5.139c1.262-2.153,1.734-4.262,1.271-5.889
					C92.574,147.833,91.754,147.196,91.568,147.138z M52.084,136.965c-0.893,0.23-2.357,0.866-1.992,4.681
					c0.256,2.648,1.355,5.785,3.088,8.902c0.711-1.281,1.25-2.648,1.615-4.112c1.037-4.243,0.586-8.37-0.459-9.43
					c-0.396-0.407-1.453-0.227-2.043-0.087C52.229,136.925,52.156,136.953,52.084,136.965z"/>
			</g>
		</g>
	</g>
	<g>
		<path fill="#87888A" d="M116.012,40.876c-0.893-3.379-4.527-5.272-9.492-6.24c-0.354-7.354-2.248-13.455-5.9-18.041
			c-7.215-9.063-18.084-8.959-18.4-8.841c-5.512,0.161-12.68,3.48-15.637,18.342c-0.297,1.488-0.85,6.014-1.121,11.132
			c-3.086,0.596-4.992,1.016-4.992,1.016c-6.639,1.896-3.766,21.857-3.338,24.536c0.008,0.083,0.008,0.098,0.029,0.218
			c0,0.019,0.01,0.089,0.01,0.089l0.029,0.004c0.201,0.998,1.006,2.836,4.154,3.381c0,0,50.014,6.416,54.186-2.787
			c0.207-0.171,0.332-0.402,0.361-0.697C116.607,54.922,116.012,40.876,116.012,40.876z M102.348,40.625
			c1.865-0.507,3.74,0.594,4.24,2.424l0.312,1.012c0.301,0.854,0.633,1.828,0.781,3.018c0.291,2.703,0.248,5.587,0.168,8.307
			c-0.051,1.849-1.572,3.319-3.406,3.339c-0.049,0.001-0.102,0.001-0.15,0.001c-1.904-0.067-3.402-1.658-3.336-3.563
			c0.078-2.453,0.107-5.04-0.135-7.279c-0.055-0.46-0.232-0.989-0.439-1.595c-0.156-0.469-0.318-0.938-0.461-1.425
			C99.424,43.024,100.506,41.128,102.348,40.625z M77.518,18.033c1.383-1.876,2.941-2.776,4.908-2.833
			c-0.053,0.017,7.391-0.226,12.365,6.029c2.473,3.102,3.859,7.392,4.277,12.641c-8.473-0.292-18.451,0.86-26.186,2.082
			C73.303,29.204,74.531,22.046,77.518,18.033z M89.186,51.664c0.039,0.438,0.189,0.966,0.375,1.575
			c0.146,0.475,0.289,0.963,0.408,1.462c0.439,1.859-0.73,3.715-2.578,4.144c-0.248,0.055-0.5,0.086-0.738,0.091
			c-1.598,0.021-3.027-1.063-3.402-2.671l-0.291-1.025c-0.254-0.82-0.559-1.841-0.648-3.035c-0.203-2.525-0.092-5.139,0.111-8.298
			c0.127-1.9,1.635-3.358,3.664-3.214c1.906,0.122,3.348,1.771,3.211,3.668C89.111,47.237,89.023,49.572,89.186,51.664z
			 M63.902,47.319c0.143-1.598,1.463-2.833,3.174-2.628c1.598,0.146,2.777,1.57,2.627,3.176c-0.158,1.701-0.309,3.498-0.15,4.994
			c0.016,0.146,0.158,0.484,0.295,0.82c0.162,0.368,0.305,0.737,0.439,1.125c0.496,1.534-0.346,3.172-1.889,3.664
			c-0.287,0.095-0.58,0.139-0.861,0.141c-1.238,0.013-2.404-0.778-2.805-2.02c-0.531-1.293-0.869-2.103-0.975-3.117
			C63.555,51.423,63.711,49.312,63.902,47.319z"/>
	</g>
</g>
</svg>
